<svg width="247" height="222" viewBox="0 0 247 222" fill="none" xmlns="http://www.w3.org/2000/svg">
<rect opacity="0.4" x="0.925781" y="154.667" width="63.5708" height="62.9155" fill="black"/>
<g opacity="0.4">
<path d="M86.1238 140.904H149.695V159.91H86.1238V140.904Z" fill="black"/>
<path d="M69.0842 174.984H112.339V154.667L86.4515 140.904L69.0842 154.667V174.984Z" fill="black"/>
<path d="M159.867 204.722L223.868 155.611L211.074 138.938L147.073 188.05L159.867 204.722Z" fill="black"/>
<path d="M69.0842 174.984H164.113V204.475H69.0842V174.984Z" fill="black"/>
</g>
<path opacity="0.4" d="M30.4174 116.656H240.791C240.791 129.686 230.228 140.249 217.198 140.249H54.0107C40.9805 140.249 30.4174 129.686 30.4174 116.656Z" fill="black"/>
<path d="M229.342 114.775C229.342 114.775 189.217 117.81 138.019 117.81C86.82 117.81 43.9359 114.775 43.9359 114.775C43.9359 63.5768 85.4405 22.0721 136.639 22.0721C187.838 22.0721 229.342 63.5768 229.342 114.775Z" fill="#CBA448"/>
<path d="M0.784728 221.733V214.386H61.8994V158.989H0.784728V151.512H27.4861C39.7603 151.512 52.0327 151.512 64.3032 151.512C65.2962 151.512 66.2893 151.8 67.2823 151.848C67.8118 151.916 68.3488 151.809 68.8125 151.545C71.6613 149.249 74.4504 146.889 77.6301 144.246C76.4852 144.187 75.8069 144.121 75.1286 144.121C67.4071 144.121 59.6801 144.121 51.9585 144.121C38.0022 144.067 27.6 135.157 25.4187 121.413C25.2975 120.628 25.2304 119.835 25.2179 119.041C25.1636 116.062 26.4768 114.613 29.4721 114.543C32.8526 114.467 36.2386 114.543 39.8905 114.543C40.3951 88.817 49.1151 66.4608 66.897 47.9789C84.6789 29.4971 106.547 19.9143 132.218 18.4221V7.37423H125.11V-6.10352e-05H147.021V7.2657H139.913V18.4004C165.584 19.8818 187.55 29.5242 205.343 48.0278C223.135 66.5313 231.774 88.779 232.284 114.527C235.675 114.527 238.909 114.575 242.144 114.527C244.368 114.483 246.094 115.161 247 117.332V121.233C246.849 121.632 246.719 122.037 246.609 122.449C244.33 133.692 237.575 140.665 226.532 143.508C225.306 143.823 224.031 143.959 222.685 144.192C222.88 144.659 222.978 144.924 223.097 145.185C226.456 152.554 225.132 158.751 218.908 163.927C204.257 176.104 189.536 188.204 174.869 200.365C169.356 204.939 163.039 207.017 155.909 207.006C127.975 206.963 100.039 206.963 72.1008 207.006H69.4039C69.4039 210.463 69.3063 213.632 69.4419 216.774C69.5342 219.053 68.7528 220.681 66.7668 221.755L0.784728 221.733ZM224.709 114.239C225.002 85.7348 209.96 53.5788 178.651 36.8985C147.341 20.2182 116.059 21.5747 86.6106 41.1527C60.9173 58.2346 48.3989 83.2659 47.2105 114.239H224.709ZM69.5884 199.583H72.5729C100.247 199.583 127.861 199.545 155.508 199.616C161.18 199.735 166.694 197.736 170.973 194.01C178.955 187.238 187.083 180.651 195.152 173.988C201.712 168.561 208.294 163.135 214.817 157.676C217.166 155.706 218.1 153.145 217.161 150.112C216.249 147.182 214.139 145.304 211.192 145.321C209.133 145.404 207.142 146.078 205.457 147.263C192.113 156.629 178.868 166.13 165.628 175.653C164 176.863 162.012 177.492 159.984 177.439C146.489 177.39 132.989 177.439 119.488 177.406C118.4 177.404 117.313 177.339 116.233 177.211C113.554 176.905 111.084 175.618 109.299 173.597C107.515 171.577 106.542 168.967 106.568 166.271C106.528 163.576 107.503 160.964 109.299 158.953C111.096 156.943 113.582 155.681 116.265 155.419C119.922 155.104 123.618 155.218 127.297 155.186C132.18 155.142 137.113 155.186 142.018 155.099C144.455 155.055 146.034 153.541 146.842 151.376C147.651 149.211 147.141 147.133 145.41 145.885C143.959 144.87 142.242 144.304 140.472 144.257C125.099 144.138 109.721 144.257 94.3484 144.149C91.081 144.067 87.9025 145.218 85.444 147.372C80.7159 151.376 75.9426 155.339 71.1241 159.261C70.6089 159.633 70.1953 160.129 69.9213 160.702C69.6474 161.276 69.5217 161.909 69.5559 162.544C69.6101 174.096 69.5884 185.643 69.5884 197.196V199.583ZM32.9774 122.053C33.3237 123.274 33.7386 124.476 34.2201 125.65C37.8611 133.345 44.1664 136.742 52.474 136.742H219.63C223.13 136.742 226.543 136.275 229.663 134.571C234.634 131.858 237.835 127.783 239.094 122.091L32.9774 122.053ZM153.468 144.241C153.609 144.718 153.679 144.995 153.766 145.261C156.479 154.051 151.113 161.99 141.926 162.468C136.31 162.755 130.672 162.554 125.039 162.565C122.804 162.565 120.563 162.522 118.327 162.565C115.533 162.641 113.948 164.052 113.986 166.309C114.024 168.567 115.543 169.809 118.229 169.95C118.588 169.95 118.951 169.95 119.315 169.95C132.522 169.95 145.73 169.978 158.926 169.902C160.124 169.872 161.287 169.495 162.274 168.816C173.176 161.122 184.017 153.346 194.875 145.586C195.375 145.234 195.847 144.838 196.644 144.214L153.468 144.241Z" fill="white"/>
<path d="M54.6987 195.948C54.6604 198.866 53.4791 201.654 51.4084 203.711C49.3377 205.769 46.5428 206.932 43.6237 206.952C40.7056 206.903 37.9209 205.721 35.8582 203.657C33.7955 201.592 32.6165 198.806 32.5704 195.888C32.5758 194.435 32.8673 192.997 33.4282 191.657C33.9892 190.317 34.8086 189.1 35.8398 188.076C36.871 187.053 38.0937 186.242 39.4381 185.691C40.7825 185.14 42.2223 184.859 43.6753 184.864C45.1282 184.87 46.5659 185.161 47.9062 185.722C49.2466 186.283 50.4633 187.103 51.4869 188.134C52.5105 189.165 53.321 190.388 53.8721 191.732C54.4232 193.077 54.7041 194.516 54.6987 195.969V195.948ZM47.2865 195.948C47.3004 195.46 47.2156 194.975 47.0372 194.521C46.8589 194.067 46.5906 193.653 46.2485 193.306C45.9063 192.958 45.4975 192.683 45.0464 192.497C44.5954 192.312 44.1115 192.219 43.6237 192.225C42.6786 192.237 41.7736 192.609 41.0938 193.265C40.4139 193.922 40.0106 194.814 39.9664 195.758C39.9659 196.745 40.3497 197.693 41.0364 198.402C41.7231 199.111 42.6589 199.525 43.6454 199.556C44.5978 199.532 45.505 199.145 46.1817 198.474C46.8584 197.803 47.2536 196.9 47.2865 195.948Z" fill="white"/>
<path opacity="0.2" d="M135.995 33.2032V40.5558C116.737 40.8923 99.9429 47.4906 85.5308 60.633C84.6734 59.7268 83.8486 58.864 83.0238 58.0013L80.4681 55.2881C96.1717 40.8651 114.556 33.5885 135.995 33.2032Z" fill="white"/>
<path opacity="0.2" d="M74.2442 73.8405L68.1017 69.7599L75.1992 60.4919C77.0713 62.1632 78.786 63.6825 80.7069 65.3755L74.2442 73.8405Z" fill="white"/>
<path d="M90.0404 56.402C90.591 56.3041 91.2026 56.2307 91.8755 56.1818C92.5483 56.1206 93.2212 56.09 93.894 56.09C94.5791 56.09 95.2703 56.1451 95.9676 56.2552C96.6649 56.353 97.2888 56.561 97.8393 56.8791C98.4021 57.1849 98.8608 57.6192 99.2156 58.1819C99.5704 58.7325 99.7478 59.4665 99.7478 60.384C99.7478 61.1914 99.5949 61.8826 99.289 62.4576C98.9832 63.0203 98.5734 63.4791 98.0595 63.8338C97.558 64.1886 96.983 64.4516 96.3346 64.6229C95.6862 64.7819 95.0195 64.8615 94.3344 64.8615C94.2733 64.8615 94.1693 64.8615 94.0225 64.8615C93.8757 64.8615 93.7166 64.8615 93.5454 64.8615C93.3863 64.8492 93.2334 64.837 93.0866 64.8248C92.9398 64.8125 92.8297 64.8003 92.7563 64.7881V69.1187H90.0404V56.402ZM94.0775 58.4755C93.8206 58.4755 93.5698 58.4817 93.3252 58.4939C93.0927 58.5061 92.9031 58.5306 92.7563 58.5673V62.3842C92.8052 62.3964 92.8847 62.4086 92.9948 62.4209C93.105 62.4331 93.2212 62.4453 93.3435 62.4576C93.4658 62.4576 93.5759 62.4637 93.6738 62.4759C93.7839 62.4759 93.8695 62.4759 93.9307 62.4759C94.2855 62.4759 94.6403 62.4515 94.995 62.4025C95.3498 62.3536 95.6618 62.2496 95.9309 62.0906C96.2123 61.9315 96.4386 61.7174 96.6099 61.4483C96.7811 61.1669 96.8668 60.7938 96.8668 60.3289C96.8668 59.9375 96.7873 59.6255 96.6282 59.3931C96.4692 59.1484 96.2551 58.9588 95.986 58.8242C95.7291 58.6896 95.4293 58.5979 95.0868 58.5489C94.7565 58.5 94.4201 58.4755 94.0775 58.4755ZM101.787 56.2735H110.063V58.659H104.503V61.4483H109.549V63.8338H104.503V66.7332H110.155V69.1187H101.787V56.2735ZM121.98 68.5682C121.576 68.8496 121.044 69.0515 120.383 69.1738C119.723 69.3084 119.044 69.3756 118.346 69.3756C117.527 69.3756 116.738 69.2533 115.979 69.0086C115.233 68.764 114.566 68.3725 113.979 67.8342C113.404 67.2959 112.945 66.6047 112.603 65.7606C112.26 64.9165 112.089 63.895 112.089 62.6961C112.089 61.4483 112.285 60.4023 112.676 59.5582C113.067 58.7019 113.569 58.0168 114.181 57.503C114.792 56.9769 115.471 56.5977 116.218 56.3653C116.964 56.1328 117.698 56.0166 118.42 56.0166C119.215 56.0166 119.882 56.0655 120.42 56.1634C120.97 56.2613 121.423 56.3775 121.778 56.5121L121.246 58.7875C120.94 58.6529 120.579 58.5551 120.163 58.4939C119.759 58.4327 119.245 58.4021 118.622 58.4021C118.071 58.4021 117.569 58.4939 117.117 58.6774C116.676 58.8487 116.297 59.1117 115.979 59.4665C115.661 59.8212 115.41 60.2678 115.227 60.806C115.055 61.3443 114.97 61.9743 114.97 62.6961C114.97 63.3323 115.049 63.9134 115.208 64.4394C115.367 64.9654 115.606 65.4181 115.924 65.7973C116.242 66.1766 116.646 66.4702 117.135 66.6781C117.624 66.8861 118.193 66.9901 118.842 66.9901C119.441 66.9901 119.943 66.9351 120.346 66.825C120.762 66.7148 121.129 66.5742 121.447 66.4029L121.98 68.5682ZM133.504 58.659H129.43V69.1187H126.714V58.659H122.64V56.2735H133.504V58.659ZM134.04 62.6961C134.04 61.644 134.175 60.7021 134.444 59.8702C134.713 59.0383 135.099 58.341 135.6 57.7782C136.114 57.2033 136.738 56.769 137.472 56.4754C138.206 56.1695 139.038 56.0166 139.968 56.0166C140.958 56.0166 141.821 56.1818 142.555 56.5121C143.301 56.8301 143.919 57.2828 144.408 57.87C144.91 58.4572 145.283 59.1606 145.528 59.9803C145.785 60.7999 145.913 61.7052 145.913 62.6961C145.913 63.7482 145.772 64.6902 145.491 65.5221C145.222 66.354 144.83 67.0574 144.317 67.6324C143.803 68.1951 143.179 68.6294 142.445 68.9352C141.711 69.2288 140.885 69.3756 139.968 69.3756C138.977 69.3756 138.108 69.2166 137.362 68.8985C136.628 68.5682 136.01 68.1095 135.508 67.5223C135.019 66.9351 134.652 66.2316 134.407 65.412C134.163 64.5923 134.04 63.687 134.04 62.6961ZM136.921 62.6961C136.921 63.3323 136.983 63.9134 137.105 64.4394C137.227 64.9654 137.411 65.4181 137.655 65.7973C137.9 66.1766 138.212 66.4702 138.591 66.6781C138.983 66.8861 139.442 66.9901 139.968 66.9901C140.934 66.9901 141.686 66.6598 142.225 65.9992C142.763 65.3386 143.032 64.2376 143.032 62.6961C143.032 62.0844 142.977 61.5156 142.867 60.9895C142.757 60.4635 142.573 60.0109 142.316 59.6316C142.072 59.2401 141.754 58.9404 141.362 58.7324C140.983 58.5122 140.518 58.4021 139.968 58.4021C139.013 58.4021 138.267 58.7447 137.729 59.4298C137.191 60.1148 136.921 61.2036 136.921 62.6961ZM148.199 56.402C148.749 56.3041 149.361 56.2307 150.034 56.1818C150.707 56.1206 151.38 56.09 152.052 56.09C152.737 56.09 153.429 56.1451 154.126 56.2552C154.823 56.353 155.447 56.561 155.998 56.8791C156.56 57.1849 157.019 57.6192 157.374 58.1819C157.729 58.7325 157.906 59.4665 157.906 60.384C157.906 61.1914 157.753 61.8826 157.447 62.4576C157.142 63.0203 156.732 63.4791 156.218 63.8338C155.716 64.1886 155.141 64.4516 154.493 64.6229C153.845 64.7819 153.178 64.8615 152.493 64.8615C152.432 64.8615 152.328 64.8615 152.181 64.8615C152.034 64.8615 151.875 64.8615 151.704 64.8615C151.545 64.8492 151.392 64.837 151.245 64.8248C151.098 64.8125 150.988 64.8003 150.915 64.7881V69.1187H148.199V56.402ZM152.236 58.4755C151.979 58.4755 151.728 58.4817 151.484 58.4939C151.251 58.5061 151.061 58.5306 150.915 58.5673V62.3842C150.964 62.3964 151.043 62.4086 151.153 62.4209C151.263 62.4331 151.38 62.4453 151.502 62.4576C151.624 62.4576 151.734 62.4637 151.832 62.4759C151.942 62.4759 152.028 62.4759 152.089 62.4759C152.444 62.4759 152.799 62.4515 153.153 62.4025C153.508 62.3536 153.82 62.2496 154.089 62.0906C154.371 61.9315 154.597 61.7174 154.768 61.4483C154.94 61.1669 155.025 60.7938 155.025 60.3289C155.025 59.9375 154.946 59.6255 154.787 59.3931C154.628 59.1484 154.413 58.9588 154.144 58.8242C153.887 58.6896 153.588 58.5979 153.245 58.5489C152.915 58.5 152.578 58.4755 152.236 58.4755ZM165.304 66.3845H160.973L159.927 69.1187H157.211L162.239 56.1818H164.239L169.286 69.1187H166.405L165.304 66.3845ZM161.725 64.2376H164.662L163.671 61.5584L163.23 59.5215H163.138L162.698 61.5768L161.725 64.2376ZM178.703 63.8155H173.565V69.1187H170.849V56.2735H173.565V61.43H178.703V56.2735H181.419V69.1187H178.703V63.8155ZM81.3277 91.9083L86.6126 85.1449L88.9405 87.1267L86.2666 90.7129L84.6937 91.9397L86.2666 93.0408L89.1292 96.5955L86.8014 98.5773L81.3277 91.9083ZM74.6901 91.9712L80.1638 84.7359L82.7748 86.938L79.9121 90.65L78.2763 91.9397L79.9121 93.0722L82.995 96.7213L80.3525 98.9234L74.6901 91.9712ZM92.2836 89.1085C92.2836 87.305 92.5143 85.6901 92.9757 84.264C93.4371 82.838 94.0977 81.6426 94.9575 80.6779C95.8383 79.6922 96.9079 78.9477 98.1662 78.4444C99.4245 77.9201 100.851 77.6579 102.444 77.6579C104.143 77.6579 105.622 77.941 106.88 78.5073C108.159 79.0526 109.218 79.8285 110.057 80.8352C110.917 81.8418 111.557 83.0477 111.976 84.4528C112.417 85.8579 112.637 87.4098 112.637 89.1085C112.637 90.9121 112.396 92.5269 111.913 93.953C111.452 95.3791 110.781 96.585 109.9 97.5707C109.019 98.5354 107.95 99.2799 106.691 99.8042C105.433 100.307 104.017 100.559 102.444 100.559C100.746 100.559 99.2567 100.287 97.9775 99.7413C96.7191 99.175 95.6601 98.3886 94.8002 97.3819C93.9613 96.3753 93.3322 95.1694 92.9128 93.7643C92.4933 92.3592 92.2836 90.8073 92.2836 89.1085ZM97.2225 89.1085C97.2225 90.1991 97.3273 91.1952 97.537 92.097C97.7468 92.9988 98.0613 93.7748 98.4808 94.4249C98.9002 95.075 99.435 95.5783 100.085 95.9349C100.756 96.2914 101.543 96.4696 102.444 96.4696C104.101 96.4696 105.391 95.9034 106.314 94.7709C107.237 93.6385 107.698 91.751 107.698 89.1085C107.698 88.0599 107.604 87.0848 107.415 86.183C107.226 85.2812 106.911 84.5052 106.471 83.8551C106.052 83.184 105.506 82.6702 104.835 82.3137C104.185 81.9362 103.388 81.7474 102.444 81.7474C100.809 81.7474 99.5294 82.3346 98.6066 83.5091C97.6838 84.6835 97.2225 86.55 97.2225 89.1085ZM128.492 82.1878H123.427C123.322 84.1802 123.207 85.9837 123.081 87.5986C122.976 89.1924 122.819 90.629 122.609 91.9083C122.42 93.1876 122.158 94.3305 121.823 95.3372C121.487 96.3228 121.068 97.1932 120.564 97.9482C120.229 98.4305 119.851 98.829 119.432 99.1436C119.033 99.4581 118.614 99.7098 118.174 99.8985C117.733 100.066 117.303 100.182 116.884 100.245C116.464 100.328 116.076 100.37 115.72 100.37C115.175 100.37 114.745 100.328 114.43 100.245C114.136 100.161 113.811 100.035 113.455 99.8671L113.958 95.9663C114.189 96.0502 114.462 96.0922 114.776 96.0922C115.133 96.0922 115.489 96.0083 115.846 95.8405C116.202 95.6727 116.517 95.4001 116.789 95.0226C117.125 94.5612 117.419 93.9006 117.67 93.0408C117.943 92.1809 118.163 91.0694 118.331 89.7062C118.52 88.3221 118.666 86.6758 118.771 84.7674C118.897 82.8589 118.981 80.6359 119.023 78.0983H133.147V100.119H128.492V82.1878ZM150.379 82.1878H145.315C145.21 84.1802 145.094 85.9837 144.969 87.5986C144.864 89.1924 144.707 90.629 144.497 91.9083C144.308 93.1876 144.046 94.3305 143.71 95.3372C143.375 96.3228 142.955 97.1932 142.452 97.9482C142.116 98.4305 141.739 98.829 141.32 99.1436C140.921 99.4581 140.502 99.7098 140.061 99.8985C139.621 100.066 139.191 100.182 138.771 100.245C138.352 100.328 137.964 100.37 137.608 100.37C137.062 100.37 136.632 100.328 136.318 100.245C136.024 100.161 135.699 100.035 135.343 99.8671L135.846 95.9663C136.077 96.0502 136.349 96.0922 136.664 96.0922C137.02 96.0922 137.377 96.0083 137.733 95.8405C138.09 95.6727 138.404 95.4001 138.677 95.0226C139.013 94.5612 139.306 93.9006 139.558 93.0408C139.831 92.1809 140.051 91.0694 140.219 89.7062C140.407 88.3221 140.554 86.6758 140.659 84.7674C140.785 82.8589 140.869 80.6359 140.911 78.0983H155.035V100.119H150.379V82.1878ZM173.746 87.9761L173.997 85.1763H173.84L172.236 88.0075L163.207 100.119H159.747V78.0983H164.403V89.9579L164.088 92.8835H164.277L165.976 89.9579L174.91 78.0983H178.401V100.119H173.746V87.9761ZM190.124 91.751L184.839 98.5144L182.48 96.5011L185.154 92.9464L186.727 91.7195L185.154 90.6185L182.323 87.0638L184.619 85.0819L190.124 91.751ZM196.762 91.6881L191.288 98.9234L188.677 96.6899L191.54 93.0093L193.176 91.7195L191.54 90.5871L188.457 86.938L191.068 84.7359L196.762 91.6881Z" fill="white"/>
</svg>
