<svg width="101" height="105" viewBox="0 0 101 105" fill="none" xmlns="http://www.w3.org/2000/svg">
<path d="M38.5094 104.883C34.6487 103.432 33.1159 100.539 33.1241 96.5306C33.1568 78.5794 33.1603 60.6282 33.1343 42.6771C33.1343 40.2323 33.3823 37.843 34.3741 35.5806C35.3987 33.2507 36.9418 31.431 39.3352 30.4002C40.3107 29.9903 40.7922 29.0928 41.1611 28.1583C41.8005 26.5456 41.948 24.8448 41.9521 23.1357C41.9664 16.4122 41.9869 9.68872 41.9337 2.96522C41.9337 1.64348 42.2882 0.668046 43.4275 0H44.862C46.1817 0.55329 46.6079 1.51847 46.5915 2.95907C46.5116 10.3629 46.5546 17.7708 46.4932 25.1747C46.4669 27.1949 45.9761 29.182 45.0587 30.9822C44.2923 32.5109 43.2411 33.8285 41.6939 34.5908C38.7164 36.0601 37.7799 38.6729 37.5094 41.7016C37.4766 42.0746 37.4909 42.4517 37.4909 42.8267C37.4909 60.6781 37.4848 78.5275 37.4725 96.3749C37.4646 96.8856 37.5709 97.3917 37.7837 97.8561C37.9964 98.3206 38.3101 98.7317 38.702 99.0593C39.8373 100.096 41.4091 100.033 42.4296 98.8872C43.2901 97.941 43.9831 96.8551 44.4788 95.6761H44.4542C44.6591 95.756 44.6735 95.5654 44.7431 95.4548C44.8402 95.3622 44.9306 95.2629 45.0136 95.1576C49.1599 89.0701 53.3034 82.9805 57.4442 76.8888C59.7352 73.524 63.2558 72.3354 67.094 73.6736C75.0696 76.4564 83.0431 79.2482 91.0145 82.0488C91.6498 82.2721 92.283 82.5713 92.99 82.4443C94.9327 82.1 95.7544 79.8581 94.5085 78.2249C89.1969 71.2576 83.8771 64.2902 78.5491 57.3229C76.2438 54.3023 76.2069 50.5953 78.4815 47.5624C83.6729 40.6347 88.8813 33.7145 94.1068 26.8018C95.0843 25.5046 95.154 24.232 94.3281 23.1439C93.6273 22.2177 92.5187 21.9451 91.201 22.4164C83.373 25.2129 75.5477 28.0135 67.7251 30.8182C66.4956 31.2568 65.2661 31.6973 63.9648 31.6994C60.9299 31.6994 58.6369 30.3735 56.9483 27.8489C54.8991 24.7935 52.7433 21.8099 50.6326 18.7934V9.63134C50.9031 9.9797 51.1039 10.2195 51.2822 10.4736L61.5652 25.2484C62.5263 26.6317 63.3931 26.9206 64.9792 26.353C73.1515 23.4376 81.3231 20.5182 89.494 17.5946C93.0556 16.322 96.2339 17.1438 98.3057 19.8488C99.3627 21.2276 99.9463 22.9109 99.9696 24.6481C99.9929 26.3854 99.4545 28.0837 98.4348 29.4903C96.4306 32.2486 94.3363 34.9474 92.2871 37.6729C89.1081 41.897 85.9277 46.1191 82.7459 50.3391C81.4324 52.083 81.4447 52.8433 82.7951 54.6097C88.0152 61.4404 93.2325 68.2712 98.4471 75.1019C100.609 77.9421 100.746 81.1778 98.8938 84.1635C96.8036 87.5366 93.5043 88.6718 89.5985 87.3234C83.2009 85.1199 76.8087 82.8889 70.4219 80.6307C68.7825 80.0569 67.1432 79.4708 65.514 78.897C63.4238 78.1634 62.5796 78.436 61.3439 80.2352C56.6163 87.1206 51.8539 93.9834 47.192 100.912C45.9952 102.691 44.5628 104.053 42.6078 104.883H38.5094Z" fill="black"/>
<path d="M18.238 0C19.3856 0.745916 19.5946 1.8443 19.5967 3.13736C19.5967 10.4408 19.4696 17.7463 19.6581 25.0497C19.6897 26.2122 19.9277 27.3599 20.361 28.4391C20.5611 28.9787 20.8654 29.4736 21.2568 29.8955C21.6481 30.3174 22.1188 30.6581 22.6418 30.8982C25.8755 32.4535 27.4534 35.2978 28.2567 38.6504C28.5568 39.9829 28.6992 41.3461 28.6809 42.7119C28.6809 62.4418 28.6809 82.1724 28.6809 101.904C28.6809 103.451 28.0661 104.316 26.8243 104.551C26.3029 104.655 25.7617 104.56 25.3068 104.285C24.8518 104.01 24.516 103.575 24.3652 103.066C24.2033 102.564 24.2381 102.053 24.2381 101.543C24.2381 81.9825 24.2381 62.4227 24.2381 42.8636C24.2381 41.3881 24.1377 39.9373 23.6234 38.5335C23.0086 36.8327 21.984 35.5417 20.3446 34.6605C17.1253 32.9351 15.8999 29.9186 15.3691 26.5251C15.2014 25.3079 15.1288 24.0794 15.1519 22.8509C15.1519 16.2626 15.1867 9.67437 15.1294 3.08613C15.115 1.74594 15.4347 0.713129 16.5987 0H18.238Z" fill="black"/>
<path d="M50.6303 18.8139C52.741 21.8304 54.8947 24.814 56.946 27.8694C58.6407 30.3941 60.9276 31.726 63.9625 31.7199C65.274 31.7199 66.5015 31.2773 67.7229 30.8387C75.5468 28.0313 83.3721 25.2307 91.1987 22.4369C92.5164 21.9656 93.625 22.232 94.3258 23.1644C95.1455 24.2525 95.082 25.5251 94.1045 26.8223C88.8981 33.7418 83.6917 40.6606 78.4854 47.5788C76.2107 50.6117 76.2476 54.3187 78.553 57.3393C83.8687 64.3066 89.1884 71.274 94.5123 78.2413C95.7582 79.8807 94.9365 82.1164 92.9938 82.4607C92.2869 82.5877 91.6537 82.2885 91.0184 82.0652C83.0387 79.2687 75.0632 76.4742 67.0917 73.6818C63.2535 72.3437 59.7329 73.5322 57.4419 76.897C53.3011 82.9846 49.1576 89.0742 45.0113 95.1658C44.9283 95.2711 44.8379 95.3704 44.7408 95.463C44.622 95.5101 44.4642 95.5019 44.4519 95.6843H44.4765C42.5133 95.6658 41.8924 95.1412 41.7613 93.0982C41.4723 88.5673 41.6281 84.0263 41.6076 79.4913C41.5523 67.1079 41.5564 54.7224 41.5215 42.339C41.4914 41.384 41.6588 40.4331 42.0133 39.5459C42.2412 38.9377 42.6767 38.4296 43.2429 38.1114C47.3802 35.9065 49.2922 32.2076 50.1795 27.8059C50.7881 24.8181 50.5053 21.8078 50.6303 18.8139Z" fill="#D65B51"/>
<path d="M20.0108 58.8126C20.3223 60.5688 20.0989 62.3394 20.1379 64.1037C20.1563 64.864 19.6358 64.4296 19.351 64.3455C16.1842 63.4207 13.0203 62.4862 9.85899 61.5422C8.39175 61.1078 6.91836 60.6938 5.46136 60.2246C1.97769 59.1077 -0.0223529 56.2511 0.00018851 52.4826C0.0206807 49.1813 2.09244 46.4497 5.46956 45.4087C9.98809 44.0152 14.5292 42.7017 19.0415 41.298C19.7998 41.0623 19.9022 41.3184 19.9473 41.9373C20.0665 43.4311 20.0802 44.9314 19.9883 46.4272C15.6255 47.7468 11.2586 49.0522 6.90196 50.3944C5.7667 50.7449 5.26259 51.5789 5.28923 52.8289C5.31587 54.0789 5.84457 54.7593 7.06795 55.1281C9.28316 55.7921 11.4922 56.4888 13.7238 57.0913C15.8222 57.6589 17.8653 58.4274 20.0108 58.8126Z" fill="black"/>
<path d="M28.5375 13.7441C28.5375 17.3938 28.5519 21.0455 28.5375 24.6952C28.5375 26.2485 27.5478 27.1665 26.1031 27.0579C25.6396 27.0329 25.1978 26.8541 24.8474 26.5498C24.4971 26.2454 24.2582 25.8329 24.1686 25.3776C24.0951 24.941 24.0635 24.4984 24.0743 24.0558C24.0743 17.1991 24.0743 10.3424 24.0743 3.48575C24.0743 1.47956 24.8203 0.454949 26.2854 0.42626C27.7506 0.397571 28.5498 1.45087 28.5498 3.51034C28.543 6.92297 28.5389 10.3342 28.5375 13.7441Z" fill="black"/>
<path d="M20.011 58.8126C17.8655 58.4192 15.8224 57.6507 13.724 57.0831C11.4924 56.4806 9.28337 55.7839 7.06816 55.1199C5.83863 54.7511 5.31402 54.0523 5.28943 52.8207C5.26484 51.5891 5.7669 50.7367 6.90217 50.3862C11.2588 49.044 15.6257 47.7386 19.9885 46.4189C19.994 50.5556 20.0015 54.6869 20.011 58.8126Z" fill="#D65B51"/>
<path d="M37.2958 13.7831C37.2958 17.3651 37.2958 20.9478 37.2958 24.5312C37.2958 26.1153 36.4905 27.0395 35.1257 27.0641C33.722 27.0866 32.8224 26.1378 32.8203 24.5292C32.8066 17.3296 32.8066 10.1307 32.8203 2.93243C32.8203 1.85864 33.2117 1.00206 34.2855 0.586073C35.1728 0.243853 35.9597 0.440578 36.6442 1.07174C37.1872 1.57175 37.3101 2.2193 37.3081 2.93243C37.2958 6.5575 37.2958 10.1662 37.2958 13.7831Z" fill="black"/>
</svg>
