<svg width="101" height="105" viewBox="0 0 101 105" fill="none" xmlns="http://www.w3.org/2000/svg">
<path d="M38.5092 104.883C34.6484 103.432 33.1156 100.539 33.1238 96.5306C33.1566 78.5794 33.16 60.6282 33.1341 42.6771C33.1341 40.2323 33.382 37.843 34.3738 35.5806C35.3984 33.2507 36.9415 31.431 39.335 30.4002C40.3104 29.9903 40.792 29.0928 41.1609 28.1583C41.8002 26.5456 41.9478 24.8448 41.9519 23.1357C41.9662 16.4122 41.9867 9.68872 41.9334 2.96522C41.9334 1.64348 42.2879 0.668046 43.4273 0H44.8617C46.1814 0.55329 46.6077 1.51847 46.5913 2.95907C46.5114 10.3629 46.5544 17.7708 46.4929 25.1747C46.4666 27.1949 45.9758 29.182 45.0585 30.9822C44.2921 32.5109 43.2408 33.8285 41.6937 34.5908C38.7161 36.0601 37.7796 38.6729 37.5091 41.7016C37.4764 42.0746 37.4907 42.4517 37.4907 42.8267C37.4907 60.6781 37.4846 78.5275 37.4723 96.3749C37.4644 96.8856 37.5707 97.3917 37.7834 97.8561C37.9961 98.3206 38.3099 98.7317 38.7018 99.0593C39.8371 100.096 41.4088 100.033 42.4293 98.8872C43.2899 97.941 43.9829 96.8551 44.4785 95.6761H44.454C44.6589 95.756 44.6732 95.5654 44.7429 95.4548C44.84 95.3622 44.9304 95.2629 45.0134 95.1576C49.1596 89.0701 53.3032 82.9805 57.444 76.8888C59.735 73.524 63.2556 72.3354 67.0937 73.6736C75.0693 76.4564 83.0428 79.2482 91.0143 82.0488C91.6496 82.2721 92.2828 82.5713 92.9897 82.4443C94.9324 82.1 95.7541 79.8581 94.5082 78.2249C89.1966 71.2576 83.8769 64.2902 78.5489 57.3229C76.2435 54.3023 76.2066 50.5953 78.4813 47.5624C83.6726 40.6347 88.8811 33.7145 94.1066 26.8018C95.0841 25.5046 95.1537 24.232 94.3279 23.1439C93.6271 22.2177 92.5184 21.9451 91.2008 22.4164C83.3727 25.2129 75.5475 28.0135 67.7249 30.8182C66.4954 31.2568 65.2658 31.6973 63.9646 31.6994C60.9297 31.6994 58.6366 30.3735 56.948 27.8489C54.8988 24.7935 52.7431 21.8099 50.6324 18.7934V9.63134C50.9029 9.9797 51.1037 10.2195 51.282 10.4736L61.5649 25.2484C62.526 26.6317 63.3928 26.9206 64.9789 26.353C73.1512 23.4376 81.3228 20.5182 89.4938 17.5946C93.0553 16.322 96.2337 17.1438 98.3054 19.8488C99.3625 21.2276 99.9461 22.9109 99.9694 24.6481C99.9926 26.3854 99.4543 28.0837 98.4345 29.4903C96.4304 32.2486 94.3361 34.9474 92.2869 37.6729C89.1078 41.897 85.9274 46.1191 82.7457 50.3391C81.4321 52.083 81.4444 52.8433 82.7949 54.6097C88.0149 61.4404 93.2322 68.2712 98.4468 75.1019C100.609 77.9421 100.746 81.1778 98.8935 84.1635C96.8033 87.5366 93.5041 88.6718 89.5983 87.3234C83.2006 85.1199 76.8084 82.8889 70.4217 80.6307C68.7823 80.0569 67.1429 79.4708 65.5138 78.897C63.4236 78.1634 62.5793 78.436 61.3436 80.2352C56.6161 87.1206 51.8537 93.9834 47.1917 100.912C45.995 102.691 44.5626 104.053 42.6076 104.883H38.5092Z" fill="white"/>
<path d="M18.2383 0C19.3858 0.745916 19.5949 1.8443 19.5969 3.13736C19.5969 10.4408 19.4699 17.7463 19.6584 25.0497C19.6899 26.2122 19.9279 27.3599 20.3613 28.4391C20.5613 28.9787 20.8657 29.4736 21.257 29.8955C21.6484 30.3174 22.119 30.6581 22.6421 30.8982C25.8757 32.4535 27.4536 35.2978 28.2569 38.6504C28.5571 39.9829 28.6994 41.3461 28.6811 42.7119C28.6811 62.4418 28.6811 82.1724 28.6811 101.904C28.6811 103.451 28.0663 104.316 26.8245 104.551C26.3032 104.655 25.7619 104.56 25.307 104.285C24.8521 104.01 24.5162 103.575 24.3654 103.066C24.2036 102.564 24.2384 102.053 24.2384 101.543C24.2384 81.9825 24.2384 62.4227 24.2384 42.8636C24.2384 41.3881 24.138 39.9373 23.6236 38.5335C23.0089 36.8327 21.9843 35.5417 20.3449 34.6605C17.1255 32.9351 15.9001 29.9186 15.3694 26.5251C15.2017 25.3079 15.1291 24.0794 15.1521 22.8509C15.1521 16.2626 15.187 9.67437 15.1296 3.08613C15.1153 1.74594 15.4349 0.713129 16.5989 0H18.2383Z" fill="white"/>
<path d="M50.6303 18.8139C52.741 21.8304 54.8947 24.814 56.946 27.8694C58.6407 30.3941 60.9276 31.726 63.9625 31.7199C65.274 31.7199 66.5015 31.2773 67.7229 30.8387C75.5468 28.0313 83.3721 25.2307 91.1987 22.4369C92.5164 21.9656 93.625 22.232 94.3258 23.1644C95.1455 24.2525 95.082 25.5251 94.1045 26.8223C88.8981 33.7418 83.6917 40.6606 78.4854 47.5788C76.2107 50.6117 76.2476 54.3187 78.553 57.3393C83.8687 64.3066 89.1884 71.274 94.5123 78.2413C95.7582 79.8807 94.9365 82.1164 92.9938 82.4607C92.2869 82.5877 91.6537 82.2885 91.0184 82.0652C83.0387 79.2687 75.0632 76.4742 67.0917 73.6818C63.2535 72.3437 59.7329 73.5322 57.4419 76.897C53.3011 82.9846 49.1576 89.0742 45.0113 95.1658C44.9283 95.2711 44.8379 95.3704 44.7408 95.463C44.622 95.5101 44.4642 95.5019 44.4519 95.6843H44.4765C42.5133 95.6658 41.8924 95.1412 41.7613 93.0982C41.4723 88.5673 41.6281 84.0263 41.6076 79.4913C41.5523 67.1079 41.5564 54.7224 41.5215 42.339C41.4914 41.384 41.6588 40.4331 42.0133 39.5459C42.2412 38.9377 42.6767 38.4296 43.2429 38.1114C47.3802 35.9065 49.2922 32.2076 50.1795 27.8059C50.7881 24.8181 50.5053 21.8078 50.6303 18.8139Z" fill="#D65B51"/>
<path d="M20.0108 58.8126C20.3223 60.5688 20.0989 62.3394 20.1379 64.1037C20.1563 64.864 19.6358 64.4296 19.351 64.3455C16.1842 63.4207 13.0203 62.4862 9.85899 61.5422C8.39175 61.1078 6.91836 60.6938 5.46136 60.2246C1.97769 59.1077 -0.0223529 56.2511 0.00018851 52.4826C0.0206807 49.1813 2.09244 46.4497 5.46956 45.4087C9.98809 44.0152 14.5292 42.7017 19.0415 41.298C19.7998 41.0623 19.9022 41.3184 19.9473 41.9373C20.0665 43.4311 20.0802 44.9314 19.9883 46.4272C15.6255 47.7468 11.2586 49.0522 6.90196 50.3944C5.7667 50.7449 5.26259 51.5789 5.28923 52.8289C5.31587 54.0789 5.84457 54.7593 7.06795 55.1281C9.28316 55.7921 11.4922 56.4888 13.7238 57.0913C15.8222 57.6589 17.8653 58.4274 20.0108 58.8126Z" fill="white"/>
<path d="M28.5377 13.7441C28.5377 17.3938 28.552 21.0455 28.5377 24.6952C28.5377 26.2485 27.5479 27.1665 26.1032 27.0579C25.6398 27.0329 25.1979 26.8541 24.8476 26.5497C24.4972 26.2454 24.2583 25.8329 24.1687 25.3776C24.0952 24.941 24.0636 24.4984 24.0745 24.0558C24.0745 17.1991 24.0745 10.3424 24.0745 3.48573C24.0745 1.47954 24.8204 0.454934 26.2856 0.426245C27.7508 0.397556 28.55 1.45086 28.55 3.51032C28.5431 6.92296 28.539 10.3342 28.5377 13.7441Z" fill="white"/>
<path d="M20.0109 58.8126C17.8653 58.4192 15.8222 57.6507 13.7238 57.0831C11.4922 56.4806 9.28318 55.7839 7.06797 55.1199C5.83844 54.7511 5.31384 54.0523 5.28925 52.8207C5.26466 51.5891 5.76672 50.7367 6.90199 50.3862C11.2586 49.044 15.6255 47.7386 19.9883 46.4189C19.9938 50.5556 20.0013 54.6869 20.0109 58.8126Z" fill="#D65B51"/>
<path d="M37.296 13.7831C37.296 17.3651 37.296 20.9478 37.296 24.5312C37.296 26.1153 36.4907 27.0395 35.1259 27.0641C33.7222 27.0866 32.8226 26.1378 32.8205 24.5292C32.8069 17.3296 32.8069 10.1307 32.8205 2.93245C32.8205 1.85865 33.2119 1.00208 34.2857 0.586088C35.1731 0.243868 35.96 0.440593 36.6444 1.07175C37.1874 1.57176 37.3104 2.21932 37.3083 2.93245C37.296 6.55752 37.296 10.1662 37.296 13.7831Z" fill="white"/>
</svg>
