<svg width="45" height="44" viewBox="0 0 45 44" fill="none" xmlns="http://www.w3.org/2000/svg">
<path d="M6.10352e-05 13.8504C0.0129843 13.8452 0.0336614 13.8435 0.0388307 13.834C0.728069 12.5348 1.69731 12.2427 2.97326 13.0095C4.3638 13.8461 5.10215 15.1074 5.00738 16.7288C4.86781 19.117 4.63174 21.4992 4.43273 23.8797C4.31125 25.3357 4.18891 26.7926 4.05192 28.2468C4.02694 28.5113 4.12171 28.5527 4.35433 28.5501C5.40111 28.5398 6.44789 28.5337 7.49381 28.5501C7.7764 28.5553 7.87634 28.4562 7.88409 28.1986C7.88666 28.0698 7.89875 27.9414 7.92027 27.8143C7.96163 27.5809 7.96077 27.4499 7.63769 27.4077C6.97602 27.3215 6.52629 26.7874 6.49614 26.0964C6.46598 25.4055 6.46426 24.7179 6.49614 24.0339C6.53318 23.2171 7.09922 22.6985 7.92458 22.6856C8.69998 22.6726 9.47537 22.6761 10.2508 22.6856C10.4998 22.6856 10.5532 22.6287 10.4429 22.3926C10.2921 22.0695 10.1689 21.7327 10.0431 21.3993C9.72349 20.5515 10.193 19.8399 11.0908 19.8485C12.6674 19.8605 14.244 19.876 15.8198 19.814C16.0505 19.8095 16.2811 19.8251 16.5091 19.8605C17.1673 19.9467 17.5481 20.5136 17.4051 21.1641C17.3189 21.5742 17.1061 21.9395 16.9484 22.3177C16.8459 22.5641 16.8071 22.6916 17.1707 22.6907C20.5394 22.6787 23.908 22.6787 27.2767 22.6907C27.5472 22.6907 27.6041 22.6278 27.4886 22.3771C27.3335 22.0394 27.1966 21.693 27.0708 21.3433C26.7908 20.5679 27.2629 19.8476 28.0814 19.8528C29.7183 19.8648 31.3492 19.8683 32.9827 19.8218C33.1846 19.819 33.3864 19.8337 33.5858 19.8657C33.7393 19.8838 33.8868 19.936 34.0175 20.0186C34.1482 20.1012 34.2586 20.212 34.3408 20.343C34.423 20.4739 34.4747 20.6216 34.4923 20.7752C34.5098 20.9287 34.4927 21.0843 34.4422 21.2304C34.288 21.7025 34.0864 22.1583 33.8813 22.6864C34.5895 22.6864 35.2538 22.6864 35.9171 22.6864C37.0329 22.6864 37.5438 23.2033 37.5472 24.3113C37.5472 24.8558 37.5524 25.4003 37.5472 25.9482C37.5369 26.7917 37.1285 27.2897 36.304 27.4335C36.1119 27.4663 36.0851 27.5119 36.1041 27.6972C36.1903 28.5492 36.1842 28.5501 37.0277 28.5501C37.9022 28.5501 38.7766 28.5424 39.6511 28.5544C39.9096 28.5544 40.019 28.5268 39.9914 28.2098C39.6566 24.3989 39.3332 20.5871 39.0213 16.7745C38.8912 15.1909 39.9225 13.492 41.3699 12.8441C42.6097 12.2884 43.4979 12.6787 44.0588 14.0227V15.4012C43.9101 15.878 43.9101 16.3889 44.0588 16.8658V17.2966C43.8865 17.4982 43.6883 17.6696 43.4109 17.7144C42.8337 17.5318 42.7639 17.4473 42.7587 16.8287C42.7527 16.1119 42.7656 15.396 42.7587 14.68C42.7587 14.4147 42.8311 14.1028 42.5295 13.9495C42.2409 13.803 41.9635 13.9434 41.724 14.1011C40.7194 14.7628 40.2249 15.6898 40.3231 16.9028C40.504 19.1429 40.6896 21.3829 40.8797 23.6229C41.0089 25.1639 41.1436 26.7044 41.2837 28.2443C41.2941 28.3614 41.2329 28.5424 41.3975 28.5785C41.8653 28.6828 42.2961 28.8835 42.7578 29.1325V28.5734C42.7578 25.651 42.7578 22.7283 42.7578 19.8054C42.7578 19.2359 42.8612 19.1093 43.4074 18.974C43.6754 19.0283 43.9244 19.111 43.9959 19.4203L43.9804 31.7757C43.9804 31.8619 43.9709 31.9481 44.0553 32.0066V32.0928C43.7805 32.5072 43.5177 32.9543 42.956 32.9966C42.6536 33.0207 42.6381 33.1525 42.6639 33.4041C42.9681 36.4341 43.2498 39.4668 43.5686 42.496C43.6401 43.1714 43.3876 43.6203 42.8509 43.9606H41.2096C40.7237 43.6866 40.5368 43.2455 40.4282 42.7157C39.7889 39.5917 39.1238 36.4729 38.482 33.3498C38.4311 33.106 38.3648 33.0052 38.1055 33.0233C37.7478 33.0491 37.3888 33.0491 37.0311 33.0233C36.7373 33 36.7063 33.1198 36.7348 33.3679C36.8433 34.2923 36.9286 35.2194 37.0354 36.1438C37.2801 38.2486 37.5205 40.3542 37.7876 42.4555C37.8694 43.0999 37.7092 43.5996 37.1664 43.9632H35.1848C34.8402 43.7177 34.5817 43.4265 34.4956 42.9853C33.8727 39.7976 33.2377 36.6151 32.6131 33.4291C32.5666 33.1904 32.5537 33.0095 32.2133 33.0172C31.8963 33.025 31.7464 33.0793 31.6766 33.4247C31.0494 36.5082 30.3955 39.5857 29.7674 42.6683C29.658 43.2059 29.4814 43.6711 28.992 43.9606H27.3551C26.8192 43.6599 26.5401 43.2223 26.609 42.589C26.7322 41.4501 26.8562 40.3111 26.9691 39.1713C27.1612 37.2337 27.3439 35.2943 27.5317 33.3558C27.5481 33.1835 27.5722 33.0517 27.3318 32.9707C26.5349 32.7028 26.223 32.1393 26.3583 31.3036C26.6262 29.646 27.8832 28.5682 29.5736 28.5527C30.2559 28.5467 30.9391 28.5527 31.6413 28.5527C31.6003 28.3722 31.5715 28.1891 31.5551 28.0047C31.5474 27.5206 31.2967 27.4361 30.8504 27.4379C25.1469 27.4545 19.4435 27.458 13.74 27.4482C12.701 27.4482 12.701 27.4482 12.502 28.451C12.4977 28.4743 12.514 28.5027 12.5278 28.5579C13.2507 28.5579 13.9813 28.5406 14.7101 28.5579C16.2825 28.6027 17.6179 29.9303 17.6937 31.5026C17.7299 32.2565 17.412 32.7648 16.7175 32.9673C16.4496 33.0457 16.4901 33.1904 16.5082 33.3791C16.8071 36.4143 17.0915 39.4513 17.4102 42.4848C17.4809 43.1602 17.2319 43.6117 16.6926 43.9555H15.0556C14.5697 43.6815 14.3827 43.2404 14.2742 42.7105C13.6358 39.5874 12.9707 36.4695 12.328 33.3463C12.278 33.1043 12.2073 33.0353 11.9549 33.0103C11.5663 32.9716 11.5241 33.187 11.4647 33.4713C10.8314 36.5987 10.1844 39.7175 9.56411 42.8484C9.48528 43.2967 9.23222 43.6956 8.86022 43.958H6.87866C6.41256 43.6384 6.14032 43.2326 6.21785 42.6321C6.34278 41.668 6.44875 40.7014 6.56247 39.7356C6.80888 37.605 7.04839 35.4735 7.30513 33.3438C7.33873 33.0577 7.24396 33.0052 6.98894 33.0215C6.67379 33.0524 6.35638 33.0524 6.04124 33.0215C5.68973 32.9759 5.58289 33.1249 5.51828 33.4385C4.89021 36.5298 4.23974 39.6158 3.60909 42.7079C3.50225 43.2318 3.31874 43.6789 2.83886 43.958H1.20192C0.643638 43.6505 0.389481 43.1887 0.458405 42.546C0.672069 40.5704 0.88401 38.5975 1.08389 36.6159C1.19503 35.5209 1.28549 34.4233 1.37682 33.3265C1.38543 33.2249 1.48623 33.0405 1.26826 33.0276C0.630714 32.9974 0.290403 32.5787 6.10352e-05 32.0868V13.8504ZM31.0485 22.6675C32.4417 22.7907 32.4417 22.7907 32.9439 21.5268C32.9595 21.4871 32.9707 21.4406 32.9896 21.407C33.0964 21.2028 33.0292 21.127 32.807 21.1322C32.2246 21.146 31.6421 21.1503 31.0597 21.158H28.3795C28.569 21.6302 28.7448 22.0644 28.9162 22.4995C28.9333 22.5609 28.972 22.6142 29.0251 22.6495C29.0783 22.6848 29.1424 22.6997 29.2057 22.6916C29.82 22.6769 30.4343 22.6744 31.0485 22.6675ZM14.0226 21.1572H11.3311C11.5207 21.6276 11.7025 22.0713 11.8756 22.5184C11.9334 22.6675 12.0385 22.6907 12.178 22.6907C12.7906 22.6804 13.4032 22.6752 14.0157 22.6683C14.4008 22.6761 14.786 22.6804 15.1702 22.6924C15.3287 22.6976 15.4373 22.6597 15.4993 22.4917C15.6377 22.1178 15.7876 21.7479 15.949 21.382C16.0352 21.1796 15.9714 21.1287 15.7767 21.133C15.1909 21.1442 14.6076 21.1494 14.0226 21.1572ZM22.023 26.1541V26.1464H35.3994C36.229 26.1464 36.2394 26.1464 36.2187 25.3081C36.2084 24.9127 36.4022 24.3914 36.1368 24.1528C35.8715 23.9141 35.3459 24.021 34.9307 24.0192C30.3869 24.0029 25.8439 23.9787 21.301 23.9744C17.5731 23.9744 13.846 23.9925 10.1181 24.0063C9.42885 24.0063 8.73961 23.9925 8.05554 24.0606C7.88323 24.0778 7.74624 24.0925 7.77467 24.3268C7.82135 24.7693 7.81586 25.2158 7.7583 25.657C7.71264 26.0525 7.8591 26.1645 8.25886 26.1636C12.8475 26.1481 17.4352 26.1533 22.023 26.1533V26.1541ZM1.3458 29.0963C1.749 28.8792 2.15307 28.6724 2.60452 28.5906C2.76305 28.5622 2.74926 28.4433 2.7596 28.3321C2.81388 27.6894 2.87074 27.0476 2.92588 26.4049C3.08728 24.5094 3.24781 22.6112 3.40748 20.71C3.51862 19.3815 3.64872 18.0547 3.71936 16.7245C3.78312 15.5269 3.2369 14.6206 2.19701 14.0399C1.58703 13.6953 1.29152 13.8969 1.29152 14.5887C1.29152 19.2773 1.29152 23.9655 1.29152 28.6535C1.29238 28.787 1.25448 28.9309 1.34494 29.0955L1.3458 29.0963ZM10.3541 27.4318V27.4456H9.83722C9.25223 27.4456 9.26429 27.4456 9.19795 28.0358C8.92829 30.4119 8.65001 32.7863 8.37776 35.1625C8.10436 37.5524 7.83556 39.9429 7.57135 42.334C7.55498 42.4788 7.39904 42.7389 7.75055 42.7381C8.00901 42.7381 8.26231 42.8242 8.34674 42.4029C9.2798 37.7463 10.2361 33.0982 11.1804 28.4398C11.2441 28.1219 11.4828 27.6989 11.3019 27.5094C11.1416 27.337 10.6815 27.4456 10.3533 27.431L10.3541 27.4318ZM33.7796 27.4456C33.5789 27.4456 33.3773 27.4611 33.1766 27.4456C32.8475 27.4137 32.7398 27.4783 32.8207 27.8574C33.1464 29.3824 33.429 30.9168 33.7305 32.4469C34.387 35.7736 35.0444 39.1003 35.7026 42.4271C35.7371 42.6037 35.7612 42.7433 36.0067 42.7501C36.4961 42.7639 36.5237 42.7622 36.4634 42.266C36.3005 40.8289 36.1282 39.3927 35.9637 37.9582C35.5966 34.7705 35.2382 31.5828 34.8652 28.395C34.7549 27.443 34.7377 27.4447 33.7788 27.4447L33.7796 27.4456ZM39.6278 31.737C40.5755 31.737 41.5172 31.737 42.4615 31.737C42.6725 31.737 42.7802 31.7008 42.7432 31.4509C42.6217 30.6437 41.9058 29.8812 41.1063 29.8597C39.6046 29.8192 38.1012 29.8442 36.5986 29.8355C36.4134 29.8355 36.3402 29.8933 36.3686 30.0854C36.4246 30.5248 36.4832 30.965 36.509 31.407C36.5254 31.6982 36.6658 31.7421 36.9191 31.7387C37.8238 31.7284 38.7258 31.7361 39.627 31.7361L39.6278 31.737ZM4.44737 31.7215V31.7404C5.29169 31.7404 6.13601 31.7258 6.98032 31.7482C7.33011 31.7568 7.5343 31.7077 7.53344 31.289C7.54685 30.9176 7.58861 30.5478 7.65836 30.1827C7.69627 29.9294 7.63682 29.8321 7.35338 29.8381C5.93699 29.8528 4.52061 29.8381 3.10336 29.851C2.24181 29.8597 1.56808 30.4421 1.34149 31.2812C1.25534 31.5931 1.31134 31.7318 1.65768 31.7284C2.58643 31.7146 3.51604 31.7206 4.44651 31.7206L4.44737 31.7215ZM4.30263 33.0276C3.84687 33.0276 3.41868 33.0422 2.99222 33.0224C2.73375 33.0095 2.69068 33.1292 2.66914 33.3489C2.38195 36.3695 2.08788 39.3898 1.78691 42.4098C1.77313 42.5485 1.6663 42.7381 1.95319 42.7424C2.15652 42.7424 2.28833 42.7295 2.33658 42.4684C2.50027 41.5827 2.70015 40.704 2.88452 39.8226C3.35407 37.5705 3.82361 35.3184 4.30177 33.0267L4.30263 33.0276ZM30.4567 33.0276C29.9837 33.0276 29.5684 33.0414 29.1557 33.0224C28.9093 33.0112 28.8438 33.1086 28.8214 33.3377C28.5328 36.3575 28.233 39.3772 27.9418 42.3978C27.9289 42.5287 27.8022 42.7312 28.0943 42.7424C28.289 42.7476 28.432 42.7501 28.4872 42.4839C29.1299 39.3427 29.7898 36.2093 30.4558 33.0267L30.4567 33.0276ZM40.5238 33.0276C40.4237 33.034 40.3233 33.034 40.2232 33.0276C39.8475 32.9793 39.7157 33.0534 39.8148 33.4971C40.2568 35.4787 40.6531 37.4723 41.0692 39.4608C41.2794 40.4688 41.5077 41.4733 41.6999 42.4848C41.7516 42.757 41.8997 42.7519 42.0936 42.7433C42.3391 42.7303 42.2461 42.5511 42.2469 42.4245C42.2458 42.2952 42.2377 42.1661 42.2228 42.0376C41.9471 39.3025 41.6709 36.5668 41.394 33.8305C41.313 33.0267 41.3147 33.0267 40.5204 33.0267L40.5238 33.0276ZM14.3957 33.0276C14.2523 33.0375 14.1083 33.0375 13.9649 33.0276C13.6082 32.9767 13.5841 33.1086 13.6547 33.4308C14.0295 35.1496 14.3741 36.877 14.7334 38.6001C15.0048 39.9027 15.2917 41.2019 15.5519 42.5063C15.601 42.7545 15.7371 42.745 15.9163 42.7458C16.1541 42.7458 16.1041 42.5882 16.0972 42.4486C16.0903 42.309 16.0852 42.1901 16.0722 42.0626C15.7965 39.3264 15.52 36.5904 15.2426 33.8547C15.1599 33.0259 15.1573 33.0267 14.3948 33.0267L14.3957 33.0276ZM29.9346 31.7353C30.6238 31.7353 31.307 31.7309 31.9937 31.7353C32.1849 31.7353 32.2926 31.7111 32.2401 31.4768C32.135 31.0176 32.0445 30.5549 31.9592 30.0914C31.9265 29.9105 31.8618 29.8278 31.6551 29.833C30.8978 29.8476 30.1387 29.8235 29.3814 29.8459C28.5139 29.8717 27.7936 30.5463 27.6428 31.4104C27.5989 31.6586 27.6635 31.7421 27.9185 31.7378C28.5888 31.7275 29.2617 31.7361 29.9337 31.7361L29.9346 31.7353ZM14.1157 31.7353C14.7885 31.7353 15.4605 31.7309 16.1334 31.7353C16.3445 31.7353 16.4505 31.6982 16.4091 31.4466C16.3414 31.0106 16.1236 30.6118 15.7933 30.3191C15.463 30.0264 15.0409 29.8581 14.5999 29.8433C13.8986 29.8269 13.1973 29.8433 12.4968 29.8321C12.284 29.8278 12.1875 29.8993 12.1522 30.1026C12.0704 30.5377 11.9876 30.9736 11.8843 31.4036C11.8171 31.6853 11.9196 31.7482 12.1841 31.7378C12.8277 31.7258 13.4678 31.7361 14.1148 31.7361L14.1157 31.7353Z" fill="#030202"/>
<path d="M43.9864 19.4143L44.026 19.4065L44.0458 19.4418V32.0006C43.9597 31.9429 43.9709 31.8542 43.9709 31.7697L43.9864 19.4143Z" fill="#3D5757"/>
<path d="M44.0459 16.8606C43.8971 16.3837 43.8971 15.8729 44.0459 15.396V16.8606Z" fill="#3D5757"/>
<path d="M22.0238 14.979H11.8309C10.6867 14.979 10.1543 14.444 10.1543 13.2947C10.1543 9.42575 10.1543 5.55596 10.1543 1.68531C10.1569 0.542036 10.6979 0.00012207 11.8378 0.00012207H32.2185C33.3242 0.00012207 33.8776 0.556395 33.8787 1.66894C33.8787 5.5528 33.8787 9.43666 33.8787 13.3205C33.8787 14.4328 33.3291 14.979 32.2151 14.979H22.0238ZM22.0032 13.6867H31.6749C32.595 13.6867 32.5959 13.6867 32.595 12.7846C32.595 9.20232 32.5927 5.62029 32.5881 2.03855C32.5881 1.20112 32.7131 1.29072 31.8265 1.28986C25.2495 1.28526 18.673 1.28526 12.0971 1.28986C11.4664 1.28986 11.4449 1.13392 11.4449 1.93602C11.4449 5.676 11.457 9.41512 11.4354 13.1551C11.4354 13.6143 11.5784 13.6936 11.9894 13.6918C15.3262 13.6806 18.6647 13.6867 22.0032 13.6875V13.6867Z" fill="#010202"/>
<path d="M22.0229 26.1533C17.4352 26.1533 12.8474 26.1481 8.2597 26.1628C7.85994 26.1628 7.71348 26.0516 7.75914 25.6562C7.8167 25.2149 7.82219 24.7685 7.77551 24.3259C7.74708 24.0916 7.88234 24.0769 8.05637 24.0597C8.74561 23.9917 9.43485 24.008 10.1189 24.0054C13.8468 23.9917 17.5739 23.971 21.3018 23.9736C25.8448 23.9779 30.3877 24.002 34.9315 24.0184C35.3459 24.0184 35.8646 23.9072 36.1377 24.1519C36.4108 24.3966 36.2092 24.9118 36.2195 25.3072C36.2402 26.1455 36.2299 26.1455 35.4002 26.1455H22.0229V26.1533Z" fill="#AB5D2D"/>
<path d="M43.398 17.7092V18.968C42.8518 19.1032 42.7493 19.2264 42.7484 19.7994C42.7484 22.7229 42.7484 25.6455 42.7484 28.5673V29.1265C42.2866 28.8775 41.8559 28.6768 41.3881 28.5725C41.2235 28.5363 41.2847 28.3554 41.2743 28.2382C41.1353 26.6978 41.0006 25.1573 40.8703 23.6169C40.6813 21.3769 40.4958 19.1368 40.3137 16.8968C40.2155 15.6837 40.71 14.7567 41.7146 14.0951C41.9541 13.9374 42.2315 13.797 42.5201 13.9434C42.8217 14.0968 42.7484 14.4087 42.7493 14.674C42.7493 15.39 42.7398 16.1059 42.7493 16.8227C42.751 17.4422 42.8208 17.5266 43.398 17.7092Z" fill="#F82A39"/>
<path d="M1.3449 29.0955C1.25874 28.9309 1.29234 28.787 1.29234 28.6501C1.29234 23.9615 1.29234 19.2733 1.29234 14.5853C1.29234 13.896 1.58785 13.6953 2.19783 14.0365C3.23772 14.6172 3.78394 15.5235 3.72018 16.7211C3.64954 18.0513 3.51944 19.3781 3.4083 20.7066C3.25093 22.602 3.09039 24.5003 2.9267 26.4014C2.87156 27.0441 2.8147 27.686 2.76042 28.3287C2.75008 28.4424 2.76042 28.5613 2.60534 28.5872C2.15217 28.6716 1.75068 28.8784 1.3449 29.0955Z" fill="#F82A39"/>
<path d="M10.3534 27.431C10.6816 27.4456 11.1374 27.337 11.3011 27.5085C11.482 27.698 11.2434 28.121 11.1796 28.439C10.2319 33.0913 9.27903 37.7437 8.34597 42.4021C8.25982 42.8216 8.00652 42.7364 7.74978 42.7372C7.39999 42.7372 7.55421 42.4787 7.57058 42.3331C7.83249 39.9426 8.10129 37.5521 8.37699 35.1616C8.64924 32.7855 8.92752 30.411 9.19718 28.0349C9.26352 27.4465 9.25146 27.4447 9.83645 27.4447H10.3534V27.431Z" fill="#F6C16B"/>
<path d="M33.7788 27.4448C34.7377 27.4448 34.7549 27.4448 34.866 28.3925C35.2391 31.5802 35.5975 34.7679 35.9645 37.9557C36.1291 39.3927 36.3014 40.8289 36.4642 42.2634C36.5211 42.7596 36.497 42.7614 36.0076 42.7476C35.7621 42.7407 35.7379 42.6011 35.7035 42.4245C35.047 39.0972 34.3896 35.7705 33.7314 32.4443C33.4298 30.9142 33.1473 29.3798 32.8216 27.8549C32.7406 27.4758 32.8483 27.4112 33.1774 27.443C33.3764 27.4603 33.578 27.4448 33.7788 27.4448Z" fill="#F6C16B"/>
<path d="M39.6269 31.7361C38.7257 31.7361 37.8237 31.7283 36.9225 31.7413C36.6692 31.7413 36.5288 31.7008 36.5124 31.4096C36.4865 30.9676 36.4262 30.5273 36.372 30.0879C36.347 29.8958 36.4168 29.8372 36.602 29.8381C38.1045 29.8467 39.6079 29.8217 41.1096 29.8622C41.9048 29.8838 42.6208 30.6462 42.7466 31.4535C42.7836 31.7034 42.6759 31.7413 42.4648 31.7395C41.5163 31.7326 40.572 31.7361 39.6269 31.7361Z" fill="#FB4654"/>
<path d="M4.44651 31.7206C3.51604 31.7206 2.58643 31.7146 1.65682 31.7206C1.3122 31.7206 1.2562 31.5854 1.34063 31.2735C1.56722 30.4343 2.24439 29.8519 3.10249 29.8433C4.51974 29.8278 5.93613 29.8433 7.35251 29.8304C7.63596 29.8304 7.69713 29.9252 7.6575 30.175C7.58775 30.54 7.54599 30.9098 7.53258 31.2812C7.53258 31.6999 7.32925 31.7491 6.97946 31.7404C6.13514 31.718 5.29083 31.7327 4.44651 31.7327V31.7206Z" fill="#FB4654"/>
<path d="M4.30175 33.0267C3.8236 35.3184 3.35405 37.5705 2.88365 39.8217C2.69928 40.7031 2.4994 41.5819 2.3357 42.4676C2.28745 42.726 2.15564 42.7441 1.95231 42.7415C1.66542 42.7372 1.77225 42.5477 1.78603 42.409C2.07953 39.3884 2.37361 36.3681 2.66826 33.3481C2.6898 33.1284 2.73288 33.0086 2.99134 33.0215C3.41781 33.0414 3.846 33.0267 4.30175 33.0267Z" fill="#F6C16B"/>
<path d="M30.4558 33.0267C29.7899 36.2093 29.1299 39.3427 28.4863 42.4788C28.4312 42.7467 28.2882 42.7441 28.0935 42.7372C27.8014 42.7295 27.9281 42.527 27.941 42.3926C28.233 39.372 28.5329 36.3523 28.8206 33.3317C28.843 33.1 28.9068 33.0052 29.1549 33.0164C29.5676 33.0405 29.9829 33.0267 30.4558 33.0267Z" fill="#F6C16B"/>
<path d="M40.5204 33.0267C41.3121 33.0267 41.3104 33.0267 41.3905 33.8254C41.6662 36.5611 41.9425 39.2968 42.2193 42.0325C42.2343 42.1609 42.2423 42.29 42.2435 42.4193C42.2435 42.546 42.3356 42.7252 42.0901 42.7381C41.8962 42.7484 41.7455 42.7536 41.6964 42.4796C41.5042 41.4682 41.2759 40.4636 41.0657 39.4556C40.6496 37.4671 40.2533 35.4744 39.8113 33.4919C39.7122 33.0482 39.844 32.975 40.2197 33.0224C40.3197 33.0303 40.4201 33.0317 40.5204 33.0267Z" fill="#E4B262"/>
<path d="M14.3949 33.0267C15.1574 33.0267 15.16 33.0267 15.2427 33.8486C15.5212 36.5849 15.7978 39.3209 16.0723 42.0566C16.0853 42.185 16.0904 42.3151 16.0973 42.4426C16.1042 42.5701 16.1542 42.7415 15.9164 42.7398C15.7372 42.7398 15.6011 42.7484 15.552 42.5003C15.2935 41.1959 15.0049 39.8967 14.7335 38.5941C14.3742 36.871 14.0296 35.1479 13.6548 33.4248C13.5842 33.1025 13.6083 32.9707 13.965 33.0216C14.108 33.0332 14.2516 33.0349 14.3949 33.0267Z" fill="#E4B262"/>
<path d="M29.9337 31.7361C29.2616 31.7361 28.5888 31.7275 27.9176 31.7404C27.6592 31.7404 27.598 31.6611 27.6419 31.413C27.7927 30.5515 28.513 29.8743 29.3805 29.8484C30.1378 29.826 30.8969 29.8484 31.6542 29.8355C31.8609 29.8312 31.9256 29.9139 31.9583 30.094C32.0445 30.5575 32.1306 31.0201 32.2392 31.4794C32.2917 31.7137 32.184 31.7378 31.9928 31.7378C31.3061 31.7318 30.6194 31.7361 29.9337 31.7361Z" fill="#FB4654"/>
<path d="M14.1148 31.7361C13.4712 31.7361 12.8277 31.7258 12.1841 31.7413C11.9196 31.7482 11.8171 31.6887 11.8843 31.407C11.9877 30.9762 12.0704 30.5411 12.1522 30.1061C12.1901 29.9027 12.2866 29.8312 12.4968 29.8355C13.1973 29.8502 13.8986 29.8304 14.5999 29.8467C15.0409 29.8616 15.463 30.0298 15.7933 30.3225C16.1236 30.6152 16.3414 31.014 16.4091 31.4501C16.4505 31.7017 16.3445 31.7413 16.1334 31.7387C15.4597 31.7318 14.7877 31.7361 14.1148 31.7361Z" fill="#FB4654"/>
<path d="M14.0156 22.6683C13.4031 22.6752 12.7905 22.6804 12.178 22.6908C12.0384 22.6908 11.9333 22.6675 11.8756 22.5184C11.7032 22.0713 11.5206 21.6276 11.3311 21.1572H14.0225C14.0208 21.6609 14.0185 22.1646 14.0156 22.6683Z" fill="#A6D1D6"/>
<path d="M31.0485 22.6675C30.4342 22.6743 29.8199 22.6769 29.2056 22.6916C29.1423 22.6997 29.0782 22.6848 29.0251 22.6495C28.9719 22.6142 28.9332 22.5609 28.9161 22.4994C28.7438 22.0687 28.5715 21.6301 28.3794 21.158H31.0562L31.0485 22.6675Z" fill="#A6D1D6"/>
<path d="M31.0486 22.6675L31.0563 21.158C31.6387 21.1503 32.2212 21.146 32.8036 21.1322C33.0258 21.127 33.093 21.2028 32.9862 21.407C32.9673 21.4449 32.9561 21.4871 32.9405 21.5268C32.4417 22.7907 32.4417 22.7907 31.0486 22.6675Z" fill="#89B3BD"/>
<path d="M14.0157 22.6683C14.0157 22.1652 14.018 21.6615 14.0226 21.1572C14.6076 21.1494 15.1926 21.1442 15.7776 21.133C15.9714 21.133 16.036 21.1796 15.9499 21.382C15.7879 21.7473 15.638 22.1172 15.5001 22.4917C15.4381 22.6597 15.3278 22.6976 15.171 22.6924C14.7859 22.6804 14.4008 22.6761 14.0157 22.6683Z" fill="#89B3BD"/>
<path d="M22.0031 13.6867C18.6646 13.6867 15.3261 13.6806 11.9876 13.6944C11.5766 13.6944 11.431 13.6169 11.4336 13.1577C11.4552 9.4177 11.4414 5.67858 11.4431 1.9386C11.4431 1.1365 11.4646 1.2933 12.0953 1.29244C18.6724 1.28785 25.2488 1.28785 31.8248 1.29244C32.7113 1.29244 32.5846 1.20629 32.5864 2.04113C32.5915 5.62 32.5941 9.20145 32.5941 12.7855C32.5941 13.6875 32.5941 13.6875 31.674 13.6875L22.0031 13.6867ZM13.2429 5.67428C13.2429 6.10218 13.2443 6.53094 13.2472 6.96057C12.726 7.06482 12.5683 7.23109 12.5666 7.7239C12.5605 8.94213 12.5579 10.1595 12.5666 11.3777C12.5717 12.1143 13.0163 12.5641 13.7426 12.5649C19.2565 12.5684 24.7724 12.5684 30.2903 12.5649C30.9796 12.5649 31.4586 12.1428 31.4629 11.4622C31.4801 8.82639 31.4801 6.19034 31.4629 3.55401C31.4603 2.8484 30.9882 2.41245 30.2826 2.41245C24.7687 2.40843 19.2528 2.40843 13.7348 2.41245C13.0309 2.41245 12.5864 2.86649 12.5674 3.57124C12.5562 3.9865 12.5631 4.40177 12.5674 4.81704C12.5674 5.39772 12.6768 5.53471 13.2429 5.676V5.67428Z" fill="#818181"/>
<path d="M13.2421 5.67598C12.6769 5.53469 12.5675 5.3977 12.5649 4.81444C12.5649 4.39917 12.5563 3.9839 12.5649 3.56864C12.5865 2.86561 13.031 2.41244 13.7349 2.41244C19.2488 2.40842 24.7647 2.40842 30.2827 2.41244C30.9883 2.41244 31.4604 2.84924 31.4647 3.55658C31.4802 6.19291 31.4802 8.82896 31.4647 11.4647C31.4604 12.1454 30.9848 12.5666 30.2921 12.5675C24.7782 12.571 19.2623 12.571 13.7444 12.5675C13.0181 12.5675 12.5735 12.1169 12.5684 11.3803C12.5589 10.1621 12.5615 8.9447 12.5684 7.72647C12.5684 7.23366 12.7278 7.06738 13.249 6.96314C13.691 7.03981 13.8667 7.30776 13.8607 7.74887C13.8478 8.80943 13.8659 9.87 13.8504 10.9297C13.8504 11.2045 13.9115 11.3028 14.2019 11.2907C14.2925 11.2912 14.3816 11.2675 14.4601 11.222C14.5385 11.1766 14.6034 11.1111 14.6481 11.0322C15.1453 10.3146 15.6613 9.60981 16.1541 8.88956C17.0097 7.63687 17.8333 6.36178 18.7069 5.12201C19.4487 4.0692 20.2887 4.08815 21.0391 5.14872C21.3208 5.54589 21.575 5.96116 21.8455 6.36522C22.241 6.95624 22.6278 7.55244 23.1025 8.12537C23.3756 7.71527 23.6169 7.32326 23.8926 6.96141C24.4793 6.19636 25.3055 6.18602 25.9138 6.93126C26.0938 7.15268 26.2506 7.39305 26.4126 7.62911C26.9528 8.41915 27.4361 9.2471 28.0314 9.99923C28.4751 10.6635 28.7689 11.5147 29.864 11.2916C30.1276 11.239 30.1836 11.1787 30.1827 10.9332C30.1747 8.62707 30.1747 6.32128 30.1827 4.01578C30.1827 3.78919 30.1465 3.68064 29.8829 3.69012C29.2686 3.71252 28.6526 3.70562 28.0375 3.71079C27.8798 3.70562 27.723 3.69615 27.5662 3.69615C23.3871 3.69615 19.2083 3.69615 15.0298 3.69615C14.6481 3.69615 14.1433 3.53159 13.9219 3.77024C13.7332 3.97443 13.8417 4.47499 13.8581 4.84201C13.8814 5.3081 13.6987 5.58638 13.2421 5.67598ZM23.5936 11.2571C23.6057 11.108 23.5075 11.0305 23.4463 10.9418C22.3441 9.33871 21.2396 7.73738 20.1328 6.13777C19.8553 5.73715 19.8485 5.73888 19.5676 6.14639C18.4803 7.72474 17.3948 9.30425 16.3109 10.8849C16.2351 10.9952 16.105 11.0882 16.1386 11.2571H23.5936ZM26.2282 11.2752C26.4712 11.2752 26.7141 11.2752 26.9571 11.2752C27.051 11.2752 27.1742 11.3243 27.2293 11.2157C27.2845 11.1072 27.1716 11.0357 27.1182 10.9573C26.4583 9.98976 25.7862 9.02913 25.1366 8.05472C24.9437 7.76524 24.8351 7.84105 24.6895 8.07798C24.5697 8.27183 24.4207 8.44758 24.2975 8.63971C23.7918 9.42975 23.7935 9.1239 24.2837 9.87775C24.4155 10.0811 24.5878 10.2629 24.6947 10.4808C25.0126 11.1236 25.4657 11.4906 26.2282 11.2752Z" fill="#010202"/>
<path d="M28.034 9.99925C27.4387 9.24712 26.9553 8.41917 26.4151 7.62913C26.2532 7.39306 26.0964 7.15269 25.9163 6.93127C25.308 6.18776 24.4818 6.19637 23.8951 6.96143C23.6168 7.32328 23.3782 7.71528 23.1008 8.12366C22.626 7.55073 22.2392 6.95454 21.8438 6.36351C21.5732 5.95945 21.3191 5.54418 21.0373 5.14701C20.2869 4.09075 19.4469 4.06749 18.7051 5.1203C17.8315 6.36007 17.0079 7.63516 16.1524 8.88785C15.6596 9.6081 15.1435 10.3129 14.6464 11.0305C14.6017 11.1094 14.5368 11.1749 14.4583 11.2203C14.3799 11.2657 14.2907 11.2894 14.2001 11.289C13.9098 11.301 13.8451 11.2028 13.8486 10.928C13.8641 9.86829 13.8486 8.80773 13.8589 7.74716C13.865 7.30432 13.6866 7.03811 13.2472 6.96143C13.2472 6.53238 13.2458 6.10361 13.2429 5.67514C13.6987 5.58898 13.8813 5.30726 13.8606 4.84719C13.8443 4.48017 13.7357 3.97961 13.9244 3.77542C14.1458 3.53677 14.6507 3.70219 15.0324 3.70133C19.2109 3.69616 23.3897 3.69616 27.5687 3.70133C27.7255 3.70133 27.8824 3.71081 28.04 3.71598C28.0377 5.81011 28.0357 7.90454 28.034 9.99925Z" fill="#98E5FB"/>
<path d="M23.5936 11.2571H16.1387C16.1068 11.0848 16.2369 10.9987 16.311 10.8849C17.3948 9.30313 18.4804 7.72363 19.5676 6.14642C19.8485 5.73891 19.8554 5.73718 20.1328 6.1378C21.2402 7.73799 22.3447 9.33932 23.4463 10.9418C23.5075 11.028 23.6057 11.1081 23.5936 11.2571Z" fill="#527882"/>
<path d="M28.0339 9.99925C28.0339 7.90397 28.0359 5.80897 28.04 3.71426C28.6551 3.70909 29.2711 3.71426 29.8854 3.69358C30.149 3.6841 30.1861 3.79266 30.1852 4.01924C30.1783 6.32475 30.1783 8.63054 30.1852 10.9366C30.1852 11.1822 30.1301 11.2425 29.8664 11.295C28.7714 11.5147 28.4776 10.6635 28.0339 9.99925Z" fill="#63D9F8"/>
<path d="M26.2282 11.2752C25.4657 11.4906 25.0151 11.1236 24.6946 10.4765C24.5878 10.2612 24.4155 10.0794 24.2837 9.87347C23.7934 9.11961 23.7917 9.42546 24.2974 8.63542C24.4206 8.4433 24.5697 8.26754 24.6894 8.07369C24.835 7.83677 24.9436 7.76095 25.1366 8.05043C25.7862 9.02484 26.4582 9.98547 27.1181 10.953C27.1716 11.0305 27.2853 11.102 27.2293 11.2114C27.1733 11.3209 27.0509 11.2683 26.957 11.2709C26.7141 11.2795 26.4711 11.2752 26.2282 11.2752Z" fill="#3D5757"/>
</svg>
