<svg width="40" height="40" viewBox="0 0 40 40" fill="none" xmlns="http://www.w3.org/2000/svg">
<g clip-path="url(#clip0_18_244)">
<path d="M39.9999 18.5128V21.6358C39.8658 21.6916 39.9226 21.8149 39.9137 21.907C39.7494 23.5892 39.3705 25.2434 38.7861 26.8294C37.4021 30.5496 35.1498 33.6383 31.9509 36.0134C29.2927 38.0124 26.1712 39.3048 22.8781 39.7698C22.3887 39.8403 21.8993 39.9216 21.4099 39.9979H18.4372C18.3961 39.8746 18.2864 39.9216 18.2062 39.9137C16.9776 39.796 15.7617 39.5703 14.5728 39.2392C13.0338 38.813 11.5542 38.1964 10.168 37.4036C9.92427 37.2626 9.83226 37.3008 9.71872 37.5416C9.54155 37.9166 9.32034 38.27 9.13142 38.6381C8.89356 39.0894 8.54412 39.3831 8.01751 39.3361C7.47621 39.2862 7.17963 38.9328 7.03085 38.4217C6.80963 37.6633 6.57634 36.9075 6.33098 36.1544C5.86995 34.7436 4.94789 33.7685 3.54424 33.2663C3.03133 33.0823 2.51157 32.9178 1.99964 32.7318C0.949358 32.3558 0.768274 31.2819 1.62377 30.5672C1.81439 30.3885 2.0186 30.2248 2.23456 30.0777C2.55269 29.8868 2.52821 29.7047 2.36475 29.4002C0.92195 26.7325 0.168249 23.862 0.0224029 20.8379C-0.0747327 18.7289 0.169535 16.618 0.74576 14.587C1.67369 11.2643 3.38176 8.39187 5.78577 5.92577C6.03831 5.66634 6.31434 5.62326 6.6305 5.78577C6.95645 6.20772 6.95058 6.40548 6.58646 6.80491C6.07844 7.36392 5.55868 7.9102 5.1045 8.51718C1.60224 13.1743 0.481476 18.365 1.64629 24.0588C1.92237 25.4467 2.38533 26.7907 3.02253 28.0541C3.17229 28.3664 3.32694 28.6748 3.46789 28.991C3.53445 29.1389 3.60885 29.132 3.73218 29.0615C4.02093 28.898 4.31948 28.7482 4.61313 28.5926C5.12799 28.4183 5.63797 28.2264 6.16066 28.0766C6.37796 28.015 6.3809 27.919 6.34175 27.7418C6.1869 27.0284 6.13254 26.2969 6.18024 25.5684C6.18494 25.3616 6.14695 25.1559 6.06865 24.9644C4.91559 21.6603 4.89405 18.3493 6.06865 15.0589C8.83679 7.25525 17.5112 3.10919 25.4055 6.19206C25.9507 6.4045 26.4528 6.80687 27.001 6.88715C27.5677 6.97036 28.11 6.52198 28.6856 6.37709C28.7348 6.36055 28.7824 6.33924 28.8275 6.31345L31.9461 5.47445C30.7602 4.49125 29.4533 3.66411 28.0571 3.01324C26.1028 2.06757 23.9945 1.48064 21.8328 1.28041C17.1011 0.819419 12.37 2.16438 8.58817 5.04565C8.25047 5.30117 7.92354 5.39124 7.57703 5.076C7.40476 4.73139 7.42825 4.42888 7.75322 4.17923C9.62813 2.73259 11.7454 1.63103 14.006 0.926015C16.4678 0.145585 19.0587 -0.14445 21.6321 0.0723271C23.7833 0.252216 25.8918 0.776111 27.877 1.62404C29.7684 2.42975 31.5214 3.52789 33.0717 4.87824C33.2773 5.05838 33.4632 5.11712 33.7363 5.02411C34.1279 4.88999 34.536 4.8009 34.9403 4.70594C35.5139 4.57083 35.9886 4.80384 36.1922 5.29334C36.3224 5.60662 36.2607 5.90717 36.1413 6.20185C36.065 6.3908 36.0239 6.49555 36.2989 6.58757C36.7374 6.72855 36.9263 7.16518 36.8187 7.62825C36.7699 7.88305 36.7029 8.13399 36.618 8.37915C36.5201 8.62879 36.573 8.81872 36.7159 9.03018C37.2363 9.80667 37.6945 10.6231 38.0863 11.4718C38.9279 13.2596 39.4986 15.1628 39.7796 17.1187C39.8384 17.5837 39.8384 18.0624 39.9999 18.5128ZM22.0775 27.359C22.0236 27.5862 21.9257 27.8035 21.9727 28.0972L22.6648 27.687C25.0609 26.0227 26.1347 23.7299 25.6786 20.8604C25.242 18.1192 23.5888 16.2591 20.9332 15.4583C18.2287 14.6457 15.8589 15.3604 13.9101 17.4222C13.6953 17.6177 13.5211 17.8536 13.3972 18.1163L14.1235 18.0399C14.7392 18.1966 15.2814 18.1114 15.6896 17.5671C16.9494 16.6987 18.3207 16.3374 19.8565 16.5528C22.6726 16.9444 24.8387 19.8403 24.4188 22.6569C24.2299 23.9296 23.6749 24.9918 22.8086 25.915C22.2869 26.2038 22.0344 26.6385 22.0921 27.2406C22.0914 27.2805 22.0864 27.3202 22.0775 27.359ZM17.334 18.0233C17.1813 18.0899 17.0277 18.1535 16.8769 18.2191C16.6606 18.317 16.6733 18.4443 16.8769 18.5294C17.3865 18.74 17.8827 18.9816 18.3628 19.2529V18.5089C18.3687 18.3307 18.3628 18.1525 18.3824 17.9753C18.399 17.7746 18.3383 17.6816 18.1249 17.7511C17.8567 17.8363 17.5739 17.8657 17.334 18.0233ZM22.655 24.1381C22.9486 23.7465 23.0641 23.2864 23.1826 22.8243C23.2374 22.6119 23.1679 22.5512 22.9594 22.5629C22.6511 22.5805 22.3417 22.5756 22.0324 22.5815C21.8173 22.5511 21.5987 22.5567 21.3854 22.5981C21.5577 23.1111 21.7985 23.5869 21.9277 24.1029C21.9845 24.331 21.9346 24.7236 22.1724 24.7324C22.4103 24.7412 22.5444 24.3868 22.655 24.1381ZM20.6405 21.3235C21.2631 21.4674 21.8944 21.3666 22.5209 21.3852C22.7411 21.391 22.978 21.4674 23.1884 21.3254C23.1463 20.6401 22.8595 20.0596 22.4651 19.482C21.8504 20.0635 21.2572 20.6264 20.665 21.1894C20.6259 21.2266 20.6024 21.2706 20.6405 21.3235ZM19.6108 17.7531C19.5217 18.5521 19.5217 19.3585 19.6108 20.1575C19.6911 20.3092 19.7645 20.4199 19.9475 20.2427C20.5055 19.7032 21.0761 19.1756 21.6615 18.6244C21.036 18.1496 20.3841 17.8118 19.6108 17.7531ZM15.9363 14.5224C16.2828 14.4245 16.6214 14.2952 16.9777 14.2287C17.2844 14.1738 17.5585 14.004 17.7442 13.7539C18.5998 12.7071 19.5501 11.7413 20.5828 10.8687C20.7169 10.7522 20.8892 10.6729 20.9743 10.483C20.1636 10.1776 19.2724 10.161 18.4509 10.436C18.3038 10.4845 18.1793 10.5847 18.1005 10.718C17.3755 11.7959 16.7099 12.9127 16.1066 14.0632C16.0312 14.2062 15.903 14.3393 15.9431 14.5273L15.903 14.5517C15.9108 14.5517 15.9226 14.5517 15.9255 14.5517C15.9301 14.5434 15.9338 14.5345 15.9363 14.5253V14.5224ZM25.613 26.4662L25.5435 26.5641C24.4981 27.9621 23.1884 29.0067 21.5137 29.5549C21.3463 29.6107 21.2738 29.737 21.1994 29.876C20.7611 30.6906 20.1841 31.4224 19.4943 32.0387C18.91 32.5524 18.2615 32.9881 17.565 33.3348C17.6189 33.372 17.6375 33.3965 17.6629 33.4004C21.1471 34.0074 24.7308 33.235 27.6558 31.2466C27.9984 31.0146 28.3205 30.9666 28.6415 31.2692C28.8314 31.6412 28.7541 31.9466 28.4066 32.1777C24.6133 34.6963 20.5117 35.3921 16.1017 34.2649C15.7885 34.1856 15.4694 34.0035 15.1669 34.0309C14.1181 34.1196 13.062 34.0483 12.0346 33.8195C11.9014 33.7754 11.7707 33.7241 11.6431 33.6657C11.3602 33.5169 11.2447 33.6178 11.1723 33.9095C11.0558 34.3882 10.9073 34.8585 10.7279 35.3173C10.3638 36.2317 10.3706 36.2337 11.2819 36.6537C11.2941 36.6583 11.307 36.661 11.3201 36.6615C11.465 36.7457 11.6049 36.8416 11.7566 36.9111C16.9298 39.3067 22.1597 39.4791 27.4307 37.2626C30.7411 35.8714 33.4153 33.6609 35.4571 30.717C37.4841 27.8241 38.6391 24.4105 38.7852 20.881C38.9471 17.6184 38.2508 14.3704 36.7658 11.461C36.5446 11.0528 36.3244 10.6436 36.0689 10.1707C35.5076 11.8241 34.8298 13.4357 34.0408 14.9933C34.0178 15.0385 34.0048 15.0881 34.0026 15.1387C34.0004 15.1894 34.0091 15.2399 34.028 15.287C34.1533 15.6786 34.2718 16.08 34.3922 16.4774C34.7504 18.1417 34.8933 19.8109 34.7122 21.5085C34.3491 24.9115 32.9709 27.8348 30.609 30.3029C30.2086 30.7199 29.9786 30.7336 29.5479 30.3695C29.3404 29.9622 29.5636 29.689 29.8249 29.4071C32.7272 26.2811 33.9664 22.5991 33.5044 18.3522C33.4481 17.762 33.3387 17.1781 33.1774 16.6076C33.1128 16.7055 33.0746 16.7516 33.0433 16.8034C31.3646 19.6142 29.3081 22.1057 26.7896 24.2066C26.6848 24.2839 26.6054 24.3906 26.5615 24.5131C26.3364 25.2062 25.9869 25.8406 25.6159 26.4642L25.613 26.4662ZM8.04687 30.2941C7.53397 30.4174 7.35092 30.3323 7.11405 29.8604C7.02968 29.7142 6.95607 29.562 6.89381 29.4051C6.81452 29.1594 6.67847 29.1516 6.45529 29.2172C5.93093 29.3654 5.41878 29.554 4.92342 29.7811C3.96808 30.2285 3.11943 30.8335 2.28742 31.5756C2.77684 31.744 3.21535 31.8957 3.65779 32.0445C4.43837 32.2937 5.16286 32.6927 5.79066 33.2193C6.7695 34.0701 7.30981 35.1773 7.65045 36.3972C7.78748 36.9082 7.95388 37.3977 8.1242 37.9616C9.03843 36.4334 9.71872 34.8993 10.1337 33.2497C10.1606 33.1842 10.1606 33.1108 10.1339 33.0452C10.1072 32.9797 10.0558 32.9272 9.99084 32.8992C9.64541 32.6935 9.31796 32.459 9.012 32.1982C8.6097 31.8654 8.56859 31.6529 8.82798 31.1948C9.19309 30.9383 9.49652 31.0616 9.80682 31.3201C11.2565 32.5105 12.9205 33.048 14.7803 32.8659C18.7935 32.4743 21.5097 28.901 20.8755 24.9057C20.1012 20.0293 14.2605 17.6092 10.2385 20.5001C7.41944 22.5169 6.54045 26.1627 8.1242 29.2446C8.39338 29.7693 8.38261 29.9103 8.04687 30.2941ZM24.4913 8.97242C24.2818 8.46921 24.3601 8.24209 24.8387 7.99342C25.0835 7.86419 25.3282 7.74182 25.6052 7.60182C21.4941 5.60074 15.6211 5.8543 11.2163 9.60877C6.66966 13.469 5.73977 19.1883 6.7695 22.977C6.79886 22.9261 6.82823 22.884 6.84976 22.839C7.81359 20.7341 9.38559 19.2917 11.5658 18.5118C11.6501 18.4809 11.7274 18.4333 11.793 18.3719C11.8586 18.3106 11.9111 18.2366 11.9475 18.1545C12.4261 17.2562 13.079 16.4624 13.868 15.8195C14.008 15.7039 14.117 15.5552 14.1851 15.3868C15.0113 13.4288 16.0723 11.601 17.2606 9.84373C17.3866 9.64657 17.5741 9.49652 17.7941 9.41689C19.1645 8.90487 20.5162 8.9362 21.8416 9.57059C22.007 9.64989 22.1235 9.66849 22.2928 9.55395C22.7538 9.2299 22.978 9.27689 23.349 9.7194C23.4116 10.0875 23.2433 10.3332 22.9506 10.5378C21.9598 11.2344 21.0277 12.0111 20.1638 12.86C19.8173 13.2007 19.4914 13.562 19.1136 13.9585C21.4265 14.0701 23.3304 14.9071 24.8495 16.5528C26.3687 18.1985 27.0431 20.1604 26.9667 22.4141C27.0147 22.3945 27.0606 22.3702 27.1038 22.3417C27.4219 22.0333 27.7469 21.7317 28.0532 21.4136C31.7033 17.6141 34.0173 13.0715 35.4738 8.05216C35.5237 7.87986 35.5511 7.79175 35.3211 7.72419C34.7866 7.56658 34.5791 7.1319 34.7396 6.59443C34.8013 6.38884 34.8737 6.18716 34.9579 5.92969C34.4108 6.07066 33.9253 6.19793 33.4388 6.32129C30.6589 7.03008 27.8594 7.67133 25.3145 9.07326C25.013 9.23871 24.7389 9.19269 24.4873 8.97242H24.4913Z" fill="#030303"/>
<path d="M6.63061 5.78688C6.91642 5.79765 7.03095 5.55094 7.2091 5.40213C7.33537 5.29738 7.45478 5.18479 7.57714 5.07612C7.92364 5.39136 8.25057 5.30129 8.58827 5.04577C12.3701 2.1645 17.1012 0.819542 21.8329 1.28054C23.9947 1.48076 26.1029 2.06769 28.0573 3.01337C28.0161 3.21504 28.1023 3.3942 28.16 3.57825C28.4449 4.47501 28.7405 5.36884 28.8276 6.31358C28.7825 6.33936 28.7349 6.36068 28.6857 6.37721C28.1101 6.52211 27.5678 6.97049 27.0011 6.88727C26.4529 6.80699 25.9508 6.40462 25.4056 6.19218C17.5113 3.10931 8.83689 7.25538 6.06876 15.059C4.89416 18.3494 4.91569 21.6604 6.06876 24.9645C6.14525 25.1578 6.18091 25.3648 6.17349 25.5725C6.12579 26.3009 6.18015 27.0325 6.335 27.7459C6.37415 27.9231 6.37121 28.019 6.15391 28.0807C5.63122 28.2305 5.12125 28.4223 4.60638 28.5966C4.13654 28.2432 3.5786 28.1472 3.01871 28.0582C2.38152 26.7947 1.91855 25.4507 1.64247 24.0629C0.481578 18.3651 1.60234 13.1744 5.10461 8.51731C5.55878 7.91229 6.08344 7.366 6.58656 6.80797C6.94971 6.40658 6.95656 6.20883 6.63061 5.78688Z" fill="#FDE2CA"/>
<path d="M36.7581 11.4612C38.2431 14.3706 38.9394 17.6186 38.7775 20.8811C38.6314 24.4106 37.4764 27.8242 35.4494 30.7171C33.4105 33.661 30.7364 35.8716 27.423 37.2627C22.1569 39.4792 16.927 39.3069 11.7539 36.9083C11.6021 36.8388 11.4602 36.7429 11.3173 36.6587C11.3124 36.4472 11.3927 36.2553 11.4573 36.0586C11.7152 35.3297 11.9084 34.5795 12.0348 33.8167C13.0621 34.0455 14.1183 34.1168 15.167 34.0281C15.4695 34.0007 15.7886 34.1828 16.1018 34.2621C20.5118 35.3821 24.6124 34.685 28.4038 32.171C28.7513 31.9399 28.8286 31.6345 28.6387 31.2624C28.9725 30.9991 29.3826 30.8121 29.5402 30.3706C29.9709 30.7348 30.2009 30.7211 30.6013 30.304C32.9632 27.8359 34.3414 24.9126 34.7045 21.5096C34.8856 19.8121 34.7427 18.1399 34.3845 16.4786C34.5017 16.3107 34.6101 16.1368 34.7094 15.9577C35.378 14.6167 35.9638 13.2361 36.4635 11.8234C36.5193 11.6638 36.5428 11.4876 36.7581 11.4612Z" fill="#FDD6C5"/>
<path d="M24.4874 8.97255C24.739 9.19283 25.0131 9.23884 25.3126 9.07045C27.8576 7.66852 30.6619 7.02728 33.4369 6.31848C33.9263 6.19415 34.4089 6.06688 34.9561 5.92688C34.8719 6.18436 34.7994 6.38603 34.7378 6.59162C34.5773 7.12909 34.7848 7.56377 35.3192 7.72139C35.5492 7.78894 35.5218 7.87705 35.4719 8.04935C34.0154 13.0687 31.7014 17.6113 28.0514 21.4108C27.745 21.7289 27.42 22.0305 27.1019 22.3388C27.0587 22.3674 27.0128 22.3917 26.9649 22.4113C27.0412 20.1596 26.3629 18.1928 24.8477 16.55C23.3324 14.9073 21.4217 14.0673 19.1117 13.9557C19.4895 13.5592 19.8155 13.1979 20.162 12.8572C21.0249 12.0084 21.956 11.2318 22.9458 10.535C23.2394 10.3304 23.4068 10.0847 23.3442 9.71659C23.6731 9.38667 24.1037 9.21436 24.4874 8.97255ZM24.2917 11.4866C24.2937 11.5352 24.2986 11.5836 24.3064 11.6315C24.8868 14.3649 26.8915 16.4472 29.6508 17.0473C30.0002 17.1227 30.3007 16.9436 30.382 16.6342C30.4593 16.3405 30.2988 16.0566 29.9777 15.9303C29.8691 15.8882 29.7536 15.8657 29.642 15.8324C28.16 15.4026 26.9805 14.5695 26.1789 13.2341C25.8399 12.6498 25.5939 12.0164 25.4496 11.3564C25.3635 10.9893 25.0787 10.7954 24.7645 10.8669C24.4502 10.9384 24.2829 11.141 24.2878 11.4866H24.2917ZM31.583 13.9508C31.5771 13.6062 31.3588 13.4427 31.0593 13.3634C29.3757 12.913 28.3284 11.84 27.8997 10.1532C27.7871 9.7117 27.5022 9.51981 27.146 9.61477C26.8131 9.70386 26.6565 10.0171 26.7544 10.4293C26.931 11.2453 27.2941 12.0094 27.8155 12.6614C28.565 13.5898 29.6035 14.2408 30.7657 14.5108C31.2394 14.6273 31.585 14.3825 31.5791 13.9508H31.583ZM31.3089 9.44737C31.3862 9.4542 31.464 9.44567 31.538 9.42226C31.6119 9.39884 31.6805 9.36101 31.7397 9.31095C31.799 9.26089 31.8477 9.19959 31.8831 9.13059C31.9186 9.06158 31.94 8.98624 31.9461 8.90892C31.9514 8.7584 31.9005 8.61132 31.8033 8.49625C31.7062 8.38118 31.5697 8.30634 31.4205 8.28627C31.3426 8.2796 31.2641 8.28856 31.1896 8.31264C31.1152 8.33673 31.0463 8.37544 30.9871 8.42651C30.9278 8.47758 30.8793 8.53998 30.8445 8.61004C30.8097 8.68011 30.7892 8.75642 30.7843 8.83451C30.7746 8.98447 30.8235 9.13233 30.9206 9.24699C31.0178 9.36165 31.1555 9.43417 31.305 9.44932L31.3089 9.44737Z" fill="#A3B7BE"/>
<path d="M24.4875 8.97252C24.1038 9.21434 23.6731 9.38664 23.3491 9.7195C22.981 9.27699 22.7539 9.23 22.2929 9.55405C22.1236 9.67349 22.0071 9.65195 21.8417 9.57069C20.5163 8.9363 19.1665 8.90497 17.7942 9.41699C17.5742 9.49662 17.3867 9.64667 17.2607 9.84383C16.0724 11.606 15.0094 13.4289 14.1852 15.3869C14.1171 15.5553 14.0081 15.704 13.8681 15.8197C13.0791 16.4625 12.4262 17.2563 11.9476 18.1546C11.9112 18.2367 11.8587 18.3107 11.7931 18.372C11.7275 18.4334 11.6502 18.481 11.5659 18.5119C9.38439 19.2892 7.81304 20.7316 6.85182 22.8391C6.83029 22.8841 6.80092 22.9262 6.77156 22.9771C5.74183 19.1884 6.67368 13.4691 11.2125 9.60594C15.6241 5.85147 21.4961 5.59791 25.6014 7.59899C25.3273 7.738 25.0796 7.86038 24.8349 7.99059C24.3563 8.24219 24.275 8.46932 24.4875 8.97252Z" fill="#FDEEE1"/>
<path d="M29.5402 30.3735C29.3826 30.815 28.9724 31.002 28.6387 31.2654C28.3176 30.9629 27.9956 31.0108 27.653 31.2429C24.728 33.2312 21.1443 34.0036 17.6601 33.3967C17.6376 33.3967 17.619 33.3683 17.5622 33.3311C18.2587 32.9843 18.9072 32.5486 19.4915 32.0349C20.1812 31.4186 20.7582 30.6868 21.1966 29.8723C21.271 29.7332 21.3434 29.6069 21.5108 29.5511C23.1856 29.0029 24.4953 27.9583 25.5407 26.5603L25.6102 26.4624L25.6053 26.4673C25.6639 26.4714 25.7228 26.4635 25.7783 26.4441C25.8338 26.4248 25.8849 26.3943 25.9283 26.3547C27.3234 25.3481 28.6229 24.2151 29.8103 22.9703C31.0776 21.6197 32.2203 20.1573 33.2245 18.601C33.293 18.4953 33.3341 18.3572 33.4966 18.3533C33.9586 22.6002 32.7194 26.2832 29.8172 29.4082C29.5607 29.6931 29.3327 29.9662 29.5402 30.3735Z" fill="#FDE6DC"/>
<path d="M8.8281 31.1949C8.5687 31.653 8.60982 31.8655 9.01212 32.1984C9.31808 32.4592 9.64552 32.6936 9.99095 32.8993C10.0559 32.9274 10.1073 32.9798 10.134 33.0453C10.1607 33.1109 10.1607 33.1843 10.1339 33.2498C9.72275 34.8994 9.04246 36.4335 8.12431 37.9617C7.954 37.3978 7.7876 36.9083 7.64664 36.4002C7.30503 35.1765 6.76569 34.0731 5.78686 33.2224C5.15905 32.6958 4.43456 32.2967 3.65399 32.0476C3.21645 31.8988 2.77989 31.747 2.28851 31.5786C3.12052 30.8366 3.96917 30.2315 4.92451 29.7841C5.42105 29.5558 5.93452 29.3663 6.4603 29.2173C6.68347 29.1517 6.81953 29.1595 6.89882 29.4053C6.95954 29.5617 7.03151 29.7135 7.11416 29.8595C7.35104 30.3314 7.53408 30.4166 8.04699 30.2932C8.30638 30.5957 8.51585 30.9433 8.8281 31.1949Z" fill="#A3B7BE"/>
<path d="M8.82808 31.1949C8.51192 30.9433 8.30636 30.5958 8.04502 30.2942C8.38076 29.9104 8.39152 29.7695 8.12136 29.2447C6.54055 26.1628 7.41954 22.517 10.2356 20.4983C14.2577 17.6093 20.0984 20.0294 20.8726 24.9038C21.5069 28.8991 18.7936 32.4705 14.7774 32.8641C12.9245 33.0462 11.2536 32.5087 9.80985 31.3183C9.49467 31.0618 9.19319 30.9364 8.82808 31.1949ZM14.1412 19.8267C10.8572 19.7749 7.89917 22.4906 7.89525 26.0835C7.89525 29.5218 10.7211 32.3442 14.1598 32.3423C17.6767 32.3423 20.4537 29.4307 20.4126 26.0463C20.3695 22.5611 17.6317 19.8189 14.1412 19.8267Z" fill="#FAC42D"/>
<path d="M22.8068 25.9181C23.6731 24.9949 24.2281 23.9287 24.417 22.6599C24.8369 19.8434 22.6707 16.9494 19.8546 16.5559C18.3189 16.3405 16.9475 16.7017 15.6878 17.5701C15.3569 17.4967 15.0026 17.5564 14.6854 17.4184C16.1341 16.0765 17.8389 15.525 19.7998 15.7639C23.4215 16.2034 26.0702 19.8757 25.0033 23.6478C24.6323 24.9596 23.9383 26.0649 22.8215 26.8785L22.8068 25.9181Z" fill="#FBE1BD"/>
<path d="M33.4966 18.3563C33.3341 18.3563 33.293 18.4982 33.2245 18.604C32.2213 20.1601 31.0796 21.6225 29.8133 22.9732C28.6258 24.2181 27.3263 25.351 25.9312 26.3576C25.8878 26.3973 25.8368 26.4277 25.7813 26.4471C25.7257 26.4664 25.6669 26.4743 25.6082 26.4702C25.9792 25.8466 26.3286 25.2122 26.5538 24.5191C26.5977 24.3966 26.6771 24.2899 26.7818 24.2127C29.3004 22.1117 31.3569 19.6202 33.0356 16.8094C33.0669 16.7556 33.1051 16.7115 33.1697 16.6136C33.3308 17.1835 33.4403 17.7667 33.4966 18.3563Z" fill="#FBCCBF"/>
<path d="M22.8186 26.8794C23.9354 26.0649 24.6294 24.9596 25.0004 23.6487C26.0673 19.8776 23.4147 16.2083 19.7969 15.7649C17.8327 15.526 16.1279 16.0775 14.6825 17.4194L14.5386 17.5026C14.3311 17.4624 14.105 17.5721 13.9102 17.4262C15.8591 15.3703 18.2288 14.6498 20.9333 15.4623C23.5889 16.2602 25.2402 18.1203 25.6787 20.8645C26.1349 23.7339 25.0611 26.0297 22.6649 27.691L22.6551 27.0439L22.8186 26.8794Z" fill="#FAC42D"/>
<path d="M15.9413 14.5313C15.9011 14.3434 16.0294 14.2102 16.1047 14.0673C16.708 12.9167 17.3736 11.8 18.0986 10.722C18.1775 10.5888 18.302 10.4886 18.449 10.4401C19.2705 10.165 20.1617 10.1816 20.9725 10.4871C20.8902 10.675 20.718 10.7563 20.5809 10.8728C19.5482 11.7453 18.598 12.7111 17.7423 13.7579C17.5566 14.0081 17.2825 14.1779 16.9759 14.2327C16.6225 14.2983 16.2809 14.4285 15.9344 14.5264L15.9413 14.5313Z" fill="#748187"/>
<path d="M28.8276 6.31358C28.7405 5.36884 28.4449 4.47501 28.16 3.57825C28.1023 3.3942 28.0161 3.21504 28.0572 3.01337C29.4534 3.66423 30.7603 4.49137 31.9461 5.47457L28.8276 6.31358Z" fill="#FDD6C5"/>
<path d="M36.7581 11.4612C36.5428 11.4876 36.5193 11.6638 36.4645 11.8234C35.9644 13.236 35.3783 14.6167 34.7094 15.9577C34.6102 16.1378 34.5017 16.3126 34.3845 16.4815C34.2641 16.084 34.1456 15.6865 34.0203 15.291C34.0014 15.244 33.9927 15.1934 33.9949 15.1428C33.9971 15.0921 34.0101 15.0425 34.0331 14.9973C34.8221 13.4397 35.4999 11.8281 36.0612 10.1747C36.3147 10.6437 36.5369 11.0529 36.7581 11.4612Z" fill="#FABEAB"/>
<path d="M19.6109 17.7532C20.3842 17.8119 21.0361 18.1448 21.6576 18.6245C21.0703 19.1757 20.5016 19.7014 19.9437 20.2428C19.7607 20.42 19.6873 20.3093 19.607 20.1576C19.6083 19.3568 19.6096 18.5553 19.6109 17.7532Z" fill="#FAC42D"/>
<path d="M20.6407 21.3236C20.6025 21.2708 20.626 21.2257 20.6651 21.1895C21.2524 20.6266 21.8505 20.0636 22.4652 19.4821C22.8568 20.0597 23.1504 20.6432 23.1886 21.3256L20.6407 21.3236Z" fill="#FAC42D"/>
<path d="M12.0397 33.8195C11.9133 34.5823 11.72 35.3325 11.4621 36.0615C11.3975 36.2573 11.3173 36.4531 11.3222 36.6616C11.3091 36.6611 11.2962 36.6584 11.284 36.6538C10.3727 36.2338 10.3659 36.2318 10.73 35.3174C10.9094 34.8586 11.0579 34.3883 11.1744 33.9096C11.2468 33.6159 11.3623 33.518 11.6452 33.6658C11.7737 33.7243 11.9054 33.7756 12.0397 33.8195Z" fill="#FABEAB"/>
<path d="M22.6551 24.1382C22.5445 24.3869 22.4026 24.7403 22.1725 24.7325C21.9425 24.7247 21.9846 24.3311 21.9278 24.103C21.7986 23.5871 21.5578 23.1113 21.3856 22.5983C21.5988 22.5569 21.8175 22.5512 22.0326 22.5816C22.1951 23.0241 22.3879 23.4627 22.4897 23.9209C22.5132 24.0247 22.5132 24.1294 22.6551 24.1382Z" fill="#F1B02A"/>
<path d="M22.6551 24.1382C22.5151 24.1294 22.5122 24.0247 22.4896 23.9209C22.3918 23.4578 22.196 23.0241 22.0325 22.5816C22.3418 22.5758 22.6512 22.5816 22.9595 22.563C23.168 22.5513 23.2375 22.612 23.1827 22.8244C23.0642 23.2865 22.9438 23.7457 22.6551 24.1382Z" fill="#FAC42D"/>
<path d="M18.36 18.5129V19.257C17.8799 18.9857 17.3837 18.7441 16.8741 18.5335C16.6783 18.4483 16.6607 18.323 16.8741 18.2231C17.0248 18.1536 17.1785 18.09 17.3312 18.0273C17.6547 18.2276 17.9998 18.3905 18.36 18.5129Z" fill="#F1B02A"/>
<path d="M3.02264 28.0543C3.58254 28.1433 4.14047 28.2393 4.61031 28.5927C4.31666 28.7484 4.02301 28.8982 3.72936 29.0617C3.60603 29.1321 3.5336 29.139 3.46508 28.9912C3.32804 28.6749 3.17241 28.3666 3.02264 28.0543Z" fill="#FDD6C5"/>
<path d="M14.5386 17.5016L14.6825 17.4184C15.0036 17.5564 15.354 17.4967 15.6848 17.5701C15.2816 18.1145 14.7393 18.1996 14.1187 18.043C14.1931 17.8061 14.43 17.7052 14.5386 17.5016Z" fill="#FABEAB"/>
<path d="M22.8186 26.8794L22.6551 27.0429L22.0776 27.3591C22.0847 27.321 22.088 27.2823 22.0874 27.2436C22.0296 26.6415 22.2831 26.2068 22.8039 25.918L22.8186 26.8794Z" fill="#FBCCBF"/>
<path d="M18.36 18.5129C18.0007 18.389 17.6565 18.2248 17.3342 18.0234C17.574 17.8658 17.8569 17.8364 18.1172 17.7552C18.3306 17.6896 18.3913 17.7787 18.3747 17.9794C18.3639 18.1566 18.3659 18.3347 18.36 18.5129Z" fill="#F5C02D"/>
<path d="M22.0776 27.3591L22.6551 27.0429C22.6551 27.2583 22.6619 27.4746 22.6649 27.69L21.9728 28.0973C21.9259 27.8036 22.0237 27.5863 22.0776 27.3591Z" fill="#F1B02A"/>
<path d="M14.5386 17.5016C14.4299 17.7052 14.1882 17.8061 14.1236 18.043L13.3973 18.1193C13.5212 17.8566 13.6954 17.6208 13.9102 17.4252C14.105 17.5711 14.3311 17.4615 14.5386 17.5016Z" fill="#F1B02A"/>
<path d="M20.6406 21.3236H23.1856C22.9751 21.4656 22.7383 21.3892 22.518 21.3833C21.8945 21.3667 21.2632 21.4675 20.6406 21.3236Z" fill="#F1B02A"/>
<path d="M19.6109 17.7532C19.6109 18.5546 19.6109 19.3561 19.6109 20.1576C19.5219 19.3586 19.5219 18.5522 19.6109 17.7532Z" fill="#F1B02A"/>
<path d="M15.9364 14.5255C15.9336 14.5361 15.9293 14.5463 15.9236 14.5558C15.9236 14.5558 15.909 14.5558 15.9011 14.5558L15.9413 14.5313L15.9364 14.5255Z" fill="#748187"/>
<path d="M25.6131 26.4653L25.5436 26.5632L25.6131 26.4653Z" fill="#FBCCBF"/>
<path d="M24.2878 11.4866C24.2878 11.141 24.4512 10.9335 24.7694 10.863C25.0875 10.7925 25.3645 10.9883 25.4545 11.3525C25.5972 12.0125 25.8416 12.6463 26.1789 13.2312C26.9806 14.5665 28.16 15.3997 29.642 15.8295C29.7536 15.8627 29.8691 15.8853 29.9777 15.9274C30.2988 16.0536 30.4593 16.3376 30.382 16.6313C30.3008 16.9406 30.0002 17.1208 29.6508 17.0444C26.8915 16.4443 24.8868 14.3619 24.3064 11.6286C24.2974 11.5817 24.2912 11.5343 24.2878 11.4866Z" fill="#030303"/>
<path d="M31.5791 13.9507C31.585 14.3825 31.2394 14.6272 30.7618 14.5097C29.5996 14.2398 28.5611 13.5888 27.8116 12.6604C27.2902 12.0083 26.927 11.2443 26.7505 10.4283C26.6526 10.0161 26.8092 9.70285 27.142 9.61376C27.4983 9.51586 27.7832 9.71166 27.8957 10.1522C28.3245 11.839 29.3718 12.912 31.0554 13.3624C31.3549 13.4426 31.5732 13.6081 31.5791 13.9507Z" fill="#030303"/>
<path d="M31.305 9.44931C31.1548 9.43511 31.0161 9.36299 30.9181 9.24823C30.8202 9.13347 30.7708 8.98508 30.7803 8.8345C30.7853 8.75641 30.8058 8.6801 30.8406 8.61003C30.8754 8.53997 30.9239 8.47757 30.9831 8.4265C31.0424 8.37543 31.1113 8.33672 31.1857 8.31263C31.2601 8.28855 31.3386 8.27958 31.4166 8.28626C31.5665 8.30544 31.7039 8.3799 31.8019 8.49506C31.8998 8.61022 31.9513 8.7578 31.9461 8.90891C31.9402 8.98676 31.9189 9.06266 31.8833 9.13217C31.8477 9.20168 31.7987 9.26339 31.739 9.31371C31.6793 9.36403 31.6102 9.40194 31.5356 9.42522C31.4611 9.4485 31.3827 9.45669 31.305 9.44931Z" fill="#030303"/>
<path d="M14.1412 19.8267C17.6317 19.8189 20.3695 22.561 20.4126 26.0463C20.4537 29.4307 17.6767 32.3393 14.1598 32.3422C10.7212 32.3422 7.89526 29.5217 7.89526 26.0835C7.89918 22.4906 10.8572 19.7758 14.1412 19.8267ZM14.1706 20.5991C13.0862 20.5958 12.0253 20.9143 11.1219 21.5142C10.2186 22.1141 9.51341 22.9684 9.09564 23.9692C8.67787 24.97 8.56625 26.0723 8.77492 27.1365C8.9836 28.2008 9.50317 29.1792 10.2679 29.9481C11.0327 30.7169 12.0082 31.2417 13.0712 31.4559C14.1342 31.6701 15.2368 31.5642 16.2396 31.1515C17.2424 30.7389 18.1003 30.038 18.7047 29.1376C19.3092 28.2373 19.6331 27.1778 19.6354 26.0933C19.6367 24.6406 19.0623 23.2467 18.0379 22.2169C17.0136 21.1871 15.6229 20.6053 14.1706 20.5991Z" fill="#FBE1BD"/>
<path d="M14.1706 20.5991C15.2545 20.6016 16.3133 20.9255 17.2133 21.5298C18.1132 22.1341 18.8138 22.9917 19.2265 23.9941C19.6392 24.9966 19.7454 26.0989 19.5319 27.1618C19.3183 28.2246 18.7944 29.2003 18.0266 29.9654C17.2587 30.7306 16.2812 31.2508 15.2178 31.4604C14.1543 31.6701 13.0526 31.5596 12.0518 31.1431C11.0511 30.7266 10.1963 30.0227 9.59551 29.1204C8.9947 28.218 8.67485 27.1578 8.6764 26.0737C8.67561 25.3528 8.81734 24.6389 9.09343 23.973C9.36951 23.3071 9.77451 22.7023 10.2851 22.1936C10.7957 21.6848 11.4019 21.282 12.0687 21.0083C12.7355 20.7347 13.4498 20.5956 14.1706 20.5991ZM17.3655 28.9265C17.8762 28.353 18.2234 27.6527 18.3708 26.899C18.408 26.7032 18.3639 26.6484 18.1672 26.6513C17.5701 26.6621 16.973 26.6513 16.3759 26.6513H15.4303L17.3655 28.9265ZM12.8775 25.4765C12.2413 24.7285 11.6609 24.054 11.0902 23.3717C10.9532 23.2072 10.8944 23.2963 10.7965 23.4079C10.372 23.9497 10.08 24.5834 9.94399 25.2582C9.90483 25.4422 9.96454 25.4804 10.1329 25.4794C11.0138 25.4736 11.8948 25.4765 12.8775 25.4765ZM11.4788 29.417C12.0269 29.8656 12.6794 30.1687 13.3758 30.2981C13.4942 30.3226 13.5803 30.3118 13.5794 30.1571C13.5794 29.2819 13.5794 28.4057 13.5794 27.4374L11.4788 29.417ZM14.7589 24.6953C15.4499 24.0423 16.0774 23.448 16.7077 22.8567C16.8007 22.7686 16.8301 22.7059 16.7077 22.6159C16.1944 22.238 15.6026 21.9807 14.9762 21.863C14.8372 21.8376 14.7589 21.8473 14.7598 22.0206C14.7618 22.8841 14.7589 23.7476 14.7589 24.6953ZM12.6886 26.6533C11.7499 26.6533 10.9267 26.6533 10.1006 26.6533C9.92832 26.6533 9.90483 26.7345 9.93811 26.8735C10.0703 27.4717 10.2748 28.0376 10.6722 28.5545L12.6886 26.6533ZM15.6555 25.4785C16.5668 25.4785 17.3733 25.4785 18.1789 25.4785C18.3522 25.4785 18.404 25.4305 18.3747 25.2533C18.2724 24.7162 18.0674 24.2039 17.7707 23.7447C17.6807 23.6017 17.6161 23.6164 17.5055 23.7231C16.9152 24.289 16.3201 24.847 15.6555 25.4765V25.4785ZM11.8586 22.4612L13.5794 24.475C13.5794 23.5821 13.5794 22.8107 13.5794 22.0275C13.5794 21.8376 13.5089 21.8199 13.3445 21.8503C12.8132 21.9511 12.3078 22.1582 11.8586 22.4592V22.4612ZM14.7589 27.6881C14.7589 28.5799 14.7589 29.368 14.7589 30.1571C14.7589 30.3578 14.8812 30.3167 14.9948 30.2922C15.413 30.2004 15.8177 30.055 16.1987 29.8595C16.4141 29.7498 16.4611 29.6637 16.2829 29.4679C15.7896 28.9118 15.3158 28.3401 14.7589 27.6861V27.6881Z" fill="#030302"/>
<path d="M17.3655 28.9266L15.4303 26.6553H16.3759C16.9729 26.6553 17.57 26.6621 18.1671 26.6553C18.3629 26.6553 18.4079 26.7091 18.3707 26.903C18.2227 27.6553 17.8755 28.3541 17.3655 28.9266Z" fill="#F5C02D"/>
<path d="M12.8775 25.4765C11.8987 25.4765 11.0178 25.4765 10.1368 25.4765C9.96845 25.4765 9.90874 25.4393 9.9479 25.2553C10.0852 24.5804 10.3786 23.9471 10.8044 23.4059C10.8934 23.2943 10.9571 23.2101 11.098 23.3697C11.6609 24.054 12.2413 24.7286 12.8775 25.4765Z" fill="#FAC42D"/>
<path d="M11.4788 29.417L13.5784 27.4374C13.5784 28.4057 13.5784 29.2819 13.5784 30.1571C13.5784 30.3118 13.4932 30.3226 13.3748 30.2981C12.6787 30.1685 12.0266 29.8655 11.4788 29.417Z" fill="#F5C02D"/>
<path d="M14.7589 24.6953C14.7589 23.7476 14.7589 22.8841 14.7589 22.0206C14.7589 21.8474 14.8362 21.8376 14.9752 21.863C15.6005 21.9808 16.1913 22.2378 16.7038 22.6149C16.8301 22.705 16.8017 22.7676 16.7038 22.8557C16.0773 23.448 15.4499 24.0423 14.7589 24.6953Z" fill="#FAC42D"/>
<path d="M12.6886 26.6562L10.6693 28.5545C10.2719 28.0376 10.0673 27.4717 9.93518 26.8735C9.90484 26.7345 9.92539 26.6523 10.0977 26.6533C10.9258 26.6582 11.746 26.6562 12.6886 26.6562Z" fill="#F5C02D"/>
<path d="M15.6555 25.4765C16.3201 24.847 16.9152 24.289 17.5025 23.7241C17.6131 23.6174 17.6777 23.6027 17.7678 23.7456C18.0649 24.2061 18.27 24.7197 18.3717 25.2582C18.404 25.4354 18.3521 25.4843 18.176 25.4834C17.3733 25.4726 16.5667 25.4765 15.6555 25.4765Z" fill="#FAC42D"/>
<path d="M11.8586 22.4593C12.3092 22.1603 12.8156 21.9555 13.3474 21.8572C13.5118 21.8268 13.5843 21.8445 13.5823 22.0344C13.5755 22.8097 13.5823 23.5861 13.5823 24.4819L11.8586 22.4593Z" fill="#F5C02D"/>
<path d="M14.7589 27.6862C15.3158 28.3401 15.7896 28.9119 16.2829 29.466C16.4611 29.6618 16.4141 29.7479 16.1987 29.8576C15.8171 30.0532 15.4117 30.1987 14.9928 30.2903C14.8793 30.3148 14.7559 30.3559 14.7569 30.1552C14.7608 29.37 14.7589 28.578 14.7589 27.6862Z" fill="#FAC42D"/>
</g>
<defs>
<clipPath id="clip0_18_244">
<rect width="40" height="40" fill="white"/>
</clipPath>
</defs>
</svg>
