<svg width="39" height="45" viewBox="0 0 39 45" fill="none" xmlns="http://www.w3.org/2000/svg">
<path d="M8.93529 8.54059C8.72229 8.01266 8.77497 7.81683 9.23305 7.48472C11.4273 5.87206 13.9829 4.82109 16.6768 4.4236C16.9276 4.38581 17.0147 4.29076 16.9941 4.03881C16.9792 3.75271 16.9792 3.46602 16.9941 3.17991C17.0033 2.71965 17.1494 2.27256 17.4138 1.89565C17.6781 1.51874 18.0487 1.22907 18.4782 1.06358C18.5859 1.01892 18.7428 1.05671 18.8023 0.907837H19.7471C19.98 0.987923 20.2073 1.08357 20.4274 1.19414C21.2199 1.65222 21.6321 2.33934 21.6424 3.26809C21.6424 3.62311 21.5382 4.05943 21.7054 4.31137C21.8726 4.56331 22.341 4.45796 22.6731 4.54041C29.6371 6.18721 34.1034 10.437 36.0055 17.3495C36.0857 17.6404 36.1681 17.7583 36.498 17.764C37.0647 17.7678 37.6068 17.9966 38.0048 18.4001C38.4029 18.8035 38.6244 19.3485 38.6206 19.9153C38.6168 20.482 38.388 21.0241 37.9846 21.4221C37.5811 21.8202 37.0361 22.0417 36.4693 22.0379C34.3652 22.0509 32.2623 22.0509 30.1604 22.0379C29.8615 22.0379 29.7218 22.07 29.7837 22.4227C29.8501 22.8029 29.6691 23.1407 29.5088 23.482C28.0109 26.747 25.8751 29.5791 23.5961 32.323C22.4704 33.6777 21.3424 35.0233 20.0082 36.1811C19.6647 36.4743 19.3497 36.5636 18.9776 36.2762C18.705 35.8089 18.7348 35.5971 19.1264 35.2329C19.4196 34.9604 19.7196 34.6958 20.0094 34.421C21.5165 32.986 22.6914 31.2694 24.0416 29.7016C25.8384 27.6173 27.1772 25.2536 28.3991 22.8121C28.6339 22.3437 28.4163 22.0207 27.8918 22.054C27.7509 22.0718 27.6113 22.0986 27.4738 22.1341C26.6893 22.2658 26.1293 22.7239 25.7079 23.3698C25.3254 23.9561 24.9211 24.531 24.5913 25.146C23.7633 26.6874 22.5678 27.8945 21.2405 29.0007C20.2167 29.8493 19.1791 30.6773 17.9194 31.1571C16.4822 31.7046 15.3496 31.3335 14.5067 30.0509C14.3922 29.8734 14.2777 29.6901 14.1631 29.5092C13.9559 28.9657 13.7823 28.41 13.6432 27.8452C13.3489 26.4893 13.2997 25.1059 13.1473 23.734C13.1249 23.4346 13.0249 23.1463 12.8573 22.8973C12.6896 22.6483 12.46 22.4473 12.1911 22.3139C11.9815 22.1444 11.725 22.1066 11.4742 22.0574C11.2234 22.0081 11.0848 22.1055 11.0688 22.3929C11.0253 23.1488 10.9337 23.9012 10.8993 24.657C10.7974 26.9199 10.2351 29.0397 9.08302 31.0083C8.35468 32.2497 8.1096 33.6422 7.99279 35.0657C7.9789 35.1347 7.98207 35.206 8.00203 35.2735C8.02199 35.3409 8.05813 35.4025 8.10731 35.4528C9.38078 36.7011 10.6497 37.9547 11.914 39.2136C12.0037 39.3042 12.0878 39.4002 12.1659 39.5011C12.403 39.8446 12.624 39.8229 12.9618 39.5847C14.2467 38.6845 15.5649 37.8325 16.8555 36.9438C17.2426 36.677 17.5793 36.6484 17.9263 36.9771C18.1118 37.5164 18.0557 37.6928 17.5827 38.0158C16.3069 38.8769 15.0304 39.7362 13.7531 40.5936C13.5608 40.7219 13.4439 40.8043 13.594 41.0803C13.7165 41.2944 13.7648 41.5431 13.7312 41.7876C13.6977 42.032 13.5842 42.2585 13.4084 42.4316C12.7213 43.1691 11.9861 43.8746 11.2623 44.5835C11.125 44.6939 10.9769 44.7902 10.8203 44.8709H10.1332C9.76213 44.7083 9.47468 44.4426 9.19182 44.1586C7.3595 42.3133 5.52031 40.4722 3.67425 38.6353C2.96651 37.926 2.96651 37.2172 3.67425 36.5087C4.24685 35.9303 4.82975 35.3635 5.40121 34.7771C5.70698 34.4656 6.0597 34.2652 6.50403 34.3133C6.73307 34.3385 6.77545 34.2458 6.80408 34.0385C6.98273 32.7444 7.29766 31.4847 7.9676 30.3498C9.03264 28.5484 9.52278 26.5958 9.61669 24.5219C9.64761 23.8084 9.71632 23.0961 9.79076 22.3849C9.82053 22.0986 9.73579 22.0299 9.45292 22.031C7.00792 22.0414 4.56292 22.0482 2.11792 22.031C1.20176 22.0242 0.538688 21.5558 0.183676 20.7152C-0.171336 19.8746 -0.00299134 19.0867 0.613126 18.4157C0.811376 18.198 1.05458 18.0261 1.32589 17.9118C1.5972 17.7975 1.89012 17.7436 2.18434 17.7537C2.44201 17.7537 2.54164 17.6919 2.60577 17.4205C3.30145 14.4428 4.78972 11.7089 6.91287 9.50829C7.29766 9.10403 7.45684 9.08113 7.96531 9.33536C8.24016 9.8152 8.22756 9.99843 7.85079 10.3935C7.29689 10.9713 6.78771 11.5903 6.32767 12.2453C5.33822 13.6688 4.54574 15.1885 4.11057 16.8788C4.07507 16.9704 4.03384 17.0597 4.00635 17.1536C3.82999 17.7503 3.83114 17.7514 4.45069 17.7514H24.936C25.0505 17.7514 25.1651 17.7457 25.2796 17.7514C25.7171 17.7766 25.9037 17.9633 25.9472 18.4122C25.8774 18.9161 25.7239 19.0341 25.1227 19.0341H2.56226C2.40532 19.0233 2.24772 19.0275 2.09158 19.0467C1.72168 19.12 1.40446 19.2757 1.36552 19.712C1.33502 19.7425 1.31313 19.7804 1.30207 19.8221C1.291 19.8637 1.29116 19.9075 1.30254 19.9491C1.36781 20.4633 1.74916 20.7438 2.38475 20.7438C13.6741 20.7438 24.9635 20.7438 36.2529 20.7438C36.3674 20.7496 36.4822 20.7473 36.5965 20.737C36.7116 20.721 36.822 20.6807 36.9203 20.6188C37.0187 20.5568 37.1026 20.4746 37.1667 20.3776C37.2307 20.2806 37.2734 20.1711 37.2918 20.0563C37.3101 19.9415 37.3038 19.8242 37.2733 19.712C37.1461 19.2173 36.877 19.0352 36.2495 19.0341C33.5231 19.0341 30.7968 19.0341 28.0704 19.0341C27.5368 19.0341 27.4039 18.9195 27.2688 18.4019C27.3833 17.8934 27.5643 17.7514 28.1048 17.7503C30.1753 17.7503 32.2447 17.7503 34.3152 17.7503C34.4607 17.7503 34.6198 17.803 34.7733 17.693C34.6794 17.4216 34.6748 17.1307 34.5248 16.8811C34.5014 16.6393 34.4355 16.4036 34.3301 16.1848C31.908 9.9114 27.3535 6.31433 20.6793 5.58712C16.7856 5.16455 13.2057 6.22271 10.0175 8.52456C9.64417 8.78681 9.3029 8.85667 8.93529 8.54059ZM18.2984 3.39636C18.2481 4.24151 18.2481 4.24037 19.0634 4.22205C19.2329 4.22205 19.407 4.22205 19.5731 4.22205C20.3873 4.24037 20.3873 4.24151 20.3369 3.39636C20.3575 2.68633 19.943 2.20077 19.3177 2.20077C18.6924 2.20077 18.2767 2.68633 18.2984 3.39636ZM23.3476 22.4571C22.6502 22.764 22.1749 23.3011 21.8073 23.9458L20.267 26.6668L17.0605 29.9593L17.175 30.0738C20.8396 28.4579 23.13 25.493 24.9486 22.0345C24.3783 22.0677 23.8355 22.1524 23.3476 22.4571ZM11.6929 40.8845C9.99269 39.1743 8.29284 37.4638 6.59336 35.7528C6.47884 35.6383 6.40211 35.5856 6.25782 35.7357C5.7127 36.3002 5.15957 36.858 4.59155 37.3996C4.38312 37.5989 4.54002 37.6825 4.65797 37.8005C5.40464 38.5471 6.14673 39.2961 6.89913 40.0405C7.85957 40.9948 8.8223 41.9491 9.78732 42.9035C9.94192 43.0695 10.1057 43.2276 10.2454 43.4028C10.3851 43.578 10.4939 43.5608 10.6428 43.4028C11.0081 43.0191 11.3872 42.6504 11.7616 42.2759C12.4797 41.5624 12.4797 41.5624 11.6929 40.8845ZM13.8276 22.0436C14.3361 22.7308 14.4506 23.4545 14.501 24.1989C14.5605 25.0819 14.6304 25.9648 14.7758 26.8397C14.9064 27.6288 15.0759 28.4052 15.4549 29.1244C15.6164 29.4302 15.7321 29.5367 16.0069 29.2115C16.3678 28.7866 16.7541 28.3839 17.1636 28.0056C18.618 26.6519 19.8296 25.1208 20.6862 23.3183C20.9084 22.851 21.2588 22.4616 21.6447 22.0436H13.8276Z" fill="#030303"/>
<path d="M17.9287 36.9816C17.5851 36.653 17.2416 36.6816 16.8579 36.9484C15.565 37.8371 14.2469 38.6891 12.9642 39.5892C12.6207 39.8274 12.4054 39.8458 12.1683 39.5056C12.0903 39.4048 12.0061 39.3088 11.9164 39.2182C13.1211 38.4051 14.3213 37.5817 15.5341 36.7812C16.9055 35.8789 18.1766 34.8328 19.3258 33.6605C19.8265 33.1534 20.3008 32.6209 20.747 32.0653C21.8659 30.6647 23.0008 29.2767 24.1185 27.8761C24.948 26.8219 25.6697 25.687 26.2726 24.4886C26.6746 23.7019 27.1556 22.9541 27.4728 22.1238C27.6103 22.0883 27.7499 22.0615 27.8908 22.0436C28.4153 22.0104 28.6329 22.3334 28.3981 22.8018C27.1762 25.2433 25.8374 27.6116 24.0406 29.6913C22.6904 31.2591 21.5212 32.9757 20.0084 34.4106C19.7186 34.6855 19.4186 34.95 19.1254 35.2226C18.7338 35.5868 18.704 35.7952 18.9765 36.2659C18.5688 36.4193 18.2906 36.7595 17.9287 36.9816Z" fill="#E5BE9A"/>
<path d="M4.11066 16.8753C4.54583 15.185 5.33831 13.6688 6.32776 12.2419C6.78794 11.5881 7.29711 10.9702 7.85088 10.3935C8.22765 9.99842 8.24025 9.82091 7.9654 9.33535C8.37767 9.17846 8.60099 8.79252 8.93538 8.54058C9.30299 8.85665 9.64426 8.7868 10.0165 8.51882C13.2047 6.21697 16.788 5.1588 20.6783 5.58138C27.3525 6.30858 31.9012 9.90566 34.329 16.1791C34.4345 16.3979 34.5004 16.6336 34.5237 16.8753H4.11066Z" fill="#D3E5FC"/>
<path d="M27.4725 22.1272C27.1553 22.9575 26.6709 23.7053 26.2724 24.4921C25.6694 25.6904 24.9478 26.8253 24.1182 27.8796C23.0005 29.2802 21.8656 30.6681 20.7468 32.0687C20.3005 32.6232 19.8261 33.1545 19.3256 33.6605C18.1752 34.8301 16.9033 35.8736 15.5315 36.7732C14.3176 37.5748 13.1186 38.3971 11.9138 39.2102C10.6473 37.9535 9.37951 36.6988 8.11063 35.4459C8.06145 35.3956 8.02531 35.334 8.00535 35.2666C7.98539 35.1991 7.98222 35.1278 7.99611 35.0588C8.11063 33.6399 8.358 32.2428 9.08634 31.0014C10.2384 29.0328 10.8041 26.913 10.9026 24.6501C10.937 23.8943 11.0286 23.1419 11.0721 22.3861C11.0882 22.0986 11.2107 21.9978 11.4775 22.0505C11.7444 22.1032 11.9848 22.1375 12.1944 22.307C12.2803 23.151 12.3822 23.9939 12.4487 24.8402C12.5345 25.9339 12.6891 27.0161 13.0774 28.0468C13.295 28.6194 13.5354 29.224 14.1665 29.5069C14.281 29.6878 14.3875 29.8711 14.51 30.0486C15.3529 31.3312 16.4855 31.7023 17.9227 31.1548C19.1824 30.675 20.2246 29.847 21.2438 28.9984C22.5711 27.8968 23.7632 26.6851 24.5946 25.1437C24.9245 24.5287 25.3287 23.9538 25.7112 23.3675C26.1281 22.717 26.6881 22.2589 27.4725 22.1272Z" fill="#EFCAA6"/>
<path d="M1.36432 19.7109C1.40898 19.2745 1.72048 19.1188 2.09038 19.0455C2.24651 19.0264 2.40412 19.0222 2.56105 19.0329H25.1215C25.7227 19.0329 25.8762 18.9184 25.946 18.4111L27.2676 18.4008C27.4004 18.923 27.5333 19.0329 28.0692 19.0329C30.7948 19.0329 33.5211 19.0329 36.2483 19.0329C36.8758 19.0329 37.1449 19.2161 37.2721 19.7109C36.4624 19.9491 35.6321 19.8826 34.8076 19.8826C24.4962 19.8826 14.1848 19.8826 3.87345 19.8826C3.03288 19.8826 2.18772 19.9536 1.36432 19.7109Z" fill="#365F79"/>
<path d="M1.36441 19.7109C2.18781 19.9537 3.03296 19.8827 3.8724 19.8827C14.1838 19.8827 24.4952 19.8827 34.8065 19.8827C35.6311 19.8827 36.4614 19.9491 37.271 19.7109C37.3016 19.823 37.3079 19.9404 37.2895 20.0552C37.2711 20.1699 37.2285 20.2795 37.1644 20.3764C37.1004 20.4734 37.0164 20.5557 36.9181 20.6176C36.8197 20.6796 36.7093 20.7199 36.5942 20.7358C36.48 20.7462 36.3652 20.7485 36.2506 20.7427C24.9613 20.7427 13.6719 20.7427 2.38249 20.7427C1.7469 20.7427 1.36555 20.4621 1.30028 19.9479C1.28905 19.9063 1.28907 19.8624 1.30033 19.8207C1.3116 19.7791 1.33371 19.7412 1.36441 19.7109Z" fill="#305469"/>
<path d="M27.2689 18.3996L25.9473 18.4099C25.9038 17.961 25.7183 17.7743 25.2797 17.7491C25.1652 17.7423 25.0506 17.7491 24.9361 17.7491H4.45078C3.83123 17.7491 3.83008 17.7491 4.00645 17.1513C4.03393 17.0574 4.07516 16.9681 4.11066 16.8765H34.5237C34.6738 17.1261 34.6783 17.417 34.7722 17.6884C34.6199 17.803 34.4607 17.7457 34.3142 17.7457C32.2436 17.7457 30.1743 17.7457 28.1037 17.7457C27.5644 17.7491 27.388 17.8911 27.2689 18.3996Z" fill="#CADEF8"/>
<path d="M9.78736 42.8977C8.82463 41.9449 7.8619 40.9906 6.89917 40.0347C6.14906 39.2903 5.40468 38.546 4.65801 37.7947C4.54349 37.6802 4.38316 37.5932 4.59159 37.3939C5.16419 36.8522 5.71274 36.2945 6.25785 35.7299C6.40215 35.5799 6.47773 35.6303 6.5934 35.7471C8.29211 37.4595 9.99197 39.1701 11.693 40.8787C11.6288 41.0459 11.4834 41.1467 11.3654 41.2681C10.8409 41.8167 10.3142 42.356 9.78736 42.8977ZM6.36779 36.8018C6.0666 36.8282 5.85932 36.9266 5.73679 37.1671C5.67419 37.272 5.64676 37.3941 5.65851 37.5157C5.67025 37.6372 5.72055 37.7519 5.80206 37.8428C6.02386 38.102 6.26504 38.344 6.52354 38.5666C6.64387 38.6669 6.79706 38.7192 6.95361 38.7133C7.11016 38.7074 7.259 38.6438 7.37148 38.5348C7.48395 38.4257 7.55209 38.2789 7.56278 38.1226C7.57348 37.9663 7.52596 37.8116 7.42939 37.6882C7.19887 37.4189 6.94686 37.1689 6.67585 36.9404C6.58172 36.8771 6.47757 36.8303 6.36779 36.8018Z" fill="#EBF0F8"/>
<path d="M23.3476 22.4571C23.8355 22.1524 24.3783 22.0677 24.9509 22.0345C23.13 25.4953 20.8396 28.4579 17.175 30.0738L17.0605 29.9593L20.267 26.6668C20.3369 26.7653 20.4125 26.7378 20.4778 26.6668C20.8213 26.3015 21.2279 26.0037 21.5004 25.5789C22.1154 24.6215 22.7235 23.6618 23.3327 22.7033C23.3831 22.622 23.4736 22.5521 23.3476 22.4571Z" fill="#D6A87F"/>
<path d="M14.163 29.5023C13.5286 29.2194 13.2915 28.6159 13.0739 28.0422C12.6857 27.0115 12.5311 25.9339 12.4452 24.8356C12.3788 23.9893 12.2769 23.1464 12.191 22.3024C12.4599 22.4358 12.6895 22.6368 12.8572 22.8858C13.0248 23.1348 13.1248 23.4231 13.1472 23.7225C13.3018 25.0967 13.3488 26.4778 13.6431 27.8337C13.782 28.4001 13.9557 28.9573 14.163 29.5023Z" fill="#E5BE9A"/>
<path d="M9.78729 42.8978C10.3141 42.3561 10.8409 41.8167 11.3654 41.2739C11.4799 41.1525 11.6288 41.0517 11.6929 40.8845C12.4751 41.5613 12.4751 41.5613 11.7651 42.2713C11.3906 42.6458 11.0115 43.0146 10.6462 43.3982C10.4973 43.5551 10.3908 43.5723 10.2488 43.3982C10.1068 43.2241 9.94189 43.0638 9.78729 42.8978Z" fill="#E0EAF7"/>
<path d="M23.3476 22.4571C23.4782 22.5498 23.3832 22.622 23.3305 22.7044C22.7178 23.663 22.1097 24.6226 21.4982 25.58C21.2256 26.0049 20.811 26.3026 20.4755 26.668C20.4102 26.7378 20.3346 26.7653 20.2648 26.668L21.8108 23.9493C22.175 23.3011 22.6502 22.764 23.3476 22.4571Z" fill="#DDB28A"/>
<path d="M18.2983 3.39636C18.2765 2.68634 18.6911 2.20078 19.3175 2.20078C19.944 2.20078 20.3574 2.68634 20.3368 3.39636H18.2983Z" fill="#EECE6C"/>
<path d="M18.2985 3.39633H20.337C20.3874 4.24149 20.3874 4.24034 19.5731 4.22202C19.4036 4.22202 19.2296 4.22202 19.0635 4.22202C18.2481 4.24034 18.2481 4.24149 18.2985 3.39633Z" fill="#E5B554"/>
<path d="M6.36772 36.8018C6.47749 36.8303 6.58165 36.8772 6.67577 36.9404C6.94678 37.1689 7.19879 37.419 7.42932 37.6882C7.52483 37.8116 7.57154 37.9658 7.56052 38.1214C7.54951 38.2771 7.48154 38.4232 7.36961 38.5318C7.25767 38.6405 7.10962 38.7041 6.95374 38.7105C6.79787 38.717 6.64509 38.6657 6.52461 38.5666C6.26611 38.344 6.02492 38.102 5.80313 37.8428C5.72162 37.7519 5.67132 37.6373 5.65958 37.5157C5.64783 37.3942 5.67526 37.272 5.73786 37.1672C5.85925 36.9267 6.06653 36.8282 6.36772 36.8018Z" fill="#030303"/>
</svg>
