<svg width="40" height="41" viewBox="0 0 40 41" fill="none" xmlns="http://www.w3.org/2000/svg">
<g clip-path="url(#clip0_18_179)">
<path d="M40 18.9039V22.1079C39.875 22.1506 39.9271 22.2574 39.9166 22.3428C39.7812 23.6031 39.552 24.8419 39.2185 26.0701C37.093 33.845 30.5809 39.6869 22.8393 40.787C22.3391 40.8617 21.8182 40.8404 21.3285 41.0006H20.7867C20.2761 40.8724 19.7343 40.8724 19.2238 41.0006H18.5152C18.4944 40.9151 18.4215 40.9258 18.3694 40.9151C15.3165 40.6588 12.3574 39.6869 9.7317 38.0743C9.56499 37.9675 9.4608 37.9995 9.31493 38.0956C8.84605 38.416 8.37718 38.7257 7.90831 39.0355C7.14769 39.5267 6.29331 39.452 5.65772 38.8005C4.46991 37.6044 3.29252 36.3975 2.12555 35.18C1.51081 34.5392 1.43787 33.6635 1.89633 32.9052C2.18807 32.4353 2.47981 31.9547 2.79239 31.5062C2.93827 31.2926 2.91743 31.143 2.79239 30.9401C1.45871 28.6546 0.583485 26.1235 0.208388 23.4963C0.145871 23.0584 0.177129 22.5991 0 22.1826V18.8185C0.125033 18.7758 0.0729357 18.669 0.083355 18.5835C0.354259 15.6786 1.22949 12.8698 2.62568 10.3387C2.87575 9.87943 3.15707 9.63379 3.67804 9.78331C3.94894 10.1357 3.99062 10.4882 3.7093 10.8727C3.54259 11.129 3.39672 11.396 3.27169 11.6736C1.48997 15.2728 0.823131 19.0748 1.3441 23.0797C1.67752 25.7711 2.58401 28.3449 3.99062 30.6411C4.25111 31.0683 4.27195 31.4314 3.9802 31.8479C3.61553 32.3819 3.27169 32.9373 2.93827 33.4819C2.76114 33.7596 2.70904 34.0586 2.96952 34.3256C4.14691 35.5431 5.33472 36.7606 6.52253 37.9782C6.68924 38.1704 6.96015 38.2131 7.16853 38.085C7.37692 37.9782 7.59573 37.882 7.7416 37.6791C8.13754 37.5082 8.50221 37.2733 8.83563 36.9849C9.33576 36.5898 9.74212 36.6645 10.2527 36.9849C13.1701 38.8432 16.3793 39.719 19.7968 39.7937C21.4014 39.8258 22.9956 39.6442 24.5481 39.2277C29.8724 37.7966 33.8838 34.614 36.5199 29.6585C38.4579 25.9953 39.1873 22.0865 38.6663 17.9534C38.3225 15.2514 37.4056 12.6562 35.9781 10.3493C35.7176 9.92215 35.7072 9.59107 35.9885 9.18524C36.3636 8.65124 36.6866 8.09589 37.0305 7.55122C37.2805 7.15606 37.2597 6.93178 36.9367 6.59003C35.8218 5.4366 34.6965 4.29386 33.5712 3.14043C33.2482 2.80936 33.0086 2.79868 32.6022 3.06567C32.0292 3.43947 31.4665 3.81326 30.8935 4.19774C30.633 4.38998 30.2787 4.40066 30.0182 4.19774C26.5382 1.94429 22.4329 0.929699 18.3277 1.30349C17.3274 1.37825 16.348 1.57049 15.3894 1.85885C14.6705 1.97633 13.9932 2.23264 13.3055 2.49964C10.2943 3.66374 7.61657 5.60748 5.55353 8.14929C5.23053 8.53376 4.95962 8.92892 4.37614 8.73668C4.19901 8.38425 4.0844 8.06385 4.38656 7.69005C7.72076 3.53559 11.9823 1.05786 17.1503 0.235508C17.6296 0.160749 18.1297 0.203468 18.5882 0.0112305H19.13C19.6405 0.139389 20.1823 0.139389 20.6929 0.0112305H21.2347C21.2555 0.0966694 21.3285 0.0859895 21.391 0.0859895C22.1412 0.128709 22.8914 0.224828 23.6312 0.374346C25.9443 0.81222 28.174 1.66661 30.1849 2.90547C30.3621 3.01227 30.4871 3.02295 30.6642 2.89479C31.1123 2.5744 31.5707 2.27536 32.0396 1.97633C32.821 1.47437 33.665 1.54913 34.3214 2.21128C35.4884 3.39675 36.645 4.58221 37.8015 5.77836C38.4683 6.47255 38.5413 7.31626 38.0307 8.14929C37.7494 8.59784 37.4785 9.05708 37.1763 9.48427C37.0201 9.70855 37.0409 9.85807 37.1659 10.0823C38.4996 12.3572 39.3853 14.8776 39.7708 17.5048C39.8541 17.9748 39.8229 18.4554 40 18.9039Z" fill="#020203"/>
<path d="M20.7032 0.0107422C20.1927 0.138901 19.6509 0.138901 19.1403 0.0107422H20.7032Z" fill="#4F5458"/>
<path d="M19.2134 41C19.7239 40.8719 20.2657 40.8719 20.7763 41H19.2134Z" fill="#4F5458"/>
<path d="M15.3894 1.85837C16.348 1.57002 17.3378 1.37778 18.3277 1.30302C22.4225 0.929224 26.5381 1.94381 30.0182 4.19726C30.2787 4.3895 30.6329 4.3895 30.8934 4.19726C31.4665 3.82347 32.0291 3.43899 32.6022 3.0652C33.0086 2.7982 33.2482 2.80888 33.5712 3.13996C34.6965 4.29338 35.8218 5.43613 36.9367 6.58955C37.2597 6.92063 37.2805 7.14491 37.0304 7.55074C36.6866 8.09541 36.3532 8.66145 35.9885 9.18476C35.7072 9.5906 35.7176 9.93235 35.9781 10.3489C37.4055 12.645 38.3225 15.2402 38.6663 17.9422C39.1873 22.0754 38.4683 25.9842 36.5199 29.6367C33.8838 34.5922 29.8723 37.7748 24.548 39.2059C22.9955 39.6224 21.4014 39.8039 19.7968 39.7719C16.3792 39.6971 13.1701 38.8107 10.2526 36.9631C9.74209 36.6427 9.33573 36.5679 8.8356 36.9631C8.5126 37.2514 8.1375 37.4757 7.74157 37.6573C7.69989 37.5078 7.57486 37.4223 7.47066 37.3262C6.67879 36.5145 5.89734 35.7135 5.10546 34.9019C4.4803 34.2611 4.43862 33.8125 4.92833 33.0329C5.27217 32.4882 5.60559 31.9329 5.93901 31.3882C6.01195 31.4523 6.07446 31.5164 6.12656 31.5804C7.88744 33.9087 10.0963 35.6601 12.6908 36.899C13.2013 37.1446 13.3264 37.1233 13.7223 36.7281L14.9935 37.166C15.0143 37.6252 15.1706 37.8495 15.5665 37.9456C17.9109 38.533 20.2761 38.6932 22.6725 38.2874C27.455 37.4864 31.2998 35.0834 34.1443 31.0998C36.9158 27.2231 37.9682 22.8443 37.3743 18.0704C37.1034 15.881 36.4157 13.7771 35.3738 11.844C33.6337 8.62941 31.1852 6.15168 27.9968 4.47494C24.871 2.80888 21.3284 2.15741 17.8379 2.61664C15.952 2.8516 14.1182 3.39627 12.399 4.2293C10.8049 5.01961 9.32531 6.04488 8.02289 7.27306C7.87702 7.10219 8.06457 7.03811 8.1375 6.96335C8.75225 6.3012 9.40867 5.68176 10.0963 5.10505C11.5655 3.86619 13.2117 2.86228 14.9726 2.11469C15.1289 2.06129 15.3477 2.07197 15.3894 1.85837Z" fill="#4F5458"/>
<path d="M5.93905 31.3775C5.60563 31.9221 5.27221 32.4775 4.92837 33.0222C4.43866 33.8018 4.48033 34.2504 5.1055 34.8912C5.89737 35.7028 6.68924 36.5145 7.47069 37.3262C7.57489 37.433 7.6895 37.5077 7.7416 37.6572C7.59573 37.8602 7.37692 37.9563 7.16853 38.0631C6.96015 38.1912 6.68924 38.1485 6.52253 37.9563C5.33472 36.7388 4.14691 35.5319 2.96952 34.3144C2.71946 34.0474 2.76114 33.7591 2.93826 33.4707C3.2821 32.9261 3.61552 32.36 3.9802 31.8367C4.27195 31.4202 4.26153 31.0678 3.99062 30.6299C2.58401 28.3337 1.67752 25.7599 1.3441 23.0685C0.83355 19.0636 1.50039 15.2616 3.27169 11.6518C3.39672 11.3741 3.54259 11.1071 3.7093 10.8508C4.00104 10.4663 3.94894 10.1245 3.67804 9.76143C3.85517 9.37696 4.09482 9.02452 4.38656 8.71481C4.97004 8.90704 5.24095 8.51189 5.56395 8.11673C7.62699 5.57493 10.3048 3.63119 13.316 2.46709C13.9932 2.20009 14.6705 1.94377 15.3998 1.82629C15.3582 2.05057 15.1394 2.02921 15.0039 2.09329C13.243 2.84088 11.6072 3.84479 10.1276 5.08365C9.43996 5.67104 8.78354 6.30116 8.16879 6.96331C8.09586 7.03807 7.89789 7.09147 8.05418 7.27302C8.00208 7.34778 7.93957 7.42254 7.87705 7.48662C6.7726 8.53325 5.81401 9.74007 5.02214 11.0537C3.48007 13.6169 2.59443 16.5325 2.43813 19.5335C2.3652 20.8258 2.43813 22.118 2.65694 23.3889C3.00078 25.4929 3.69888 27.522 4.71998 29.3803C5.08466 30.0852 5.55353 30.7046 5.93905 31.3775Z" fill="#363B41"/>
<path d="M5.9391 31.3775C5.55358 30.694 5.08471 30.0852 4.70961 29.391C3.68851 27.5327 2.99041 25.5036 2.64658 23.3996C2.43819 22.1287 2.36525 20.8365 2.42777 19.5442C2.58406 16.5431 3.46971 13.6275 5.01178 11.0644C5.80365 9.75076 6.76223 8.54393 7.86669 7.49731C7.9292 7.43323 7.99172 7.35847 8.04381 7.28371C9.34624 6.05552 10.8258 5.03026 12.42 4.23995C14.1392 3.40692 15.973 2.86224 17.8589 2.62729C21.3494 2.16805 24.9024 2.80885 28.0178 4.48558C31.2061 6.16232 33.6547 8.64005 35.3947 11.8547C36.4471 13.7771 37.1243 15.8917 37.3952 18.0811C37.9891 22.8443 36.9368 27.2337 34.1652 31.1105C31.3103 35.0941 27.476 37.497 22.6935 38.298C20.297 38.6932 17.9318 38.533 15.5874 37.9563C15.1915 37.8602 15.0352 37.6359 15.0144 37.1766C15.1915 36.8029 15.4833 36.6747 15.8688 36.7815C15.9625 36.8029 16.0667 36.8242 16.1709 36.8349C18.9842 37.5825 21.9433 37.497 24.7148 36.5999C32.769 34.0368 37.5932 25.9948 36.0824 17.4937C35.1342 12.1324 32.1959 8.1915 27.5281 5.60697C25.4233 4.44286 23.1519 3.85547 20.7763 3.72731C19.2238 3.6312 17.6713 3.79139 16.1709 4.19723C16.0563 4.21859 15.9417 4.22927 15.8271 4.26131C13.3785 4.93414 11.1696 6.07688 9.2733 7.8177C4.83465 11.8974 2.91748 17.0024 3.79271 23.0258C4.65752 28.9318 7.90836 33.1824 13.1597 35.7989C13.712 36.0766 13.7641 36.1514 13.7328 36.7388C13.3369 37.1339 13.2118 37.1553 12.7013 36.9097C10.0964 35.6708 7.89794 33.9193 6.13707 31.5911C6.07455 31.5056 6.01204 31.4416 5.9391 31.3775Z" fill="#020101"/>
<path d="M13.7328 36.7281C13.7745 36.1407 13.7119 36.066 13.1597 35.7883C7.90835 33.1717 4.6575 28.9318 3.79269 23.0152C2.91746 16.9917 4.84505 11.8868 9.27329 7.80706C11.1696 6.06624 13.3785 4.92349 15.8271 4.25066C15.9417 4.21862 16.0563 4.20794 16.1709 4.18658C16.1605 4.3361 16.0355 4.32542 15.9417 4.36814C14.5142 4.97689 13.1806 5.7672 11.9511 6.72839C10.7841 7.64686 9.73174 8.72553 8.83567 9.93235C7.55409 11.6411 6.5955 13.5849 6.02244 15.6568C5.64734 17.0131 5.37644 18.3801 5.39728 19.8005C5.0326 20.2064 5.0326 20.4627 5.39728 20.8579C5.3556 21.4986 5.38686 22.1394 5.48063 22.7695C5.76195 24.8842 6.41838 26.924 7.3978 28.793C8.45015 30.7688 9.85677 32.5309 11.5447 33.962C12.8367 35.0514 14.285 35.9378 15.8375 36.6C15.9521 36.6534 16.1397 36.632 16.1709 36.8242C16.0667 36.8029 15.9729 36.7922 15.8688 36.7708C15.4728 36.664 15.1915 36.7922 15.0144 37.166L13.7328 36.7281Z" fill="#CD3535"/>
<path d="M5.39728 19.8112C5.36602 18.3908 5.64735 17.0238 6.02244 15.6674C6.59551 13.5956 7.55409 11.6518 8.83568 9.94304C9.73174 8.73622 10.7841 7.65755 11.9511 6.73908C13.1806 5.77789 14.5247 4.98758 15.9521 4.37883C16.0459 4.33611 16.1709 4.34679 16.1813 4.19727C17.6817 3.79144 19.2342 3.63124 20.7763 3.72736C23.1623 3.85552 25.4337 4.43223 27.5385 5.60702C32.2063 8.19154 35.1446 12.1431 36.0928 17.4937C37.6036 25.9949 32.7794 34.0368 24.7252 36.6C21.9537 37.4971 18.9946 37.5825 16.1813 36.8349C16.1501 36.6427 15.9625 36.6534 15.8479 36.6107C14.2954 35.9592 12.8471 35.0728 11.5551 33.9727C9.85678 32.5416 8.45016 30.7795 7.40822 28.8037C6.4288 26.924 5.77238 24.8949 5.49105 22.7802C5.39728 22.1501 5.36602 21.5093 5.4077 20.8685C5.56399 20.9433 5.74112 20.954 5.90783 20.9006C6.54341 20.687 7.16858 20.6763 7.80416 20.9647C8.0959 21.0928 8.3668 20.9647 8.51267 20.6549C8.64813 20.3666 8.53351 20.0462 8.23135 19.8753C8.10632 19.8112 7.97087 19.7472 7.83542 19.7044C7.01228 19.4161 6.19957 19.5229 5.39728 19.8112ZM32.1959 21.4666C31.9146 21.0608 31.4978 20.8579 31.0706 20.6549C31.1019 20.0889 30.9352 19.8967 30.3413 19.8006C27.9969 19.3947 25.7776 21.0074 25.3817 23.4104C24.9857 25.8133 26.559 28.0881 28.9034 28.494C31.2478 28.8998 33.4671 27.2871 33.863 24.8842C34.0506 23.7841 33.8109 22.6414 33.2066 21.7123C32.9044 21.253 32.6752 21.1996 32.1959 21.4666ZM11.5343 18.786C13.8995 18.7433 15.7854 16.7354 15.7437 14.3004C15.702 11.9188 13.8161 10.0178 11.503 9.98576C9.13784 9.99644 7.19983 11.9936 7.22067 14.3965C7.23109 16.8316 9.17952 18.7967 11.5343 18.786ZM12.795 26.2939C13.2743 26.2939 13.764 26.2192 14.2225 26.0696C14.6289 25.9308 14.7747 25.6318 14.6393 25.2259C13.6598 22.353 11.2009 21.6909 8.92945 22.3958C8.52309 22.5239 8.39806 22.8336 8.52309 23.2395C9.13784 25.1832 10.6799 26.3153 12.795 26.2939ZM23.4436 8.72554C23.4436 8.18086 23.3603 7.63619 23.1936 7.12356C23.0581 6.68568 22.756 6.52549 22.3392 6.69636C19.4634 7.82843 19.0154 10.4557 19.7656 12.6557C19.8906 13.0295 20.1824 13.1363 20.5575 13.0082C22.36 12.3781 23.4541 10.8081 23.4436 8.72554ZM25.2358 29.9357C25.2879 27.5755 23.5478 26.123 21.9016 25.6211C21.5473 25.5143 21.266 25.6745 21.1722 26.0269C20.9951 26.6464 20.8909 27.2765 20.9743 27.9173C21.2139 29.7542 22.4955 31.2601 24.2355 31.762C24.6315 31.8795 24.9336 31.7193 25.0482 31.3028C25.1733 30.8649 25.2462 30.4057 25.2358 29.9357ZM20.4012 20.5481C20.4116 19.3627 19.4739 18.3908 18.3173 18.3801C18.3173 18.3801 18.3173 18.3801 18.3069 18.3801C17.1399 18.3801 16.1918 19.3413 16.1918 20.5375C16.1918 21.7336 17.1295 22.7055 18.2965 22.7055C19.453 22.7162 20.4012 21.7657 20.4012 20.5802C20.4012 20.5695 20.4012 20.5588 20.4012 20.5481ZM28.9138 13.9907C28.9347 12.9868 28.1428 12.1538 27.1634 12.1431C27.1425 12.1431 27.1321 12.1431 27.1113 12.1431C26.1214 12.1751 25.34 13.0188 25.3608 14.0334C25.3921 15.016 26.1631 15.8063 27.1217 15.8276C28.1115 15.817 28.9138 15.0053 28.9138 13.9907ZM17.2024 31.1105C17.2129 30.0959 16.421 29.2736 15.4311 29.2629C14.4309 29.2736 13.6182 30.0959 13.6182 31.1212C13.639 32.1358 14.4413 32.9368 15.4311 32.9368C16.4001 32.9475 17.2024 32.1465 17.2129 31.1426C17.2024 31.1426 17.2024 31.1212 17.2024 31.1105ZM18.0151 12.7091C17.9839 12.5916 17.9526 12.4635 17.9214 12.3353C17.5567 11.1178 16.869 10.0285 15.9313 9.19545C15.1081 8.44786 14.1183 7.93523 13.0451 7.68959C12.67 7.60415 12.4095 7.77503 12.3157 8.10611C12.222 8.43718 12.3991 8.70418 12.7534 8.83234C12.8159 8.8537 12.8784 8.87506 12.9409 8.88574C14.8581 9.45177 16.1292 10.712 16.7857 12.6344C16.8169 12.7732 16.869 12.912 16.9315 13.0402C17.0566 13.2858 17.3483 13.4033 17.6088 13.2965C17.8797 13.2111 17.9943 13.0082 18.0151 12.7091ZM28.3616 18.1772C28.372 17.6753 28.0386 17.4083 27.6218 17.4937C25.3921 17.9957 23.2353 20.3025 22.8393 22.5987C22.7768 22.9404 22.9123 23.1754 23.2248 23.2929C23.5166 23.4104 23.8396 23.2608 23.9438 22.9618C23.9438 22.9511 23.9438 22.9511 23.9542 22.9404C23.9959 22.823 24.0271 22.7162 24.048 22.5987C24.2355 21.9152 24.5377 21.2744 24.9649 20.719C25.6734 19.7472 26.6632 19.0423 27.7989 18.7005C28.1115 18.6044 28.3512 18.4656 28.3616 18.1772ZM27.2467 8.73622C26.8299 8.7469 26.4132 8.82166 26.0172 8.97117C25.663 9.11001 25.4963 9.38769 25.59 9.70809C25.6942 10.0712 25.9964 10.2314 26.3923 10.1032C26.9967 9.92168 27.5801 9.87896 28.174 10.1566C28.4554 10.3062 28.7888 10.1887 28.9347 9.911C28.9451 9.88964 28.9555 9.87896 28.9555 9.8576C29.0805 9.54789 28.9555 9.22749 28.6325 9.06729C28.1949 8.8537 27.726 8.73622 27.2467 8.73622ZM19.8281 32.9154C19.453 32.9368 19.0883 33.0116 18.7341 33.1504C18.3798 33.2892 18.234 33.5776 18.3382 33.898C18.4423 34.2184 18.7237 34.3893 19.0779 34.2825C19.7031 34.0902 20.3178 34.0475 20.9326 34.3359C21.2139 34.464 21.5473 34.3465 21.6828 34.0475C21.6828 34.0475 21.6828 34.0368 21.6932 34.0368C21.8182 33.7271 21.7036 33.396 21.3806 33.2358C20.943 33.0116 20.4741 32.9154 19.8281 32.9154ZM13.6807 20.2705C13.6911 19.9501 13.4515 19.6831 13.1389 19.6617C13.1389 19.6617 13.1389 19.6617 13.1285 19.6617C12.8055 19.6404 12.5346 19.886 12.5033 20.2171C12.472 20.5481 12.7221 20.8258 13.0451 20.8579C13.0659 20.8579 13.0868 20.8579 13.1076 20.8579C13.4306 20.8579 13.6807 20.6015 13.6807 20.2705C13.6807 20.2812 13.6807 20.2812 13.6807 20.2705ZM19.3072 15.2937C19.3072 14.9733 19.0571 14.7063 18.7445 14.7063C18.4215 14.6956 18.161 14.9626 18.1506 15.283C18.1402 15.6141 18.4007 15.881 18.7132 15.8917C18.7237 15.8917 18.7445 15.8917 18.7549 15.8917C19.0779 15.881 19.3176 15.6141 19.3072 15.2937ZM18.0568 25.3007C18.0568 24.9803 17.8068 24.7133 17.4942 24.7133C17.1712 24.7133 16.9107 24.9696 16.9003 25.3007C16.8899 25.6318 17.1503 25.8988 17.4733 25.9094C17.7859 25.9201 18.0464 25.6638 18.0568 25.3434C18.0568 25.3221 18.0568 25.3114 18.0568 25.3007ZM8.66897 29.0173C8.97113 29.028 9.22119 28.7823 9.23161 28.4726C9.23161 28.4619 9.23161 28.4512 9.23161 28.4406C9.24203 28.1202 8.99197 27.8532 8.67939 27.8425C8.66897 27.8425 8.65855 27.8425 8.64813 27.8425C8.33555 27.8532 8.08548 28.1095 8.07506 28.4299C8.07506 28.7503 8.34596 29.0173 8.66897 29.0173ZM32.5085 12.912C32.5189 12.5916 32.2793 12.3247 31.9667 12.314C31.6437 12.2926 31.3728 12.5489 31.352 12.88C31.3311 13.2111 31.5812 13.4888 31.9042 13.5101C31.9146 13.5101 31.9354 13.5101 31.9459 13.5101C32.2584 13.4888 32.5085 13.2324 32.5085 12.912ZM28.4762 31.9756C28.7784 31.997 29.0493 31.762 29.0701 31.4416C29.0701 31.4309 29.0701 31.4309 29.0701 31.4203C29.091 31.0999 28.8513 30.8115 28.5387 30.7901C28.5283 30.7901 28.5179 30.7901 28.5179 30.7901C28.1949 30.7901 27.924 31.0571 27.9136 31.3882C27.9136 31.7086 28.1636 31.9649 28.4762 31.9756ZM23.1206 16.5432C22.7976 16.5218 22.5267 16.7782 22.5059 17.1092C22.4851 17.4403 22.7351 17.718 23.0581 17.7393C23.0685 17.7393 23.0894 17.7393 23.0998 17.7393C23.4228 17.7287 23.6729 17.4617 23.6625 17.1306C23.6625 16.8209 23.4228 16.5646 23.1206 16.5432ZM16.6606 6.9954C16.6815 6.68568 16.4522 6.41869 16.1501 6.39733C16.1397 6.39733 16.1292 6.39733 16.1188 6.39733C15.7958 6.37597 15.5145 6.6216 15.4937 6.95268V6.96336C15.4937 7.29444 15.7541 7.57211 16.0876 7.58279C16.4001 7.57211 16.6502 7.3158 16.6606 6.9954ZM32.9044 17.6859C32.9044 17.3762 32.6648 17.1199 32.3522 17.1199C32.3418 17.1199 32.3314 17.1199 32.321 17.1199C31.998 17.1199 31.7375 17.3869 31.7271 17.718C31.7271 17.718 31.7271 17.718 31.7271 17.7287C31.7479 18.0491 31.998 18.2947 32.3105 18.3054C32.6231 18.3054 32.8836 18.0491 32.8836 17.7287C32.894 17.7073 32.894 17.6966 32.9044 17.6859Z" fill="#E74341"/>
<path d="M5.39728 19.8112C6.19957 19.5229 7.01228 19.4161 7.83542 19.7044C7.97087 19.7471 8.10632 19.8005 8.23135 19.8753C8.53351 20.0462 8.64813 20.3666 8.51268 20.6549C8.3668 20.9646 8.08548 21.0928 7.80416 20.9646C7.16858 20.687 6.55383 20.687 5.90783 20.9006C5.74112 20.9433 5.56399 20.9326 5.4077 20.8685C5.0326 20.4734 5.0326 20.2171 5.39728 19.8112Z" fill="#040201"/>
<path d="M11.5343 18.7859C9.17951 18.8073 7.24151 16.8315 7.21025 14.4072C7.18941 12.0042 9.12742 10.0071 11.4926 9.9964C13.8578 10.0178 15.7646 12.0149 15.7437 14.4392C15.7125 16.8102 13.8474 18.7432 11.5343 18.7859ZM11.6385 11.2246C9.90887 11.0644 8.35638 12.5916 8.37722 14.4285C8.39806 16.2334 9.92971 17.6966 11.6385 17.5471C11.7844 17.5577 11.9198 17.5471 12.0657 17.5364C13.7328 17.2587 14.9102 15.5072 14.5768 13.8091C14.2954 12.2926 13.0138 11.1712 11.6385 11.2246Z" fill="#030101"/>
<path d="M32.1959 21.4666C32.6856 21.1996 32.9044 21.253 33.2066 21.7122C34.509 23.7414 33.9568 26.4648 31.9875 27.7997C30.0078 29.1347 27.3509 28.5687 26.0485 26.5502C24.7461 24.5317 25.2983 21.7977 27.2675 20.4627C28.174 19.8539 29.2681 19.619 30.3413 19.8005C30.9352 19.8966 31.1019 20.0996 31.0706 20.6549C30.8727 20.986 30.6018 21.1248 30.2267 21.0074C30.0704 20.986 29.9245 20.9753 29.7682 20.986C28.5491 20.9006 27.6218 21.4345 26.9862 22.4705C26.3194 23.5705 26.3194 24.7239 26.9862 25.824C27.6114 26.8492 28.5387 27.3939 29.7682 27.3085C29.9662 27.3298 30.1537 27.3085 30.3413 27.2551C32.4564 26.6997 33.4046 24.3074 32.248 22.4171C32.05 22.086 31.9563 21.7977 32.1959 21.4666Z" fill="#040201"/>
<path d="M29.7577 20.986C29.914 20.9753 30.0703 20.986 30.2162 21.0073C30.6017 21.1248 30.8622 20.9967 31.0602 20.6549C31.4874 20.8471 31.9041 21.0607 32.1855 21.4666C31.9458 21.7977 32.0396 22.0967 32.2375 22.4171C33.3941 24.3181 32.4459 26.7104 30.3308 27.2551C30.1433 27.3085 29.9453 27.3298 29.7577 27.3085C29.7473 27.2123 29.6952 27.1269 29.6223 27.0842C28.0385 25.7706 27.7989 23.389 29.0805 21.7763C29.2368 21.5734 29.4243 21.3918 29.6223 21.2209C29.7056 21.1675 29.7577 21.0821 29.7577 20.986Z" fill="#C07641"/>
<path d="M12.795 26.2939C10.6903 26.3152 9.14819 25.1832 8.52302 23.2501C8.38757 22.8443 8.52302 22.5239 8.92938 22.4064C11.2008 21.7015 13.6494 22.3637 14.6392 25.2366C14.7747 25.6424 14.6392 25.9414 14.2224 26.0803C13.7536 26.2191 13.2743 26.2939 12.795 26.2939ZM9.91922 23.421C10.3152 24.6171 11.7947 25.3327 13.2326 25.023C12.7429 23.7841 11.2946 23.0792 9.91922 23.421Z" fill="#040201"/>
<path d="M23.4436 8.72549C23.4436 10.8081 22.36 12.378 20.547 13.0081C20.1824 13.1363 19.8802 13.0295 19.7552 12.6557C19.0154 10.4556 19.4634 7.8177 22.3287 6.69631C22.7351 6.53611 23.0477 6.69631 23.1831 7.12351C23.3603 7.63614 23.4436 8.18081 23.4436 8.72549ZM22.2558 8.85364C22.2558 8.72549 22.2662 8.58665 22.2558 8.45849C22.2454 8.34101 22.2975 8.18081 22.1725 8.13809C22.0474 8.09537 21.9641 8.21285 21.8703 8.27693C20.8284 9.01384 20.5158 10.0711 20.6304 11.31C20.6512 11.5557 20.7346 11.5984 20.943 11.4595C21.8599 10.8294 22.2871 9.96435 22.2558 8.85364Z" fill="#030101"/>
<path d="M25.2461 29.9357C25.2461 30.3949 25.1836 30.8542 25.0586 31.3027C24.9544 31.7192 24.6522 31.8794 24.2459 31.762C22.5058 31.26 21.2242 29.7542 20.9846 27.9172C20.9012 27.2764 21.0159 26.6463 21.1826 26.0269C21.2868 25.6744 21.5577 25.5142 21.9119 25.621C23.5582 26.123 25.2982 27.5861 25.2461 29.9357ZM24.0479 30.3415C24.2146 28.9104 23.6415 27.8959 22.485 27.1803C22.2037 27.0094 22.1411 27.0949 22.1307 27.3939C22.0578 28.6221 22.8601 29.861 24.0479 30.3415Z" fill="#030101"/>
<path d="M20.4011 20.5481C20.4011 21.7336 19.4738 22.6948 18.3173 22.7055C18.3068 22.7055 18.3068 22.7055 18.2964 22.7055C17.1295 22.7055 16.1917 21.7336 16.1917 20.5375C16.1917 19.3413 17.1399 18.3801 18.3068 18.3801C19.4738 18.3908 20.4011 19.352 20.4011 20.5481ZM19.2342 20.5375C19.2342 20.0141 18.8278 19.5976 18.3173 19.5976C18.3068 19.5976 18.2964 19.5976 18.286 19.5976C17.7755 19.5976 17.3587 20.0355 17.3691 20.5588C17.3795 21.0821 17.7963 21.5093 18.3068 21.4986C18.8174 21.5093 19.2342 21.0821 19.2342 20.5695C19.2342 20.5588 19.2342 20.5481 19.2342 20.5375Z" fill="#040202"/>
<path d="M28.9138 13.9907C28.9138 15.0053 28.1115 15.817 27.1216 15.817C26.1318 15.7956 25.3399 14.9519 25.3608 13.9373C25.3816 12.9548 26.1526 12.1645 27.1112 12.1324C28.0906 12.1217 28.9033 12.9227 28.9138 13.9266C28.9138 13.9587 28.9138 13.9694 28.9138 13.9907ZM27.132 14.6102C27.4759 14.6102 27.7468 14.3218 27.7468 13.98C27.7468 13.6276 27.4655 13.3499 27.132 13.3499C26.7882 13.3499 26.5173 13.6383 26.5173 13.98C26.5069 14.3325 26.7882 14.6102 27.132 14.6102Z" fill="#040202"/>
<path d="M17.2024 31.1105C17.2129 32.1037 16.4314 32.9261 15.4624 32.9368C15.452 32.9368 15.4416 32.9368 15.4311 32.9368C14.4413 32.9368 13.639 32.1358 13.6182 31.1212C13.6286 30.0959 14.4309 29.2629 15.4311 29.2522C16.4106 29.2736 17.2129 30.1066 17.2024 31.1105ZM16.025 31.0998C16.025 30.7581 15.7541 30.4804 15.4207 30.4804C15.4103 30.4804 15.4103 30.4804 15.3999 30.4804C15.056 30.4697 14.7747 30.7474 14.7643 31.0998C14.7539 31.4523 15.0248 31.7406 15.3686 31.7513C15.379 31.7513 15.3999 31.7513 15.4103 31.7513C15.7437 31.7513 16.0146 31.4736 16.0146 31.1212C16.025 31.1105 16.025 31.1105 16.025 31.0998Z" fill="#040202"/>
<path d="M18.0151 12.7091C17.9943 12.9975 17.8692 13.2111 17.6087 13.2965C17.3587 13.4033 17.0669 13.2965 16.9315 13.0402C16.869 12.912 16.8169 12.7732 16.7856 12.6344C16.1292 10.712 14.858 9.45176 12.9409 8.88573C12.8783 8.86437 12.8158 8.85369 12.7533 8.83233C12.399 8.70417 12.2323 8.42649 12.3157 8.1061C12.399 7.7857 12.67 7.60414 13.045 7.68958C14.1182 7.93522 15.1081 8.44785 15.9312 9.19544C16.869 10.0285 17.5566 11.1285 17.9213 12.346C17.963 12.4635 17.9838 12.5916 18.0151 12.7091Z" fill="#040201"/>
<path d="M28.3616 18.1879C28.3511 18.4655 28.1115 18.6151 27.7989 18.7112C26.6632 19.0529 25.6734 19.7578 24.9649 20.7297C24.5481 21.2957 24.2355 21.9365 24.0584 22.6093C24.0271 22.7268 23.9958 22.8443 23.9646 22.9511C23.8604 23.2501 23.5478 23.4103 23.2561 23.3035C23.2457 23.3035 23.2457 23.3035 23.2352 23.2928C22.9331 23.1754 22.7976 22.9404 22.8497 22.5986C23.2457 20.3025 25.4025 18.0063 27.6322 17.4937C28.0386 17.4189 28.372 17.6859 28.3616 18.1879Z" fill="#040201"/>
<path d="M27.2467 8.73621C27.726 8.73621 28.1949 8.843 28.6221 9.0566C28.9451 9.22748 29.0701 9.5372 28.9451 9.84691C28.8304 10.1459 28.497 10.2848 28.2157 10.1673C28.1949 10.1566 28.1844 10.1566 28.1636 10.1459C27.5697 9.86827 26.9862 9.90031 26.3819 10.0925C25.9859 10.21 25.6838 10.0605 25.5796 9.69739C25.4858 9.377 25.6525 9.09932 26.0068 8.96048C26.4131 8.82164 26.8299 8.74689 27.2467 8.73621Z" fill="#040202"/>
<path d="M19.8281 32.9154C20.4845 32.9154 20.9429 33.0115 21.3805 33.2358C21.7035 33.396 21.8182 33.7271 21.6931 34.0368C21.5681 34.3358 21.2347 34.464 20.9533 34.3358C20.9533 34.3358 20.9429 34.3358 20.9429 34.3251C20.3282 34.0368 19.7134 34.0795 19.0883 34.2717C18.734 34.3785 18.4527 34.2183 18.3485 33.8873C18.2443 33.5562 18.3902 33.2678 18.7444 33.1397C19.0883 33.0222 19.453 32.9368 19.8281 32.9154Z" fill="#040201"/>
<path d="M13.6807 20.2704C13.6807 20.5908 13.441 20.8471 13.1284 20.8578H13.118C12.795 20.8685 12.5241 20.6122 12.5137 20.2918C12.5033 19.9607 12.7533 19.683 13.0659 19.6724C13.0867 19.6724 13.1076 19.6724 13.1284 19.6724C13.4514 19.683 13.6911 19.95 13.6807 20.2704Z" fill="#040202"/>
<path d="M19.3071 15.2936C19.3175 15.614 19.0779 15.881 18.7653 15.8917C18.4423 15.9131 18.1714 15.6567 18.1506 15.3257C18.1297 14.9946 18.3798 14.7169 18.7028 14.6956C18.7132 14.6956 18.7341 14.6956 18.7445 14.6956C19.0571 14.7062 19.3071 14.9732 19.3071 15.2936Z" fill="#040202"/>
<path d="M18.0568 25.3006C18.0672 25.621 17.8275 25.888 17.515 25.9094C17.5045 25.9094 17.4837 25.9094 17.4733 25.9094C17.1503 25.9094 16.9002 25.6317 16.9002 25.3006C16.9002 24.9696 17.1711 24.7133 17.4941 24.7133C17.8067 24.7133 18.0568 24.9696 18.0568 25.3006C18.0568 25.29 18.0568 25.29 18.0568 25.3006Z" fill="#040202"/>
<path d="M8.6689 29.0173C8.3459 29.0279 8.07499 28.761 8.06458 28.4299V28.4192C8.07499 28.0988 8.32506 27.8425 8.63764 27.8318C8.95022 27.8211 9.21071 28.0774 9.22113 28.3978C9.22113 28.4085 9.22113 28.4192 9.22113 28.4406C9.23155 28.7503 8.9919 29.0066 8.68974 29.0173C8.70016 29.0173 8.67932 29.0173 8.6689 29.0173Z" fill="#040202"/>
<path d="M32.5085 12.912C32.5085 13.2324 32.2584 13.4994 31.9458 13.4994C31.6228 13.5101 31.3623 13.2431 31.3519 12.912C31.3415 12.581 31.602 12.314 31.925 12.3033C31.9354 12.3033 31.9562 12.3033 31.9667 12.3033C32.2792 12.314 32.5189 12.581 32.5085 12.912Z" fill="#040202"/>
<path d="M28.4761 31.9756C28.1636 31.9649 27.9135 31.7086 27.9031 31.3882C27.9135 31.0571 28.1844 30.7901 28.5074 30.7901C28.8304 30.8008 29.0805 31.0678 29.07 31.3989C29.07 31.4095 29.07 31.4202 29.07 31.4202C29.0596 31.7299 28.8096 31.9862 28.497 31.9756C28.497 31.9756 28.4866 31.9756 28.4761 31.9756Z" fill="#040202"/>
<path d="M23.1206 16.5432C23.4436 16.5646 23.6833 16.8423 23.6728 17.1733C23.652 17.483 23.4124 17.7287 23.1102 17.7394C22.7872 17.75 22.5267 17.483 22.5163 17.1626C22.5059 16.8422 22.7664 16.5646 23.0789 16.5539C23.0894 16.5432 23.0998 16.5432 23.1206 16.5432Z" fill="#040202"/>
<path d="M16.6502 6.99537C16.6502 7.31577 16.3897 7.57209 16.0771 7.57209C15.7541 7.56141 15.4936 7.29441 15.4832 6.95265C15.5041 6.62158 15.775 6.36526 16.098 6.38662H16.1084C16.4105 6.3973 16.6502 6.65362 16.6502 6.96333C16.6502 6.97401 16.6502 6.98469 16.6502 6.99537Z" fill="#040202"/>
<path d="M32.894 17.686C32.9149 18.0063 32.6752 18.284 32.3522 18.2947C32.3418 18.2947 32.3314 18.2947 32.3105 18.2947C31.998 18.284 31.7479 18.0384 31.7271 17.718C31.7271 17.3869 31.9875 17.1092 32.3105 17.1092C32.3105 17.1092 32.3105 17.1092 32.321 17.1092C32.6231 17.0986 32.8836 17.3335 32.894 17.6539C32.894 17.6646 32.894 17.6753 32.894 17.686Z" fill="#040202"/>
<path d="M11.6384 11.2246C13.0138 11.1818 14.2954 12.3032 14.5767 13.8091C14.8997 15.5072 13.7223 17.2587 12.0552 17.5364C11.9093 17.547 11.7739 17.5577 11.628 17.547C11.6176 17.4509 11.5759 17.3655 11.4926 17.3228C9.95049 16.0198 9.69001 13.6916 10.9091 12.0683C11.1383 11.7586 11.4717 11.5663 11.6384 11.2246Z" fill="#C07641"/>
<path d="M11.6385 11.2246C11.4717 11.5771 11.1383 11.7693 10.9091 12.0684C9.69003 13.6917 9.95052 16.0199 11.5134 17.3122C11.5864 17.3656 11.6385 17.451 11.6489 17.5364C9.9401 17.6753 8.40845 16.2121 8.38761 14.4072C8.35635 12.581 9.90884 11.0644 11.6385 11.2246Z" fill="#A66639"/>
<path d="M29.7578 20.9861C29.7473 21.0822 29.7057 21.1676 29.6223 21.2103C28.0386 22.524 27.7989 24.9056 29.0805 26.5182C29.2368 26.7211 29.4243 26.9027 29.6223 27.0736C29.6952 27.127 29.7473 27.2124 29.7578 27.2979C28.5387 27.3833 27.6114 26.8493 26.9758 25.8134C26.3089 24.7133 26.3089 23.5492 26.9758 22.4599C27.6114 21.4346 28.5387 20.9006 29.7578 20.9861Z" fill="#A66639"/>
<path d="M9.91925 23.421C11.2946 23.0792 12.7429 23.7841 13.2326 25.023C11.8052 25.3327 10.3256 24.6171 9.91925 23.421Z" fill="#9CD44A"/>
<path d="M22.2662 8.85369C22.287 9.95371 21.8599 10.8295 20.9534 11.4596C20.745 11.6091 20.6616 11.5557 20.6408 11.3101C20.5262 10.0712 20.8388 9.01388 21.8807 8.27697C21.9745 8.21289 22.0682 8.08474 22.1829 8.13813C22.2975 8.19153 22.2558 8.35173 22.2662 8.45853C22.2766 8.58669 22.2662 8.72553 22.2662 8.85369Z" fill="#9CD44A"/>
<path d="M24.0479 30.3416C22.8601 29.8717 22.0683 28.6221 22.1308 27.394C22.1412 27.0949 22.2141 27.0095 22.485 27.1804C23.6416 27.8959 24.2146 28.8998 24.0479 30.3416Z" fill="#9CD44A"/>
<path d="M19.2342 20.5374C19.2446 21.0607 18.8383 21.4879 18.3381 21.4986C18.3277 21.4986 18.3173 21.4986 18.3069 21.4986C17.7963 21.4986 17.3691 21.0821 17.3691 20.5588C17.3691 20.0355 17.7755 19.5976 18.286 19.5976C18.7966 19.5762 19.2134 19.9927 19.2342 20.5054C19.2342 20.5161 19.2342 20.5267 19.2342 20.5374Z" fill="#FAE5B7"/>
<path d="M27.1321 14.6101C26.7882 14.6101 26.5173 14.3217 26.5173 13.98C26.5173 13.6275 26.7987 13.3499 27.1321 13.3499C27.4655 13.3499 27.7468 13.6382 27.7468 13.98C27.7468 14.3324 27.4655 14.6101 27.1321 14.6101Z" fill="#FAE5B7"/>
<path d="M16.025 31.0998C16.0355 31.4416 15.7646 31.7299 15.4311 31.7406H15.4207C15.0769 31.762 14.7851 31.495 14.7643 31.1426C14.7435 30.7901 15.0039 30.4911 15.3478 30.4697C15.3582 30.4697 15.379 30.4697 15.3895 30.4697C15.7229 30.459 16.0042 30.7367 16.0146 31.0785C16.025 31.0892 16.025 31.0892 16.025 31.0998Z" fill="#FAE5B7"/>
</g>
<defs>
<clipPath id="clip0_18_179">
<rect width="40" height="41" fill="white"/>
</clipPath>
</defs>
</svg>
