<svg width="37" height="45" viewBox="0 0 37 45" fill="none" xmlns="http://www.w3.org/2000/svg">
<path d="M11.2496 44.8168C11.1569 44.6462 10.9668 44.6416 10.8191 44.5752C5.11828 41.9797 1.60869 37.6209 0.29036 31.4987C0.117712 30.7016 0.0207157 29.8899 0.000661876 29.0746C-0.0233842 28.1265 0.609829 27.483 1.56366 27.4715C2.00679 27.4715 2.44993 27.4715 2.92398 27.4715C2.81634 27.1887 2.70184 26.9311 2.62054 26.67C2.41957 26.0512 2.45257 25.3802 2.71329 24.7841C2.82779 24.5173 2.75794 24.4039 2.54955 24.2425C0.660211 22.786 -0.198577 20.844 0.133488 18.4943C0.477003 16.0359 1.90832 14.347 4.25567 13.534C6.10722 12.8939 7.89235 13.1641 9.53894 14.2325C9.63242 14.2999 9.74184 14.342 9.85646 14.3544C9.97108 14.3668 10.087 14.3493 10.1928 14.3035C12.0489 13.708 13.6817 14.2382 15.1566 15.3867C15.4646 15.6271 15.5928 15.6386 15.8058 15.2985C16.1013 14.8013 16.5507 14.4138 17.086 14.1947C17.3963 14.0802 17.3917 13.9325 17.3367 13.6611C16.8306 11.1889 17.3528 8.95721 18.9478 6.99116C19.5055 6.30413 20.1398 6.27321 20.7719 6.9007C21.6364 7.75605 22.4986 8.61828 23.346 9.48394C23.5463 9.69004 23.6528 9.71294 23.8773 9.5034C24.7745 8.673 25.9016 8.13295 27.111 7.95397C28.3203 7.77498 29.5555 7.96542 30.6548 8.50034C31.1838 8.75797 31.2709 8.95034 31.1128 9.52287C30.822 9.85837 30.4968 9.85035 30.1121 9.67516C28.28 8.84156 26.5624 9.04653 24.9593 10.266C24.4853 10.6278 24.4956 10.6359 24.933 11.0675C25.0681 11.2015 25.154 11.332 25.3727 11.1305C27.5723 9.10607 31.2296 10.2065 31.8377 13.3061C31.8789 13.5179 31.9613 13.5649 32.1514 13.5351C32.2644 13.5118 32.3805 13.5076 32.4949 13.5225C32.8064 13.5752 32.8178 13.4195 32.7674 13.179C32.6779 12.6716 32.505 12.1825 32.2556 11.7317C32.0438 11.3778 32.0541 11.0641 32.2957 10.7435C32.8808 10.5145 33.111 10.5969 33.4041 11.1488C33.8001 11.8786 34.0344 12.685 34.0911 13.5134C34.1037 13.7012 34.1197 13.8454 34.3201 13.9714C35.8934 14.8874 36.5701 16.5054 36.1843 18.3226C35.9467 19.4195 35.4237 20.4342 34.6682 21.2642C34.9913 21.4846 35.2975 21.7288 35.5843 21.9948C36.6721 23.1123 36.6835 24.6204 35.6026 25.7494C34.9304 26.4524 34.0808 26.8406 33.1671 27.1177C33.0617 27.1498 32.8739 27.096 32.8945 27.3044C32.9151 27.5128 33.0777 27.4841 33.2209 27.483C33.5495 27.483 33.8781 27.483 34.2079 27.483C35.1491 27.4967 35.7938 28.17 35.7411 29.109C35.5596 32.4069 34.4697 35.5905 32.5921 38.3078C30.7144 41.0251 28.122 43.1703 25.1013 44.5065C24.8368 44.621 24.5631 44.7194 24.2941 44.8248L11.2496 44.8168ZM26.4513 27.4624C27.2952 27.4624 28.1391 27.4692 28.9819 27.4761C29.1147 27.4761 29.2544 27.4761 29.3185 27.349C29.3632 27.2643 29.251 27.2036 29.1926 27.1463L25.5124 23.489C25.4803 23.4423 25.4459 23.3972 25.4093 23.3539C25.0349 22.9635 25.0235 22.9669 24.807 23.4604C24.5167 24.1275 24.467 24.8747 24.6664 25.5743C24.8659 26.274 25.3021 26.8827 25.9006 27.2963C26.07 27.4097 26.2349 27.5311 26.4513 27.4624ZM21.2986 9.26981C20.9013 8.86332 20.4971 8.46255 20.1078 8.04575C19.9417 7.86827 19.8467 7.89804 19.7161 8.08125C18.4761 9.81371 18.1428 11.7099 18.6856 13.7653C18.7188 13.8889 18.7394 14.0195 18.8917 14.0641C19.4734 14.2348 19.9039 14.6286 20.3242 15.0374C20.5268 15.3649 20.7822 15.6706 20.9173 16.0233C21.1051 16.5145 21.3238 16.8672 21.9272 16.7745C22.0709 16.7659 22.2144 16.7943 22.344 16.8569C22.5673 16.9485 22.6246 16.8672 22.6876 16.6531C23.1238 15.1817 23.8223 13.9199 25.4357 13.4069C25.3819 13.3382 25.3532 13.2924 25.3154 13.2523C23.9765 11.924 22.6376 10.5965 21.2986 9.26981ZM12.1955 15.429C11.623 15.2824 11.0178 15.3332 10.4779 15.5733C9.18397 16.1607 8.88626 17.2909 9.15191 18.7188C9.35458 19.8077 9.99467 20.6654 10.8042 21.4108C11.3527 21.9135 11.2806 22.3268 10.6027 22.6463C10.1195 22.8753 9.65802 23.1203 9.30305 23.5314C8.84503 24.0673 8.79236 24.5986 9.18855 25.1734C9.50802 25.6314 9.98207 25.9028 10.4744 26.1421C10.6382 26.2211 10.7355 26.1708 10.8054 26.0001C10.9348 25.6841 11.0836 25.3749 11.2245 25.0623C12.026 23.7455 13.1092 22.778 14.5806 22.2833C14.9104 22.1688 14.8772 22.0646 14.6676 21.8619C14.1764 21.3833 13.6955 20.8944 13.2123 20.4077C13.0978 20.2932 12.9741 20.197 12.9512 20.0264C12.9123 19.7413 12.942 19.4734 13.2214 19.3176C13.5397 19.139 13.8272 19.2134 14.0779 19.4631C14.826 20.2096 15.5737 20.9573 16.3211 21.7062C16.4642 21.8493 16.5993 21.9764 16.8306 21.9707C17.6459 21.9501 18.4085 22.178 19.1471 22.5032C19.2169 22.5341 19.2913 22.6177 19.3703 22.5169C19.2467 22.0772 19.0967 21.6444 19.0051 21.2001C18.7543 19.9772 18.7761 18.7955 19.5135 17.7031C19.6623 17.4833 20.0631 17.3997 19.9463 17.0378C19.8449 16.7711 19.7176 16.5149 19.5661 16.2729C19.4769 16.1267 19.3758 15.9881 19.2639 15.8584C18.6123 15.0569 17.7936 15.0237 17.0654 15.7645C16.707 16.1298 16.5112 16.5901 16.289 17.0378C16.0543 17.5119 15.5859 17.5852 15.1978 17.2199C15.105 17.1317 15.0306 17.0252 14.9401 16.9336C14.1856 16.1584 13.3313 15.539 12.1989 15.429H12.1955ZM3.8675 28.778C3.12665 28.778 2.3858 28.778 1.6461 28.7586C1.35755 28.7586 1.27052 28.8731 1.28884 29.1433C1.33694 29.8544 1.43656 30.5574 1.55221 31.2605C1.58427 31.4563 1.66671 31.517 1.86022 31.5136C2.64344 31.4998 3.42665 31.4998 4.21101 31.4952C4.36789 31.4952 4.52476 31.509 4.68163 31.509H24.7509C25.3567 31.509 25.4998 31.6235 25.6498 32.196C25.5261 32.654 25.225 32.8052 24.7578 32.804C18.1806 32.7949 11.6031 32.7949 5.02515 32.804C4.86827 32.804 4.7114 32.8132 4.55453 32.8178H1.98847C1.96763 32.9186 1.98134 33.0234 2.0274 33.1155C3.30528 37.059 5.7076 40.1247 9.23435 42.3125C10.4779 43.0854 11.7535 43.7919 13.3073 43.5194L23.9391 43.5332C24.1098 43.5214 24.2761 43.4734 24.4269 43.3923C27.2413 42.1905 29.6658 40.2291 31.4289 37.7278C32.499 36.2348 33.3054 34.5694 33.8129 32.804C31.9545 32.804 30.1269 32.7937 28.3006 32.8109C27.8334 32.8109 27.5323 32.6609 27.4086 32.2017C27.5586 31.6292 27.7017 31.5147 28.3075 31.5147C30.1395 31.5147 31.9716 31.5147 33.7968 31.5147C34.0487 31.5147 34.1678 31.4723 34.2091 31.1872C34.2961 30.5803 34.4037 29.9758 34.4381 29.3609C34.469 28.7632 34.4701 28.7632 33.8896 28.7632H4.29575C4.15262 28.7632 4.00834 28.7723 3.8675 28.778ZM31.5777 27.4338L31.4266 27.1097C31.1541 26.5372 31.3602 26.1364 31.9899 26.0265C32.1869 25.9921 32.3861 25.9704 32.5796 25.9223C33.3216 25.7368 34.0281 25.4643 34.5949 24.933C35.3014 24.2665 35.2957 23.4673 34.5858 22.8089C34.2776 22.5304 33.9251 22.3056 33.5426 22.1436C32.7411 21.7921 32.6793 21.3512 33.3216 20.7776C34.0969 20.1109 34.6482 19.2218 34.9007 18.231C35.4377 16.0748 34.0304 14.513 31.8377 14.8508C30.688 15.0283 29.772 15.6443 29.0014 16.4951C28.4426 17.1146 27.9869 17.0516 27.6559 16.2878C27.4612 15.7922 27.1464 15.3527 26.7399 15.0088C26.2132 14.584 25.6819 14.5725 25.1288 14.9676C24.8212 15.2029 24.5687 15.5027 24.3891 15.8458C24.0821 16.3958 23.8769 16.9967 23.7834 17.6195C23.6368 18.5127 23.3379 18.6695 22.4986 18.2871C22.2791 18.1848 22.0486 18.1079 21.8116 18.0581C21.1807 17.931 20.6906 18.1978 20.3917 18.7543C20.0482 19.3875 20.1112 20.9505 20.5291 21.6112C20.8245 20.9738 21.1922 20.3725 21.6249 19.8192C22.2433 19.0566 22.8845 19.0176 23.5841 19.7047C24.3353 20.4505 25.0838 21.1986 25.8296 21.949C26.3803 22.4997 26.3803 22.4997 26.9323 21.949C27.9433 20.9379 28.951 19.9245 29.9666 18.918C30.3331 18.5562 30.7888 18.5814 31.0247 18.9672C31.2308 19.3108 31.1128 19.589 30.8529 19.8478C29.7594 20.9379 28.6773 22.036 27.5723 23.1192C27.3605 23.3265 27.3078 23.4467 27.5517 23.686C28.7586 24.8654 29.9437 26.0666 31.1392 27.2574C31.248 27.3639 31.3327 27.5299 31.5754 27.4338H31.5777ZM10.1309 27.475C9.75306 27.2265 9.36145 27.0307 9.00649 26.7731C7.20532 25.4654 7.19616 23.4055 8.98588 22.0875C9.04175 22.0439 9.10155 22.0056 9.1645 21.973C9.39351 21.8665 9.34886 21.7566 9.20687 21.5906C8.62985 20.9336 8.21076 20.1534 7.98167 19.3096C7.91869 19.068 7.78357 19.0394 7.57517 19.0634C7.23257 19.1051 6.91002 19.2475 6.64832 19.4725C6.38662 19.6975 6.19752 19.9951 6.10493 20.3276C5.86447 21.1692 6.03508 21.9627 6.40951 22.7322C6.67631 23.2807 6.49539 23.6482 5.90454 23.7833C5.36866 23.9093 4.86598 24.1028 4.45262 24.4772C3.44039 25.3933 3.69231 26.5853 4.50071 27.3719C4.54966 27.4127 4.60671 27.4427 4.66809 27.4599C4.72947 27.4771 4.7938 27.481 4.85682 27.4715L10.1309 27.475ZM4.52018 22.8868C4.35529 22.7917 4.22933 22.7242 4.1091 22.6486C3.29445 22.1315 2.69945 21.3318 2.43828 20.4029C2.17712 19.474 2.26819 18.4814 2.69402 17.6155C3.11985 16.7497 3.85044 16.0716 4.74559 15.7114C5.64074 15.3511 6.63738 15.3342 7.54426 15.6638C7.77327 15.7485 8.02747 15.9855 8.19236 15.9283C8.39274 15.8596 8.51183 15.5527 8.66412 15.3477C8.68735 15.309 8.70727 15.2684 8.72366 15.2264C8.59541 15.1542 8.47404 15.0798 8.34694 15.0168C7.2981 14.4914 6.09389 14.3657 4.95914 14.6631C3.8244 14.9606 2.83669 15.6608 2.18043 16.6332C1.52417 17.6055 1.24421 18.7834 1.39284 19.9471C1.54146 21.1107 2.10851 22.1804 2.9881 22.9566C3.56063 23.4707 3.56062 23.4707 4.22132 23.0711C4.30376 23.0207 4.38735 22.9681 4.51789 22.8868H4.52018ZM11.8164 27.4418C12.6397 27.5448 12.6386 27.5448 12.879 26.8234C12.8962 26.7696 12.9168 26.7158 12.9374 26.6631C13.5432 25.0921 15.113 24.0581 16.755 24.144C18.4841 24.2379 19.9349 25.391 20.3539 27.0616C20.4444 27.4246 20.5955 27.5196 20.9265 27.4738C20.9975 27.4641 21.0695 27.4641 21.1406 27.4738C21.3696 27.5025 21.3856 27.404 21.3524 27.2024C20.9688 24.9123 18.8448 23.1673 16.5134 23.2303C14.0699 23.2978 12.0729 25.0887 11.8142 27.4418H11.8164ZM24.1704 27.475C24.1668 27.4359 24.1584 27.3974 24.1452 27.3605C23.0162 25.6921 22.9544 23.9917 24.0147 22.2742C24.1097 22.1184 24.0937 22.0371 23.9712 21.9192C23.5921 21.5528 23.2131 21.1829 22.8524 20.797C22.6784 20.6115 22.5971 20.6734 22.4723 20.8428C21.8079 21.7413 21.3849 22.7951 21.2436 23.9036C21.2341 23.9591 21.2372 24.0161 21.2529 24.0703C21.2686 24.1244 21.2963 24.1743 21.3341 24.2162C22.0526 25.0929 22.5105 26.1538 22.6555 27.278C22.6738 27.4086 22.6956 27.4841 22.8513 27.4818C23.2876 27.4692 23.7238 27.475 24.1681 27.475H24.1704ZM30.6056 13.6748C30.593 12.8538 29.8155 11.8805 28.9063 11.5473C27.9972 11.2141 26.796 11.458 26.2315 12.0763C26.1067 12.2126 26.149 12.2721 26.2555 12.3775C27.0456 13.1622 27.8323 13.95 28.6155 14.7409C28.73 14.8554 28.8159 14.9058 28.9693 14.7786C29.4134 14.4201 29.9096 14.1312 30.4407 13.9222C30.5609 13.8718 30.6399 13.8191 30.6033 13.6748H30.6056ZM4.72743 21.4612C4.72743 21.247 4.72743 21.0753 4.72743 20.9047C4.77896 19.1997 5.83928 18.0123 7.53052 17.7775C7.66792 17.7581 7.7767 17.7581 7.79044 17.5783C7.80418 17.3985 7.83396 17.2565 7.64159 17.1375C7.23 16.8746 6.75556 16.7267 6.26752 16.7092C5.68501 16.6882 5.11224 16.8628 4.64052 17.2053C4.16881 17.5477 3.82532 18.0382 3.66482 18.5985C3.50559 19.1256 3.52239 19.6903 3.71267 20.207C3.90295 20.7237 4.25636 21.1644 4.71942 21.4623L4.72743 21.4612ZM16.636 27.4738C17.3493 27.4738 18.0638 27.4589 18.7772 27.4796C19.1001 27.4899 19.17 27.4063 19.0532 27.1028C18.8623 26.6086 18.5264 26.1836 18.0897 25.8837C17.6529 25.5838 17.1357 25.423 16.6059 25.4224C16.076 25.4218 15.5584 25.5814 15.121 25.8803C14.6835 26.1791 14.3467 26.6033 14.1546 27.0971C14.0401 27.3788 14.0928 27.483 14.41 27.4773C15.1394 27.4658 15.8814 27.475 16.6234 27.475L16.636 27.4738Z" fill="#020202"/>
<path d="M12.2368 4.02089C11.9848 3.64531 12.0215 3.30981 12.3513 2.99607C13.1104 2.29186 13.7677 1.48575 14.5978 0.861694H15.1979C15.5883 1.02658 15.8608 1.31971 16.0944 1.66323C17.7376 4.05295 17.9643 6.58695 16.6177 9.14041C15.2711 11.6939 13.0257 12.9008 10.1539 12.8572C8.58175 12.8332 7.17105 12.2721 5.95386 11.2542C5.31492 10.7229 5.28057 10.0759 5.86683 9.48507C7.2409 8.10643 8.61496 6.73237 9.98902 5.36289C10.3669 4.98502 10.5615 4.96899 11.047 5.24838C11.2909 5.65259 11.2085 5.98694 10.8764 6.31557C9.98329 7.19612 9.10733 8.09498 8.22449 8.99155C7.82716 9.37973 7.4367 9.77477 7.03021 10.1538C6.8699 10.3038 6.89853 10.3691 7.0657 10.4973C9.22069 12.1794 12.7658 11.8496 14.5761 9.78965C16.454 7.94727 16.699 4.60487 15.1234 2.51973C14.9471 2.29072 14.8578 2.31476 14.6803 2.50026C14.2223 2.97431 13.7642 3.43462 13.2902 3.89379C12.9009 4.27395 12.7108 4.29685 12.2368 4.02089Z" fill="#060404"/>
<path d="M25.8434 0.861694C25.9751 1.022 26.1789 0.960169 26.3449 1.01628C28.2079 1.63689 29.3221 2.90332 29.6484 4.83846C29.7457 5.40182 29.4743 5.8816 28.9259 6.03732C27.4888 6.44725 26.0484 6.85031 24.5964 7.19955C23.7949 7.39192 23.1479 6.70031 23.3495 5.8919C23.7033 4.4686 24.0983 3.05676 24.4751 1.63918C24.5735 1.26704 24.8781 1.07582 25.1564 0.861694L25.8434 0.861694ZM24.6869 5.85297L28.074 4.94953C28.224 4.90945 28.3637 4.88998 28.3178 4.64838C28.1198 3.61783 26.9507 2.43156 25.927 2.24377C25.7678 2.21285 25.6522 2.21514 25.6029 2.40522C25.3064 3.52623 25.0064 4.65067 24.6869 5.85297Z" fill="#060404"/>
<path d="M12.2366 4.02088C12.7152 4.29226 12.9007 4.27394 13.2901 3.89034C13.7584 3.43232 14.2267 2.9743 14.6801 2.49682C14.8576 2.31132 14.9469 2.28155 15.1233 2.51628C16.6989 4.60142 16.4538 7.94382 14.5759 9.78621C13.3969 10.2285 12.1269 10.3733 10.8786 10.2076C11.1614 9.73125 11.087 9.21254 11.0137 8.71215C10.9656 8.37551 10.6999 8.21062 10.3553 8.23696C10.2034 8.23696 10.0578 8.29728 9.95045 8.40464C9.84308 8.51201 9.78276 8.65764 9.78276 8.80948C9.75872 9.13468 9.76559 9.46331 9.75872 9.79079C9.15184 9.70606 8.68008 9.36369 8.22778 8.98925C9.10718 8.09497 9.98315 7.19611 10.8786 6.31556C11.2106 5.98693 11.2931 5.65258 11.0492 5.24837C11.4438 4.83845 11.8397 4.42928 12.2366 4.02088ZM13.8992 6.62014C14.0561 6.62014 14.213 6.63159 14.3687 6.62014C14.7328 6.58694 14.9412 6.38197 14.9595 6.01441C14.9699 5.93553 14.9639 5.85536 14.942 5.77888C14.9201 5.7024 14.8827 5.63124 14.8321 5.56982C14.7815 5.5084 14.7189 5.45804 14.648 5.42185C14.5772 5.38566 14.4996 5.36442 14.4202 5.35944C14.067 5.31475 13.7096 5.31475 13.3565 5.35944C13.2773 5.36602 13.2004 5.38864 13.1303 5.42592C13.0602 5.46319 12.9984 5.51434 12.9487 5.57626C12.899 5.63818 12.8624 5.70956 12.8412 5.78607C12.8199 5.86258 12.8145 5.94261 12.8252 6.02128C12.8481 6.37281 13.0645 6.59381 13.4332 6.619C13.5855 6.63045 13.7412 6.62129 13.8992 6.62014ZM12.5252 7.40908C12.4022 7.41336 12.2827 7.45156 12.1801 7.51945C12.0774 7.58735 11.9955 7.6823 11.9435 7.79382C11.8875 7.90297 11.8667 8.02682 11.8842 8.14826C11.9016 8.26969 11.9563 8.38271 12.0408 8.47169C12.2512 8.70643 12.4748 8.92893 12.7107 9.13811C12.8309 9.25038 12.9899 9.31183 13.1544 9.30963C13.3189 9.30743 13.4762 9.24175 13.5934 9.12631C13.7106 9.01087 13.7787 8.8546 13.7834 8.69015C13.7881 8.52569 13.7291 8.36578 13.6187 8.24383C13.4126 8.01482 13.1801 7.79611 12.9546 7.5797C12.8368 7.47487 12.6861 7.41452 12.5286 7.40908H12.5252Z" fill="#FA4654"/>
<path d="M32.2991 10.7378C32.0575 11.0584 32.0472 11.3721 32.259 11.7259C32.5084 12.1768 32.6814 12.6659 32.7709 13.1733C32.8213 13.4115 32.8098 13.5672 32.4984 13.5168C32.384 13.5018 32.2678 13.5061 32.1548 13.5294C31.9648 13.5615 31.8823 13.5145 31.8411 13.3004C31.2331 10.2087 27.5758 9.10263 25.3761 11.1248C25.1574 11.3263 25.0716 11.1958 24.9364 11.0618C24.499 10.6313 24.4887 10.6233 24.9628 10.2603C26.5659 9.04423 28.2834 8.83926 30.1155 9.67859C30.5002 9.85378 30.8254 9.8618 31.1163 9.5263C31.5789 9.8618 32.0735 10.1687 32.2991 10.7378Z" fill="#F7CDA0"/>
<path d="M27.4086 32.196C27.5323 32.654 27.8334 32.8097 28.3006 32.8052C30.1327 32.788 31.9545 32.7983 33.8129 32.7983C33.3054 34.5637 32.4991 36.2291 31.4289 37.722C29.6658 40.2234 27.2414 42.1848 24.4269 43.3866C24.2762 43.4676 24.1099 43.5156 23.9391 43.5274L13.3073 43.5137C13.21 43.4553 13.1161 43.3923 13.0153 43.3408C11.6153 42.6011 10.3269 41.667 9.18859 40.5663C8.0349 39.4602 7.03925 38.2002 6.22977 36.822C5.47779 35.5755 4.91334 34.2252 4.55457 32.8143C4.71144 32.8143 4.86831 32.8006 5.02518 32.8006C11.6024 32.8006 18.1799 32.8006 24.7578 32.8006C25.225 32.8006 25.5262 32.6506 25.6498 32.1926L27.4086 32.196Z" fill="#D7EBFD"/>
<path d="M31.5755 27.4337C31.3327 27.5299 31.248 27.3639 31.1438 27.2597C29.9484 26.0688 28.7632 24.8677 27.5564 23.6882C27.3125 23.4489 27.3651 23.3287 27.577 23.1214C28.6785 22.0382 29.764 20.9401 30.8575 19.85C31.1175 19.5913 31.2354 19.3073 31.0293 18.9695C30.7934 18.5836 30.3423 18.5584 29.9713 18.9203C28.9556 19.9268 27.948 20.9401 26.9369 21.9512C26.385 22.5043 26.385 22.5043 25.8342 21.9512C25.0861 21.2023 24.3376 20.4542 23.5888 19.7069C22.8937 19.0199 22.2479 19.0554 21.6296 19.8214C21.1968 20.3748 20.8291 20.976 20.5338 21.6134C20.1158 20.9527 20.0551 19.3897 20.3964 18.7565C20.6952 18.2 21.1853 17.9332 21.8162 18.0603C22.0532 18.1102 22.2837 18.187 22.5032 18.2893C23.3426 18.6718 23.6414 18.5183 23.788 17.6218C23.8802 16.9983 24.0842 16.3967 24.3903 15.8458C24.5699 15.5026 24.8224 15.2029 25.13 14.9675C25.6831 14.5725 26.2144 14.5839 26.7411 15.0088C27.1476 15.3527 27.4624 15.7922 27.6571 16.2878C27.988 17.0515 28.4438 17.1145 29.0026 16.495C29.772 15.6443 30.6881 15.0282 31.8331 14.8507C34.0259 14.5072 35.4332 16.0748 34.8961 18.2309C34.6449 19.2212 34.0952 20.1102 33.3217 20.7775C32.6793 21.3501 32.7434 21.792 33.5427 22.1436C33.9251 22.3055 34.2777 22.5304 34.5858 22.8089C35.2958 23.4673 35.3015 24.2665 34.595 24.9329C34.0225 25.4688 33.3217 25.7345 32.5797 25.9222C32.3862 25.9703 32.1869 25.9921 31.99 26.0264C31.3602 26.1409 31.1541 26.5326 31.4266 27.1097L31.5755 27.4337Z" fill="#67C843"/>
<path d="M27.4085 32.196H25.6497C25.4997 31.6235 25.3566 31.509 24.7509 31.509H4.68156C4.52469 31.509 4.36782 31.4999 4.21095 31.4953C4.00484 30.601 3.98194 29.6827 3.86743 28.7781C4.01056 28.7723 4.15255 28.7632 4.29568 28.7632H33.8872C34.4678 28.7632 34.4666 28.7632 34.4357 29.3609C34.4037 29.9758 34.296 30.5804 34.2067 31.1873C34.1655 31.4724 34.0464 31.5159 33.7945 31.5147C31.9624 31.5056 30.1303 31.509 28.3051 31.5147C27.7017 31.5102 27.5585 31.6212 27.4085 32.196Z" fill="#E9F5FE"/>
<path d="M12.1989 15.429C13.3313 15.5436 14.1855 16.1584 14.9538 16.9336C15.0443 17.0252 15.1187 17.1317 15.2115 17.2199C15.5997 17.5852 16.068 17.5119 16.3027 17.0378C16.5249 16.5901 16.7207 16.1298 17.0791 15.7645C17.8073 15.0237 18.626 15.0569 19.2776 15.8584C19.3895 15.9881 19.4906 16.1267 19.5799 16.2729C19.7313 16.5149 19.8586 16.7711 19.96 17.0378C20.0745 17.3997 19.676 17.4833 19.5272 17.7031C18.7898 18.7909 18.768 19.9772 19.0188 21.2001C19.1104 21.6444 19.2604 22.0772 19.384 22.5169C19.305 22.6131 19.2306 22.5341 19.1608 22.5032C18.4222 22.178 17.6596 21.9501 16.8443 21.9707C16.6153 21.9764 16.4779 21.8493 16.3348 21.7062C15.5882 20.9566 14.8405 20.2089 14.0916 19.4631C13.8409 19.2134 13.5534 19.139 13.2351 19.3176C12.9557 19.4734 12.926 19.7413 12.9649 20.0264C12.9878 20.197 13.116 20.2978 13.226 20.4077C13.7092 20.8944 14.1901 21.3833 14.6813 21.8619C14.8909 22.0646 14.9241 22.1723 14.5943 22.2833C13.1229 22.778 12.034 23.7456 11.2382 25.0624C11.0263 24.7246 11.0446 24.3673 11.1374 23.9975C11.3469 23.1639 11.9927 22.7184 12.6443 22.2799C13.0622 21.9959 13.0931 21.8093 12.7496 21.4715C12.2389 20.9711 11.8393 20.3687 11.5771 19.7035C11.2874 18.9764 11.1191 18.2321 11.2336 17.4226C11.3366 16.6325 11.6939 16.0027 12.1989 15.429Z" fill="#01794D"/>
<path d="M4.55449 32.8086C4.91327 34.2195 5.47772 35.5698 6.2297 36.8163C7.03909 38.1949 8.03474 39.4552 9.18851 40.5618C10.3264 41.6649 11.6148 42.6013 13.0153 43.3431C13.116 43.3946 13.2099 43.4576 13.3073 43.516C11.75 43.7885 10.4778 43.082 9.23431 42.3091C5.71519 40.1205 3.31287 37.0541 2.02736 33.1098C1.9813 33.0177 1.96759 32.9129 1.98843 32.8121L4.55449 32.8086Z" fill="#C2E0FD"/>
<path d="M10.1288 27.475H4.86155C4.79852 27.4845 4.7342 27.4805 4.67282 27.4633C4.61144 27.4462 4.55439 27.4162 4.50544 27.3754C3.69703 26.5887 3.44512 25.3956 4.45734 24.4807C4.87071 24.1062 5.37338 23.9081 5.90927 23.7868C6.49553 23.6482 6.67645 23.2841 6.41309 22.7322C6.03866 21.9616 5.86805 21.168 6.10851 20.3276C6.20017 19.9946 6.38859 19.6962 6.64991 19.4704C6.91123 19.2445 7.23369 19.1013 7.57646 19.0589C7.78486 19.0348 7.91998 19.0589 7.98296 19.305C8.21088 20.1489 8.62879 20.9295 9.20473 21.5871C9.34671 21.7532 9.39251 21.8631 9.16236 21.9696C9.0994 22.0021 9.0396 22.0405 8.98373 22.0841C7.19402 23.402 7.20318 25.462 9.00434 26.7696C9.35931 27.0307 9.75091 27.2265 10.1288 27.475Z" fill="#7ECF60"/>
<path d="M12.1989 15.429C11.6939 16.0016 11.3401 16.6325 11.2324 17.418C11.1179 18.2275 11.2874 18.9718 11.5759 19.6989C11.8378 20.3663 12.2378 20.9707 12.7496 21.4726C13.0931 21.8161 13.0622 21.9971 12.6443 22.281C11.9927 22.7242 11.3469 23.1696 11.1374 23.9986C11.0446 24.3685 11.0229 24.7257 11.2382 25.0635C11.0973 25.3761 10.9485 25.6853 10.8191 26.0013C10.7492 26.1719 10.6519 26.2223 10.4881 26.1433C9.99577 25.904 9.52172 25.6337 9.20225 25.1746C8.80149 24.602 8.84843 24.0685 9.31676 23.5326C9.67172 23.1215 10.1332 22.8719 10.6164 22.6474C11.2943 22.3326 11.3664 21.9146 10.8179 21.4119C10.0038 20.6711 9.36371 19.8077 9.16103 18.7245C8.89538 17.2978 9.19309 16.1665 10.487 15.579C11.0246 15.3384 11.6276 15.2855 12.1989 15.429Z" fill="#026740"/>
<path d="M21.2985 9.26981C22.6344 10.5965 23.9703 11.924 25.3062 13.2523C25.344 13.2901 25.3726 13.3382 25.4265 13.4069C23.8177 13.9199 23.1192 15.1817 22.6783 16.6531C22.6154 16.8672 22.5581 16.9485 22.3348 16.8569C22.2052 16.7943 22.0617 16.7659 21.918 16.7745C21.3146 16.8672 21.0959 16.5145 20.9081 16.0233C20.773 15.6706 20.5176 15.3649 20.3149 15.0374C20.544 14.8405 20.3287 14.6412 20.3001 14.4546C20.205 13.8145 20.0527 13.1802 20.2577 12.5355C20.6905 12.658 21.1325 12.6122 21.5688 12.5927C21.6548 12.592 21.7398 12.5734 21.8183 12.5382C21.8969 12.5029 21.9672 12.4518 22.025 12.388C22.0828 12.3242 22.1267 12.2491 22.154 12.1675C22.1813 12.0858 22.1914 11.9994 22.1837 11.9137C22.1424 11.5359 21.918 11.3263 21.5321 11.3206C21.1462 11.3149 20.7386 11.3206 20.3413 11.3298C20.4294 10.6656 20.7123 10.0702 21.01 9.48279C21.0313 9.42249 21.0701 9.36995 21.1216 9.33198C21.173 9.29402 21.2347 9.27235 21.2985 9.26981ZM21.7737 15.6558C22.1802 15.6558 23.0883 14.7454 23.094 14.3412C23.0994 14.2265 23.0718 14.1126 23.0146 14.013C22.9574 13.9134 22.8729 13.8322 22.7711 13.779C22.6693 13.7101 22.5477 13.6765 22.425 13.6836C22.3023 13.6906 22.1853 13.7378 22.0921 13.8179C21.7929 14.0804 21.5107 14.3615 21.247 14.6596C21.1662 14.7525 21.1186 14.8696 21.1117 14.9926C21.1049 15.1155 21.1392 15.2373 21.2092 15.3386C21.264 15.4399 21.3465 15.5235 21.4471 15.5797C21.5477 15.6359 21.6622 15.6622 21.7772 15.6558H21.7737Z" fill="#F72A39"/>
<path d="M4.51783 22.8867C4.3873 22.968 4.30371 23.0207 4.21898 23.0711C3.56172 23.4661 3.56172 23.4661 2.98576 22.9566C2.10616 22.1804 1.53912 21.1107 1.3905 19.947C1.24187 18.7834 1.52182 17.6055 2.17808 16.6331C2.83435 15.6608 3.82206 14.9605 4.9568 14.6631C6.09155 14.3657 7.29575 14.4914 8.34459 15.0168C8.47169 15.0798 8.59307 15.1542 8.72132 15.2263C8.70492 15.2684 8.685 15.309 8.66177 15.3477C8.50948 15.5527 8.3904 15.8596 8.19001 15.9283C8.02512 15.9855 7.76749 15.7485 7.54191 15.6638C6.63504 15.3342 5.6384 15.3511 4.74325 15.7113C3.8481 16.0716 3.11751 16.7497 2.69168 17.6155C2.26585 18.4814 2.17478 19.474 2.43594 20.4029C2.6971 21.3318 3.29211 22.1315 4.10676 22.6486C4.22699 22.7241 4.3518 22.7917 4.51783 22.8867Z" fill="#F7CDA0"/>
<path d="M11.8142 27.4418C12.073 25.0887 14.07 23.2978 16.5089 23.2337C18.8402 23.1707 20.9643 24.9204 21.3479 27.2059C21.3811 27.4074 21.3639 27.5059 21.1361 27.4773C21.065 27.4675 20.993 27.4675 20.9219 27.4773C20.5945 27.5265 20.4433 27.428 20.3494 27.065C19.9303 25.3944 18.4795 24.2413 16.7505 24.1475C15.1074 24.0581 13.5387 25.0921 12.9329 26.6666C12.9123 26.7192 12.8917 26.7731 12.8745 26.8269C12.6364 27.5414 12.6375 27.5414 11.8142 27.4418Z" fill="#F7CDA0"/>
<path d="M21.2987 9.26978C21.2356 9.27322 21.1749 9.29529 21.1244 9.3332C21.0738 9.37111 21.0357 9.42315 21.0147 9.48276C20.717 10.0713 20.4341 10.6656 20.346 11.3297C19.8101 11.7397 19.7872 12.0832 20.2681 12.5412C20.0631 13.1859 20.2154 13.8202 20.3105 14.4603C20.3391 14.6469 20.5578 14.8462 20.3254 15.0431C19.9051 14.6343 19.4746 14.2416 18.8929 14.0698C18.7406 14.0252 18.72 13.8946 18.6868 13.771C18.1486 11.7099 18.4818 9.8194 19.7173 8.08694C19.8479 7.90373 19.9464 7.87396 20.109 8.05144C20.4971 8.46252 20.9048 8.86328 21.2987 9.26978Z" fill="#E11F2C"/>
<path d="M16.6233 27.475C15.8813 27.475 15.1347 27.4658 14.3973 27.475C14.0801 27.4807 14.0309 27.3765 14.142 27.0948C14.334 26.601 14.6708 26.1768 15.1083 25.8779C15.5457 25.5791 16.0634 25.4195 16.5932 25.4201C17.123 25.4207 17.6402 25.5815 18.077 25.8814C18.5138 26.1813 18.8496 26.6063 19.0405 27.1005C19.155 27.404 19.0874 27.4876 18.7645 27.4773C18.0512 27.4601 17.3366 27.475 16.6233 27.475Z" fill="#01794D"/>
<path d="M25.5159 23.489L29.1995 27.1463C29.2579 27.2036 29.3701 27.2608 29.3254 27.349C29.2613 27.4715 29.1216 27.4761 28.9888 27.4761C28.146 27.4692 27.3021 27.467 26.4582 27.4624C25.4437 26.3036 25.0407 24.9994 25.5159 23.489Z" fill="#FDDE73"/>
<path d="M3.86748 28.7781C3.98199 29.6826 4.00489 30.601 4.211 31.4953C3.42664 31.4953 2.64342 31.4953 1.86021 31.5136C1.6667 31.5136 1.58425 31.4563 1.55219 31.2605C1.43769 30.5575 1.33692 29.8544 1.28883 29.1433C1.27051 28.8697 1.35753 28.7529 1.64608 28.7586C2.38579 28.7758 3.12664 28.7735 3.86748 28.7781Z" fill="#D7EBFD"/>
<path d="M25.5158 23.4891C25.0406 24.9994 25.4437 26.3036 26.4548 27.4624C26.2349 27.5311 26.07 27.4097 25.904 27.2963C25.3055 26.8827 24.8693 26.274 24.6699 25.5743C24.4704 24.8747 24.5201 24.1275 24.8105 23.4604C25.0269 22.9669 25.0395 22.9635 25.4128 23.3539C25.4494 23.3972 25.4838 23.4423 25.5158 23.4891Z" fill="#F99601"/>
<path d="M8.22441 8.99158C8.68243 9.37059 9.14846 9.71296 9.75534 9.79311C9.96259 10.4023 10.2889 10.5214 10.8786 10.2076C12.127 10.3733 13.3969 10.2286 14.576 9.78624C12.7657 11.8473 9.2206 12.176 7.06562 10.4939C6.89844 10.3633 6.86981 10.2981 7.03012 10.1504C7.43661 9.76907 7.82707 9.37402 8.22441 8.99158Z" fill="#F72A39"/>
<path d="M24.6868 5.85297C25.0063 4.65067 25.3063 3.52623 25.6029 2.40065C25.6521 2.21057 25.7678 2.20828 25.9269 2.23919C26.9506 2.43156 28.1197 3.62127 28.3178 4.6438C28.3636 4.88541 28.2239 4.90487 28.0739 4.94495L24.6868 5.85297Z" fill="#F99601"/>
<path d="M10.8785 10.2076C10.2888 10.5213 9.9625 10.4023 9.75525 9.79194C9.76212 9.46446 9.75525 9.13583 9.77929 8.81063C9.77929 8.65879 9.83961 8.51317 9.94698 8.4058C10.0544 8.29843 10.2 8.23811 10.3518 8.23811C10.6953 8.21177 10.9621 8.37666 11.0102 8.71331C11.0869 9.21255 11.1614 9.73126 10.8785 10.2076Z" fill="#060404"/>
<path d="M13.8994 6.62013C13.7425 6.62013 13.5856 6.63044 13.4299 6.62013C13.0612 6.5938 12.8448 6.37395 12.8219 6.02241C12.8112 5.94347 12.8167 5.86318 12.8382 5.78645C12.8596 5.70973 12.8965 5.63819 12.9466 5.57623C12.9966 5.51426 13.0588 5.46317 13.1293 5.42609C13.1998 5.38901 13.2772 5.36672 13.3566 5.36058C13.7098 5.31588 14.0672 5.31588 14.4204 5.36058C14.4997 5.36556 14.5771 5.38677 14.6479 5.42289C14.7186 5.45901 14.7812 5.50927 14.8318 5.57056C14.8823 5.63185 14.9198 5.70287 14.9418 5.77921C14.9638 5.85556 14.9699 5.9356 14.9597 6.0144C14.9414 6.38196 14.7307 6.58692 14.3688 6.62013C14.2131 6.63158 14.0562 6.62013 13.8994 6.62013Z" fill="#060404"/>
<path d="M12.5287 7.40909C12.6847 7.41557 12.8336 7.47586 12.9501 7.5797C13.1791 7.79612 13.4081 8.00909 13.6142 8.24383C13.717 8.36648 13.7699 8.52328 13.7624 8.68311C13.755 8.84295 13.6877 8.99414 13.574 9.10671C13.4603 9.21927 13.3084 9.28498 13.1485 9.2908C12.9886 9.29662 12.8324 9.24212 12.7108 9.13811C12.4777 8.92871 12.2567 8.70621 12.0489 8.4717C11.9645 8.38272 11.9097 8.2697 11.8923 8.14826C11.8749 8.02683 11.8956 7.90297 11.9516 7.79383C12.0033 7.68298 12.0845 7.58847 12.1863 7.52062C12.288 7.45277 12.4065 7.41419 12.5287 7.40909Z" fill="#060404"/>
<path d="M21.7783 15.6557C21.6637 15.6618 21.5497 15.6352 21.4496 15.579C21.3495 15.5229 21.2673 15.4395 21.2127 15.3386C21.1426 15.2373 21.1083 15.1155 21.1152 14.9926C21.122 14.8696 21.1696 14.7524 21.2505 14.6596C21.5142 14.3615 21.7964 14.0804 22.0955 13.8179C22.1887 13.7378 22.3057 13.6906 22.4284 13.6836C22.5511 13.6765 22.6728 13.7101 22.7745 13.779C22.8764 13.8322 22.9609 13.9133 23.0181 14.013C23.0753 14.1126 23.1028 14.2265 23.0974 14.3412C23.0917 14.7454 22.1837 15.65 21.7783 15.6557Z" fill="#060404"/>
<path d="M20.2681 12.5412C19.7894 12.0832 19.81 11.75 20.3517 11.3355C20.749 11.3355 21.1463 11.3206 21.5425 11.3263C21.9387 11.332 22.1528 11.5416 22.194 11.9195C22.2018 12.0052 22.1917 12.0916 22.1644 12.1732C22.1371 12.2548 22.0932 12.3299 22.0354 12.3937C21.9776 12.4575 21.9072 12.5086 21.8287 12.5439C21.7502 12.5791 21.6652 12.5977 21.5791 12.5985C21.1406 12.6122 20.6986 12.6557 20.2681 12.5412Z" fill="#060404"/>
</svg>
