<svg width="44" height="45" viewBox="0 0 44 45" fill="none" xmlns="http://www.w3.org/2000/svg">
<path d="M20.7897 8.00649C20.4347 7.84043 20.2835 7.57358 20.3533 7.17618C20.5192 6.16948 20.9862 5.23667 21.6927 4.50067C22.3993 3.76466 23.3123 3.26002 24.3114 3.05324C24.7179 2.97349 25.1317 2.93702 25.546 2.94444C27.3314 2.94444 29.1169 2.94444 30.9035 2.94444C31.1325 2.94444 31.3261 2.96735 31.404 2.65125C31.4715 2.37296 31.7475 2.2905 32.0224 2.28935C32.5515 2.28935 33.0806 2.27446 33.6086 2.28935C33.8926 2.29966 34.0472 2.23782 33.9922 1.92058C33.9623 1.74261 33.9792 1.5599 34.0412 1.39042C34.1032 1.22095 34.2083 1.07053 34.3461 0.953979L34.8615 0.953979C35.2154 1.17616 35.3368 1.50599 35.2772 1.9034C35.2291 2.23323 35.3597 2.31455 35.6758 2.29622C36.1751 2.26874 36.6767 2.29622 37.1761 2.28821C37.5689 2.28248 37.8632 2.4348 37.9274 2.83564C37.9732 3.12883 38.1885 3.06469 38.3442 3.08073C39.5181 3.23648 40.6954 3.37849 41.8716 3.52394C42.7306 3.62931 43.2654 4.15956 43.2734 4.91772C43.2814 5.67589 42.7443 6.23363 41.8991 6.34472C40.6951 6.50124 39.4899 6.64897 38.2835 6.78793C38.0808 6.81198 37.956 6.8326 37.9102 7.08226C37.8483 7.41439 37.5952 7.57358 37.2505 7.57244C36.7065 7.57244 36.1625 7.59076 35.6208 7.56556C35.3242 7.55067 35.2486 7.65718 35.2772 7.92747C35.297 8.08369 35.2896 8.24216 35.2555 8.39588C35.1742 8.72457 34.944 8.9227 34.605 8.90323C34.266 8.88376 34.0323 8.67418 33.9934 8.3054C33.9682 8.06833 34.1079 7.7385 33.9201 7.61825C33.7323 7.49799 33.4242 7.57473 33.1688 7.57244C32.7817 7.57244 32.3958 7.57244 32.0098 7.57244C31.743 7.57244 31.4944 7.48425 31.4177 7.23687C31.3307 6.95399 31.1692 6.95629 30.9436 6.97117C29.5028 7.06432 28.0617 7.15212 26.6202 7.23458C26.1758 7.25978 25.9079 7.44989 25.8243 7.91143C25.7406 8.37297 25.6227 8.8013 25.5047 9.24222C25.4429 9.47128 25.4406 9.63161 25.7338 9.64879C25.8327 9.6636 25.9298 9.68854 26.0235 9.72323C27.2707 10.0668 27.833 11.0025 27.5364 12.2646C27.4425 12.6666 27.3371 13.0662 27.2432 13.4694C27.1608 13.821 27.0142 14.1565 27.3142 14.5081C27.3478 14.5518 27.3723 14.6017 27.3865 14.655C27.4007 14.7082 27.4042 14.7637 27.3969 14.8183C27.3895 14.8729 27.3715 14.9255 27.3437 14.9731C27.316 15.0207 27.2791 15.0624 27.2352 15.0956C26.871 15.3613 26.5652 15.7668 26.0373 15.729C25.8769 15.6339 25.6708 15.5526 25.6376 15.3648C25.5849 15.0727 25.3833 15.0212 25.1589 14.9674C24.9516 14.9158 24.742 14.8689 24.5404 14.8002C24.2999 14.7177 24.1797 14.7727 24.127 15.0384C24.0365 15.4965 23.914 15.9546 23.8052 16.4127C23.5761 17.3621 23.5761 17.3667 24.5175 17.6049C24.6801 17.6461 24.8611 17.8053 25.0306 17.6106C25.2001 17.4159 25.428 17.4079 25.6605 17.4148C26.1701 17.6278 26.2537 18.1432 26.4289 18.5692C26.5343 18.8235 26.3476 19.0846 26.0854 19.1865C25.8884 19.2632 25.8437 19.3904 25.8048 19.5622C25.6903 20.0764 25.5608 20.5929 25.4337 21.1014C25.1108 22.4058 24.1361 23.006 22.8592 22.6303C22.432 22.5055 22.3278 22.6097 22.2339 23.014C20.9825 28.3776 19.7196 33.7386 18.4453 39.0969C17.7044 42.2154 15.3176 44.365 12.1018 44.8403C12.072 44.8403 12.0468 44.8907 12.0193 44.9171H10.1342C10.0689 44.759 9.91201 44.814 9.79978 44.7899C4.84653 43.718 1.85397 39.1106 2.88241 34.1493C3.30043 32.1325 3.67722 30.1111 3.61309 28.0325C3.56975 26.5028 3.36124 24.9822 2.99121 23.4973C2.84347 22.9086 2.53311 22.7311 1.93986 22.8834C1.60888 22.9693 1.28019 23.0655 0.948068 23.1514C0.478511 23.2728 0.122336 23.1044 0.0215528 22.7185C-0.0735038 22.3566 0.150967 22.0313 0.594183 21.9168C4.81103 20.7861 9.02864 19.658 13.247 18.5326C13.696 18.4123 14.0338 18.5704 14.146 18.9403C14.2583 19.3102 14.0384 19.6389 13.602 19.7637C13.2459 19.8657 12.884 19.9493 12.5278 20.0512C11.9907 20.2058 11.812 20.5093 11.9552 21.0556C12.1491 21.8191 12.3541 22.5765 12.5702 23.3278C12.5965 23.4171 12.5564 23.6714 12.742 23.5832C12.9275 23.495 13.192 23.6874 13.2688 23.3598C13.3661 22.9384 13.6696 22.7964 14.0785 22.8365C14.3442 22.951 14.5847 23.1445 14.5217 23.4446C14.4278 23.8844 14.6591 23.9829 14.997 24.0436C15.1668 24.0659 15.3333 24.1085 15.4929 24.1707C15.7345 24.2852 15.8147 24.181 15.8731 23.9611C16.2785 22.4184 16.6748 20.8689 17.1123 19.3365C17.2142 18.9735 16.9817 18.9586 16.7962 18.9609C16.4526 18.9609 16.054 18.4284 15.7986 18.9723C15.5776 19.4419 15.5089 19.9825 15.3703 20.491C15.2317 20.9995 15.0714 21.1243 14.5217 21.1438C14.0579 20.8448 13.988 20.6719 14.1254 20.1474C14.256 19.6515 14.3843 19.1556 14.5251 18.6585C14.5755 18.481 14.6019 18.3642 14.39 18.2474C14.2747 18.1857 14.185 18.0851 14.137 17.9634C14.0889 17.8417 14.0857 17.707 14.1277 17.5831C14.2079 17.2934 14.398 17.093 14.7003 17.1044C14.9431 17.1124 14.9764 16.9762 15.021 16.8067C15.218 16.0634 15.4116 15.3178 15.6188 14.5791C15.9452 13.4213 16.929 12.8498 18.0892 13.1338C18.1869 13.1542 18.2833 13.1806 18.3778 13.2128C18.6252 13.3056 18.7454 13.2438 18.813 12.9666C19.0248 12.0951 19.2711 11.2304 19.5001 10.3646C19.6376 9.8515 19.8002 9.72896 20.3476 9.71178C20.8218 10.021 20.8836 10.1825 20.7324 10.7505C20.3056 12.347 19.8784 13.9435 19.4509 15.54C19.3707 15.8424 19.1531 16.2535 19.2711 16.4264C19.4326 16.6555 19.8643 16.4264 20.1781 16.4734C20.5644 16.5207 20.936 16.6501 21.2681 16.853C21.6002 17.0558 21.885 17.3275 22.1033 17.6496C22.2453 17.5866 22.2247 17.4892 22.243 17.4102C23.0065 14.1875 23.7723 10.9651 24.5404 7.74308C24.8336 6.50734 25.4314 6.00916 26.6878 5.94273C27.888 5.8786 29.0928 5.8179 30.285 5.73086C31.4028 5.64954 31.3959 5.6358 31.3272 4.50199C31.3146 4.30043 31.2585 4.22599 31.0535 4.22942C30.1533 4.24317 29.2532 4.24431 28.353 4.25118C27.4528 4.25805 26.5572 4.24087 25.6593 4.23171C25.2457 4.21407 24.8315 4.2526 24.4282 4.34624C22.8809 4.75739 22.0025 5.79614 21.6406 7.32391C21.5089 7.89425 21.3635 7.99389 20.7897 8.00649ZM17.8739 21.4759C17.7077 21.9706 17.5772 22.4766 17.4833 22.9899C17.8979 22.8926 18.2667 22.9269 18.6286 22.9292C19.0463 23.0198 19.4385 23.2023 19.7769 23.4634C20.1152 23.7244 20.3912 24.0576 20.5847 24.4387C20.8366 23.3724 21.0668 22.3944 21.3119 21.3591C20.0888 21.9935 19.0065 21.8309 17.9838 20.9777L17.8739 21.4759ZM17.1569 29.4343C18.0044 29.7092 18.6068 30.2635 18.9893 31.2106C19.2883 29.9416 19.5517 28.8204 19.8311 27.6362C18.5496 28.4528 17.3906 28.344 16.2613 27.4244C16.219 27.6179 16.1869 27.7679 16.1537 27.9157C15.9866 28.4092 15.8534 28.9135 15.7551 29.4251C16.2184 29.3353 16.6949 29.3384 17.1569 29.4343ZM7.55851 42.5132C7.73602 42.6861 7.96507 42.7743 8.17924 42.8819C11.9082 44.7453 16.0815 42.9392 17.1409 38.9766C17.5658 37.3916 17.9071 35.7848 18.2862 34.1871C18.3033 34.1138 18.3526 34.0268 18.2644 33.9443C17.0195 34.9006 15.7803 34.8605 14.5457 33.8699C14.5079 34.0256 14.4782 34.1493 14.4495 34.273C14.0991 35.5614 13.7532 36.851 13.3982 38.1394C13.1691 38.9525 12.6492 39.4633 11.8154 39.6283C11.0939 39.7726 10.5087 39.4908 9.98989 39.019C9.80436 38.8964 9.86391 38.4521 9.47338 38.6055C8.31896 39.0636 7.32602 38.7853 6.44646 37.9608C6.39836 37.8909 6.3514 37.821 6.30216 37.7523C5.0836 36.0264 6.11777 33.7588 8.2239 33.5504C9.01757 33.4713 9.69213 33.7702 10.3289 34.32C10.4125 33.9764 10.4835 33.6958 10.5579 33.4106C10.6461 33.1094 10.7366 32.8105 10.8191 32.5082C10.8546 32.381 10.8511 32.286 10.661 32.3238C9.68182 32.5196 8.87212 32.1806 8.17007 31.5164C8.12197 31.4465 8.07502 31.3755 8.02577 31.3057C6.81981 29.5878 7.8494 27.3236 9.93836 27.1083C10.6358 27.0361 11.2531 27.2663 11.8681 27.6992C11.9178 27.0857 11.9005 26.4686 11.8166 25.8588C11.6013 24.3253 11.0836 22.8662 10.7091 21.3717C10.645 21.1174 10.7641 20.7223 10.519 20.6376C10.29 20.5585 9.97271 20.7292 9.69785 20.8036C7.78298 21.3167 5.86925 21.8344 3.94407 22.3532C4.0334 22.628 4.1651 22.8639 4.23382 23.1285C5.07902 26.3845 5.11109 29.6565 4.44226 32.9422C4.16167 34.3246 3.80091 35.7034 4.04485 37.1408C4.42622 39.4496 5.54972 41.2671 7.55851 42.5132ZM14.2262 25.159C14.0246 25.1739 14.0556 25.3801 14.0201 25.5026C13.6765 26.7681 13.3329 28.0394 12.9962 29.3072C12.7179 30.3379 12.7156 30.3379 13.767 30.5967C13.7944 30.604 13.8212 30.6136 13.8471 30.6254C14.0063 30.6929 14.0762 30.6322 14.114 30.4708C14.5331 28.8834 14.9573 27.2972 15.3864 25.7122C15.4173 25.5977 15.4493 25.4832 15.2902 25.4396C14.9454 25.348 14.5996 25.2598 14.2251 25.159H14.2262ZM10.1193 31.0926C10.2972 31.0948 10.4738 31.0619 10.639 30.9959C10.8043 30.9298 10.9548 30.8318 11.0822 30.7076C11.2095 30.5833 11.3112 30.4352 11.3813 30.2716C11.4514 30.1081 11.4886 29.9323 11.4908 29.7544C11.4929 29.5765 11.4601 29.3999 11.394 29.2347C11.3279 29.0694 11.2299 28.9189 11.1057 28.7915C10.9814 28.6642 10.8333 28.5625 10.6697 28.4924C10.5062 28.4223 10.3304 28.3851 10.1525 28.3829C9.79319 28.3785 9.44683 28.5171 9.18964 28.768C8.93244 29.019 8.78548 29.3619 8.78107 29.7212C8.77667 30.0805 8.91519 30.4269 9.16615 30.6841C9.41712 30.9413 9.75998 31.0882 10.1193 31.0926ZM8.43921 37.5336C8.79854 37.5316 9.14236 37.387 9.39505 37.1315C9.64773 36.876 9.78858 36.5306 9.78661 36.1713C9.78464 35.812 9.64 35.4681 9.38452 35.2155C9.12904 34.9628 8.78365 34.8219 8.42432 34.8239C8.065 34.8259 7.72117 34.9705 7.46849 35.226C7.2158 35.4815 7.07495 35.8269 7.07692 36.1862C7.0789 36.5455 7.22353 36.8893 7.47901 37.142C7.73449 37.3947 8.07989 37.5355 8.43921 37.5336ZM18.1819 26.8953C18.4475 26.8925 18.7063 26.8113 18.9258 26.6618C19.1453 26.5123 19.3156 26.3012 19.4153 26.0551C19.5151 25.809 19.5398 25.5388 19.4863 25.2787C19.4329 25.0186 19.3036 24.7801 19.1149 24.5933C18.9262 24.4065 18.6864 24.2797 18.4257 24.2288C18.1651 24.178 17.8952 24.2055 17.6501 24.3077C17.405 24.4099 17.1956 24.5824 17.0484 24.8034C16.9011 25.0244 16.8225 25.284 16.8225 25.5496C16.8203 25.7281 16.8541 25.9052 16.9218 26.0703C16.9895 26.2355 17.0898 26.3853 17.2166 26.5109C17.3435 26.6365 17.4944 26.7352 17.6602 26.8013C17.826 26.8673 18.0035 26.8993 18.1819 26.8953ZM16.4572 30.6437C16.1912 30.6412 15.9305 30.7176 15.7078 30.8631C15.4852 31.0086 15.3106 31.2168 15.2062 31.4614C15.1017 31.706 15.072 31.9761 15.1208 32.2376C15.1696 32.499 15.2947 32.7402 15.4804 32.9306C15.666 33.1211 15.9039 33.2523 16.1641 33.3077C16.4242 33.3631 16.6949 33.3403 16.9421 33.2421C17.1893 33.1439 17.4019 32.9747 17.553 32.7558C17.7041 32.5369 17.7871 32.2782 17.7914 32.0123C17.7966 31.834 17.7659 31.6566 17.7012 31.4904C17.6364 31.3243 17.5389 31.1728 17.4144 31.0452C17.2899 30.9175 17.141 30.8161 16.9766 30.7472C16.8121 30.6782 16.6355 30.643 16.4572 30.6437ZM19.901 20.4509C20.1668 20.4493 20.4261 20.3691 20.6464 20.2204C20.8667 20.0717 21.0381 19.8612 21.139 19.6152C21.2399 19.3693 21.2657 19.0991 21.2133 18.8385C21.1609 18.5779 21.0326 18.3387 20.8445 18.1509C20.6564 17.9631 20.4169 17.8352 20.1563 17.7832C19.8956 17.7313 19.6254 17.7576 19.3797 17.8589C19.1339 17.9602 18.9237 18.1319 18.7753 18.3525C18.627 18.573 18.5473 18.8325 18.5461 19.0983C18.5437 19.277 18.577 19.4544 18.6442 19.62C18.7114 19.7857 18.8111 19.9361 18.9373 20.0626C19.0636 20.1891 19.2139 20.289 19.3794 20.3565C19.5449 20.424 19.7223 20.4576 19.901 20.4555V20.4509ZM17.5223 14.3409C17.1535 14.3615 16.9405 14.5803 16.8454 14.9307C16.7068 15.4392 16.5763 15.9489 16.4388 16.4574C16.1651 17.4583 16.1674 17.4446 17.1901 17.7171C17.4547 17.7893 17.5337 17.7355 17.5979 17.4881C17.7937 16.7013 18.0079 15.9191 18.2163 15.1357C18.3927 14.4692 18.3858 14.4577 17.7067 14.3501C17.6528 14.3535 17.5956 14.3466 17.5223 14.3409ZM11.6814 34.2558C11.6814 34.7483 11.9105 34.943 12.5106 35.1113C12.774 35.1835 12.8874 35.1228 12.955 34.8537C13.1691 33.9959 13.4005 33.1415 13.6421 32.2917C13.72 32.0134 13.6616 31.9012 13.365 31.8245C12.3949 31.5714 12.3972 31.5565 12.1395 32.5185C11.9735 33.1232 11.8166 33.7302 11.6814 34.2558ZM26.3511 11.677C26.3156 11.3713 26.2022 11.1491 25.9319 11.0494C25.7452 10.9819 25.5448 10.9521 25.3593 10.8811C25.1737 10.8101 25.1119 10.8903 25.0741 11.0609C24.9722 11.519 24.8577 11.9771 24.7489 12.4352C24.4866 13.5369 24.4866 13.5369 25.6032 13.7603C25.6315 13.7648 25.6591 13.7725 25.6857 13.7832C25.791 13.8313 25.846 13.7832 25.8701 13.6858L26.3511 11.677ZM33.9945 4.96926V4.58445C33.9945 3.54456 33.9945 3.55372 32.9386 3.59037C32.7027 3.59838 32.6076 3.66481 32.6156 3.90989C32.6294 4.368 32.6156 4.8261 32.6156 5.27733C32.6156 6.31494 32.6156 6.30807 33.6464 6.28745C33.8983 6.28745 34.0083 6.22217 33.99 5.95189C33.9796 5.62549 33.9945 5.2968 33.9945 4.96926ZM35.2841 4.94406C35.2841 5.30024 35.2944 5.65642 35.2841 6.01259C35.2715 6.38709 35.5567 6.31036 35.7273 6.27027C36.0388 6.19812 36.5645 6.55773 36.6367 6.02633C36.734 5.31284 36.6607 4.57529 36.6607 3.85034C36.6607 3.73582 36.6538 3.60411 36.4958 3.60526C36.1133 3.60526 35.6826 3.47584 35.3654 3.66481C35.1501 3.79308 35.3116 4.19621 35.2887 4.47565C35.2738 4.62912 35.2841 4.78716 35.2841 4.94406ZM23.4879 21.4713C23.82 21.4335 24.0502 21.2938 24.135 20.9777C24.2197 20.6616 24.3033 20.3169 24.3801 19.9836C24.6263 18.9208 24.624 18.9265 23.544 18.6757C23.3413 18.6288 23.2692 18.6677 23.2245 18.8658C23.063 19.5874 22.8901 20.3066 22.7172 21.0258C22.6908 21.1403 22.6324 21.2549 22.8042 21.2961L23.4879 21.4713ZM11.52 38.3811C11.6602 38.3691 11.7935 38.3144 11.9016 38.2243C12.0098 38.1341 12.0876 38.013 12.1247 37.8772C12.1968 37.6332 12.2644 37.387 12.3319 37.1408C12.5221 36.4536 12.5209 36.4536 11.8624 36.2532C11.7012 36.1997 11.5433 36.137 11.3894 36.0653C11.2978 36.0241 11.2119 35.9508 11.1707 36.118C11.0447 36.6277 10.8843 37.1316 10.7962 37.647C10.7297 38.0352 11.0733 38.373 11.52 38.3811ZM37.948 4.93948C38.011 5.14563 37.7544 5.57167 38.3248 5.49608C39.4517 5.3449 40.5809 5.20862 41.709 5.06775C41.8098 5.05515 41.9381 5.04714 41.9484 4.9349C41.9587 4.79518 41.8155 4.82038 41.7193 4.80892C40.6485 4.66806 39.5788 4.52261 38.5069 4.39205C37.9503 4.32677 37.9491 4.33937 37.948 4.94292V4.93948Z" fill="#030302"/>
<path d="M25.6627 17.4148C25.4337 17.408 25.2046 17.4148 25.0329 17.6107C24.8611 17.8065 24.6824 17.6462 24.5198 17.6049C23.5772 17.3667 23.5784 17.3621 23.8074 16.4127C23.922 15.9546 24.0365 15.4965 24.1292 15.0384C24.1819 14.7727 24.3022 14.7177 24.5427 14.8002C24.7443 14.8689 24.9538 14.9147 25.1611 14.9674C25.3902 15.0224 25.5872 15.0728 25.6398 15.3648C25.6731 15.5526 25.8792 15.6339 26.0395 15.729C25.9136 16.2909 25.788 16.8529 25.6627 17.4148Z" fill="#F1A830"/>
<path d="M20.1781 16.4711C19.8643 16.4298 19.4325 16.6589 19.271 16.4241C19.1565 16.2512 19.3707 15.84 19.4508 15.5377C19.8761 13.9412 20.3033 12.3447 20.7324 10.7482C20.8835 10.1756 20.8217 10.0187 20.3476 9.70946C20.4942 9.14141 20.6415 8.57374 20.7896 8.00646C21.3623 7.99386 21.5089 7.89193 21.6451 7.32503C22.007 5.79611 22.8855 4.75736 24.4327 4.34735C24.836 4.25371 25.2502 4.21519 25.6639 4.23283C26.5617 4.24199 27.4596 4.24542 28.3575 4.2523C28.188 4.58213 27.8628 4.61076 27.5558 4.64398C26.8355 4.71956 26.0933 4.69093 25.397 4.85814C23.6848 5.27043 22.5854 6.37217 22.1582 8.09121C21.7127 9.88468 21.2947 11.685 20.8698 13.4831C20.6327 14.4772 20.4083 15.4747 20.1781 16.4711Z" fill="#FCC043"/>
<path d="M14.5171 21.1381C15.0668 21.1186 15.2248 20.9995 15.3657 20.4853C15.5066 19.971 15.573 19.4362 15.794 18.9666C16.0494 18.4226 16.4537 18.9598 16.7916 18.9552C16.9771 18.9552 17.2096 18.9678 17.1076 19.3308C16.6736 20.8666 16.2739 22.4127 15.8685 23.9554C15.8101 24.1753 15.7299 24.2761 15.4882 24.165C15.3287 24.1028 15.1622 24.0602 14.9924 24.0379C14.6488 23.9772 14.4197 23.8787 14.5171 23.4389C14.5801 23.1388 14.3396 22.9487 14.0739 22.8308L14.5171 21.1381Z" fill="#F1A830"/>
<path d="M9.98534 39.0212C10.5041 39.4931 11.0894 39.7748 11.8109 39.6305C12.6446 39.4633 13.1692 38.9525 13.3936 38.1417C13.7487 36.8533 14.0945 35.5637 14.445 34.2753C14.7702 34.7162 15.0027 35.2407 15.5444 35.4904C15.659 35.5408 15.6361 35.661 15.6074 35.7584C15.273 36.9311 15.1012 38.1531 14.4461 39.2251C13.5808 40.6699 12.2171 41.7485 10.6118 42.2577C9.60741 42.5933 8.58125 42.4982 7.55739 42.5154C5.54975 41.2671 4.42625 39.4496 4.03572 37.1442C3.79178 35.7069 4.15025 34.328 4.43312 32.9456C5.10196 29.6565 5.06989 26.3879 4.22469 23.1319C4.15597 22.8674 4.02427 22.6314 3.93494 22.3566C5.86012 21.8378 7.77385 21.3201 9.68872 20.807C9.96358 20.7326 10.282 20.5619 10.5099 20.641C10.755 20.7257 10.6359 21.1208 10.7 21.3751C11.0745 22.8639 11.5921 24.3287 11.8075 25.8622C11.8914 26.472 11.9087 27.0891 11.859 27.7026C11.244 27.2697 10.6267 27.0395 9.92923 27.1117C7.84027 27.3258 6.81068 29.5854 8.01664 31.3033C8.06589 31.3732 8.11284 31.4442 8.16094 31.5141C8.14835 32.0065 8.34991 32.3993 8.67059 32.7738C9.18137 33.3659 9.83073 33.4713 10.5488 33.4118L10.3198 34.3211C9.683 33.7714 9.00844 33.4725 8.21477 33.5515C6.11322 33.7611 5.07905 36.0287 6.29875 37.7546C6.348 37.8233 6.39495 37.8932 6.44306 37.963C6.4923 39.5916 8.16094 40.2902 9.43218 39.6191C9.65665 39.5 9.96358 39.3683 9.98534 39.0212ZM9.70246 23.1548C9.71621 22.6601 9.33369 22.3417 8.90078 22.4505C8.04527 22.6635 7.19435 22.8937 6.34571 23.1376C5.93112 23.2522 5.74674 23.5728 5.84179 23.9473C5.92769 24.2852 6.25638 24.4867 6.64348 24.3883C7.49784 24.1752 8.34762 23.9416 9.1974 23.7068C9.50548 23.6175 9.6807 23.4114 9.70246 23.1548Z" fill="#FCC143"/>
<path d="M20.1782 16.4711C20.4073 15.4747 20.6363 14.4772 20.8654 13.482C21.2903 11.6839 21.7083 9.88358 22.1538 8.0901C22.581 6.37221 23.6804 5.26933 25.3926 4.85703C26.0889 4.68983 26.831 4.71846 27.5514 4.64287C27.8595 4.60966 28.1847 4.58103 28.3531 4.25119C29.2533 4.24432 30.1534 4.24317 31.0536 4.22943C31.2586 4.22943 31.3147 4.30044 31.3273 4.502C31.396 5.63581 31.4029 5.64726 30.2851 5.73087C29.0872 5.81791 27.8881 5.87861 26.6879 5.94274C25.4281 6.00916 24.8337 6.50735 24.5405 7.74309C23.777 10.9658 23.0112 14.1882 22.2431 17.4102C22.2248 17.4892 22.2431 17.5866 22.1034 17.6496C21.8853 17.327 21.6006 17.055 21.2685 16.8517C20.9365 16.6484 20.5647 16.5186 20.1782 16.4711Z" fill="#FAAF36"/>
<path d="M7.55847 42.5132C8.58233 42.496 9.60849 42.5911 10.6129 42.2555C12.2182 41.7462 13.5819 40.6676 14.4472 39.2228C15.1023 38.1509 15.2741 36.9323 15.6085 35.7561C15.6371 35.6588 15.6566 35.5385 15.5455 35.4882C15.0038 35.2385 14.7713 34.714 14.4461 34.273C14.4747 34.1493 14.5045 34.0257 14.5423 33.8699C15.7769 34.8617 17.016 34.9006 18.2609 33.9443C18.3491 34.0268 18.2999 34.1138 18.2827 34.1871C17.907 35.7848 17.5658 37.3939 17.1374 38.9766C16.0746 42.9392 11.9047 44.7453 8.17577 42.882C7.96389 42.7743 7.73484 42.6861 7.55847 42.5132Z" fill="#FBB036"/>
<path d="M14.2251 25.159C14.5996 25.2598 14.9455 25.3503 15.2891 25.4442C15.4483 25.4877 15.4162 25.6 15.3853 25.7168C14.9592 27.3033 14.5351 28.8895 14.1129 30.4753C14.0705 30.6368 14.0052 30.6975 13.846 30.6299C13.8201 30.6182 13.7933 30.6086 13.7659 30.6013C12.7145 30.3459 12.7168 30.3459 12.9951 29.3117C13.3387 28.0439 13.6708 26.7727 14.019 25.5072C14.0545 25.3801 14.0235 25.1739 14.2251 25.159Z" fill="#F0A730"/>
<path d="M10.1193 31.0926C9.85186 31.0867 9.59216 31.0018 9.37292 30.8485C9.15368 30.6952 8.98472 30.4805 8.88734 30.2313C8.78996 29.9822 8.76851 29.7098 8.8257 29.4485C8.88288 29.1871 9.01615 28.9486 9.2087 28.7629C9.40124 28.5772 9.64445 28.4527 9.90767 28.405C10.1709 28.3573 10.4423 28.3886 10.6878 28.4949C10.9333 28.6013 11.1417 28.7779 11.287 29.0025C11.4322 29.2272 11.5077 29.4898 11.5039 29.7573C11.4937 30.1167 11.3431 30.4579 11.0842 30.7076C10.8253 30.9572 10.4789 31.0955 10.1193 31.0926Z" fill="#FADD75"/>
<path d="M8.43913 37.5335C8.17173 37.5362 7.90952 37.4597 7.68554 37.3136C7.46155 37.1675 7.2858 36.9584 7.18042 36.7126C7.07505 36.4669 7.04476 36.1954 7.09338 35.9324C7.142 35.6695 7.26734 35.4268 7.45362 35.2349C7.63991 35.0431 7.8788 34.9107 8.14021 34.8543C8.40162 34.798 8.67386 34.8203 8.92263 34.9184C9.1714 35.0165 9.38558 35.186 9.53819 35.4056C9.6908 35.6251 9.77502 35.885 9.78023 36.1523C9.78213 36.5123 9.64271 36.8587 9.39192 37.117C9.14114 37.3753 8.79903 37.5248 8.43913 37.5335Z" fill="#FADD75"/>
<path d="M18.1819 26.8952C17.9163 26.8972 17.6561 26.8206 17.4339 26.675C17.2118 26.5293 17.0378 26.3212 16.9337 26.0768C16.8296 25.8325 16.8002 25.5628 16.8491 25.3017C16.8981 25.0407 17.0231 24.7999 17.2086 24.6098C17.3941 24.4197 17.6317 24.2888 17.8915 24.2334C18.1513 24.1781 18.4216 24.2009 18.6685 24.2989C18.9153 24.397 19.1276 24.5659 19.2787 24.7843C19.4297 25.0028 19.5127 25.2611 19.5173 25.5267C19.5217 25.7048 19.4904 25.882 19.4253 26.0479C19.3602 26.2138 19.2625 26.3649 19.1381 26.4925C19.0136 26.62 18.8649 26.7213 18.7007 26.7905C18.5365 26.8597 18.3601 26.8953 18.1819 26.8952Z" fill="#FADD75"/>
<path d="M16.4572 30.6437C16.7231 30.6459 16.9823 30.7268 17.2023 30.8762C17.4223 31.0256 17.5931 31.2367 17.6933 31.483C17.7935 31.7293 17.8185 31.9997 17.7653 32.2602C17.712 32.5207 17.5828 32.7596 17.394 32.9468C17.2052 33.134 16.9652 33.2612 16.7043 33.3122C16.4434 33.3633 16.1731 33.3359 15.9277 33.2337C15.6823 33.1314 15.4726 32.9588 15.3251 32.7376C15.1776 32.5163 15.0989 32.2564 15.0989 31.9905C15.0962 31.8119 15.1296 31.6346 15.1971 31.4693C15.2646 31.3039 15.3647 31.1539 15.4915 31.0281C15.6183 30.9024 15.7692 30.8035 15.9352 30.7374C16.1011 30.6714 16.2786 30.6395 16.4572 30.6437Z" fill="#FADD75"/>
<path d="M19.901 20.4554C19.6352 20.4556 19.3753 20.3772 19.154 20.23C18.9327 20.0828 18.7599 19.8734 18.6574 19.6282C18.5548 19.383 18.5271 19.1129 18.5778 18.852C18.6284 18.5911 18.7551 18.351 18.942 18.1619C19.1288 17.9729 19.3674 17.8433 19.6277 17.7896C19.888 17.7359 20.1583 17.7603 20.4048 17.86C20.6512 17.9596 20.8626 18.1299 21.0124 18.3494C21.1622 18.569 21.2437 18.8279 21.2467 19.0937C21.2489 19.2718 21.2158 19.4486 21.1492 19.6138C21.0826 19.779 20.9838 19.9293 20.8586 20.056C20.7334 20.1827 20.5843 20.2832 20.4199 20.3518C20.2555 20.4204 20.0791 20.4556 19.901 20.4554Z" fill="#FADD75"/>
<path d="M16.1479 27.9157C16.1812 27.7668 16.2132 27.6179 16.2556 27.4244C17.3848 28.3406 18.5461 28.4551 19.8254 27.6362C19.5459 28.8204 19.2825 29.9417 18.9836 31.2106C18.6022 30.2635 17.9998 29.7092 17.1512 29.4343C17.1489 28.7116 16.4469 28.4482 16.1479 27.9157Z" fill="#F8AE36"/>
<path d="M17.874 21.4759L17.9885 20.9777C19.0112 21.8309 20.0935 21.9935 21.3166 21.3591C21.0715 22.3898 20.8413 23.3724 20.5894 24.4387C20.3959 24.0576 20.1199 23.7244 19.7815 23.4633C19.4432 23.2023 19.0509 23.0198 18.6333 22.9292C18.6539 22.7769 18.7478 22.5765 18.6814 22.4826C18.4386 22.1275 18.1477 21.808 17.874 21.4759Z" fill="#F8AE36"/>
<path d="M17.5223 14.3409C17.5933 14.3409 17.6505 14.3478 17.7067 14.357C18.3858 14.4646 18.3938 14.4715 18.2163 15.1426C18.0079 15.926 17.7937 16.7082 17.5979 17.495C17.536 17.7412 17.4547 17.795 17.1902 17.724C16.1674 17.4457 16.1594 17.4595 16.4389 16.4643C16.5763 15.9558 16.7069 15.4461 16.8454 14.9376C16.9428 14.5826 17.1558 14.3616 17.5223 14.3409Z" fill="#F0A730"/>
<path d="M11.6814 34.2558C11.8188 33.7302 11.9757 33.1232 12.1395 32.5185C12.3972 31.5565 12.3949 31.5714 13.3649 31.8245C13.6616 31.9012 13.72 32.0134 13.6421 32.2917C13.4016 33.1415 13.1702 33.9959 12.9549 34.8537C12.8874 35.1228 12.774 35.1835 12.5106 35.1114C11.9104 34.9476 11.6814 34.7483 11.6814 34.2558Z" fill="#EFA630"/>
<path d="M26.3511 11.677L25.8701 13.6812C25.8461 13.782 25.7911 13.8267 25.6858 13.7786C25.6592 13.7679 25.6316 13.7602 25.6033 13.7557C24.4867 13.5266 24.4867 13.5266 24.7489 12.4306C24.8635 11.9725 24.978 11.5144 25.0742 11.0563C25.112 10.8856 25.1647 10.8009 25.3594 10.8765C25.554 10.9521 25.7453 10.9773 25.932 11.0448C26.2023 11.1468 26.3156 11.3758 26.3511 11.677Z" fill="#EFA630"/>
<path d="M33.9946 4.96927C33.9946 5.29681 33.9797 5.6255 33.9946 5.9519C34.0118 6.22218 33.9018 6.28288 33.651 6.28746C32.6203 6.30693 32.6203 6.31495 32.6203 5.27734C32.6203 4.81924 32.6306 4.36114 32.6203 3.9099C32.6123 3.66482 32.7073 3.59839 32.9432 3.59038C34.0003 3.55144 33.9992 3.54457 33.9992 4.58446L33.9946 4.96927Z" fill="#665D66"/>
<path d="M35.2842 4.94406C35.2842 4.78716 35.2739 4.62911 35.2842 4.47335C35.3071 4.19391 35.1456 3.7862 35.3609 3.66251C35.6782 3.47354 36.1088 3.60525 36.4913 3.60296C36.6493 3.60296 36.6562 3.73008 36.6562 3.84804C36.6562 4.57528 36.7295 5.31283 36.6322 6.02404C36.56 6.55544 36.0343 6.19582 35.7228 6.26798C35.5522 6.30806 35.2647 6.3825 35.2796 6.01029C35.2945 5.65641 35.2842 5.30596 35.2842 4.94406Z" fill="#665D66"/>
<path d="M23.4925 21.4713L22.8054 21.2961C22.6336 21.2514 22.6909 21.138 22.7183 21.0258C22.8913 20.3066 23.0619 19.5873 23.2257 18.8658C23.2704 18.6677 23.3402 18.6288 23.5452 18.6757C24.6252 18.9265 24.6275 18.9208 24.3813 19.9836C24.3045 20.3169 24.2244 20.649 24.1362 20.9777C24.048 21.3064 23.8212 21.4335 23.4925 21.4713Z" fill="#EFA630"/>
<path d="M9.98533 39.0213C9.96242 39.3648 9.65664 39.5 9.43102 39.6191C8.16322 40.2902 6.49114 39.5916 6.44189 37.963C7.32145 38.7876 8.31439 39.0613 9.46882 38.6078C9.85935 38.4544 9.7998 38.8987 9.98533 39.0213Z" fill="#FAAF36"/>
<path d="M11.5199 38.381C11.0732 38.373 10.7297 38.0375 10.7961 37.6469C10.8843 37.1316 11.0446 36.6277 11.1706 36.118C11.2118 35.9485 11.2977 36.0241 11.3893 36.0653C11.5433 36.137 11.7012 36.1997 11.8623 36.2532C12.5208 36.4547 12.522 36.4524 12.3319 37.1407C12.2643 37.387 12.1967 37.6332 12.1246 37.8771C12.0876 38.013 12.0097 38.1341 11.9015 38.2243C11.7934 38.3144 11.6602 38.3691 11.5199 38.381Z" fill="#F1A830"/>
<path d="M37.948 4.94291C37.948 4.33936 37.948 4.32676 38.5104 4.39548C39.5823 4.52603 40.652 4.67148 41.7228 4.81235C41.8156 4.82495 41.9587 4.79861 41.9519 4.93833C41.9439 5.05285 41.8133 5.05858 41.7125 5.07118C40.5844 5.21205 39.4552 5.34833 38.3283 5.49951C37.7545 5.57509 38.011 5.14906 37.948 4.94291Z" fill="#524B53"/>
<path d="M10.5489 33.4129C9.83081 33.4725 9.18145 33.3671 8.67066 32.775C8.34999 32.4039 8.14842 32.0111 8.16102 31.5152C8.86306 32.1795 9.67276 32.5185 10.652 32.3226C10.8421 32.2848 10.8455 32.3799 10.81 32.507C10.7275 32.8128 10.6371 33.1117 10.5489 33.4129Z" fill="#F8AE36"/>
<path d="M16.148 27.9157C16.4423 28.4482 17.1444 28.7174 17.1524 29.4343C16.69 29.3383 16.2131 29.3351 15.7495 29.4251C15.8478 28.9135 15.9809 28.4092 16.148 27.9157Z" fill="#F6BC41"/>
<path d="M17.8738 21.4759C18.1475 21.808 18.4396 22.1275 18.6812 22.4826C18.7453 22.5765 18.6537 22.7769 18.6331 22.9292C18.2666 22.9292 17.8979 22.8926 17.4879 22.9899C17.5802 22.4767 17.7092 21.9707 17.8738 21.4759Z" fill="#F6BC41"/>
<path d="M9.70238 23.1548C9.68062 23.4114 9.50082 23.6129 9.19847 23.7011C8.34869 23.9302 7.4989 24.1695 6.64454 24.3825C6.25286 24.481 5.92417 24.2795 5.84286 23.9416C5.7478 23.5671 5.93219 23.2476 6.34677 23.1319C7.19541 22.8937 8.04634 22.6635 8.90185 22.4448C9.33361 22.3417 9.71613 22.6601 9.70238 23.1548Z" fill="#030302"/>
</svg>
