<svg width="40" height="40" viewBox="0 0 40 40" fill="none" xmlns="http://www.w3.org/2000/svg">
<g clip-path="url(#clip0_18_220)">
<path d="M18.3593 0H21.5626C21.5824 0.0875342 21.6533 0.0729452 21.7147 0.0771135C22.9201 0.175234 24.1138 0.384539 25.2807 0.702358C32.841 2.7146 38.7151 9.33802 39.7832 17.0421C39.8479 17.5079 39.8322 17.9872 40 18.4374V21.6407C39.8781 21.6845 39.9302 21.7929 39.9187 21.8742C39.8343 22.4661 39.778 23.0632 39.6686 23.6457C38.9077 27.7465 36.8842 31.507 33.8811 34.4013C30.878 37.2957 27.0455 39.1792 22.9194 39.7885C22.4411 39.8593 21.9492 39.8395 21.4844 39.9969H18.3582C18.3363 39.9135 18.2655 39.926 18.2029 39.9177C17.6496 39.8447 17.0931 39.7843 16.5419 39.6936C8.16152 38.3087 1.44015 31.4112 0.215709 22.959C0.152143 22.5192 0.17611 22.0628 0 21.6407V18.3593C0.133385 18.303 0.0760714 18.18 0.08545 18.0883C0.50228 14.1878 1.89345 10.6833 4.31314 7.58942C4.55803 7.2768 4.82272 7.12049 5.21349 7.2768C5.56988 7.6707 5.57822 7.87078 5.25414 8.29803C5.17598 8.40224 5.09261 8.50645 5.0155 8.61065C1.61417 13.2343 0.403283 18.377 1.61834 23.9875C2.82506 29.5532 6.03673 33.7132 10.9876 36.5174C12.2716 37.2582 13.6564 37.8086 15.0986 38.1514L15.2341 38.1941L15.3445 38.216C15.3883 38.2411 15.4344 38.262 15.4821 38.2785C19.7952 39.3049 24.0052 38.9777 27.987 37.0218C34.2874 33.9278 37.8961 28.829 38.7203 21.8554C39.1653 18.1039 38.3983 14.5328 36.6268 11.1929C35.4945 9.0188 33.9283 7.10005 32.025 5.5553C31.416 5.00891 30.7573 4.5205 30.0576 4.09639C25.8476 1.47349 21.2906 0.607529 16.422 1.51726C12.9613 2.16439 9.92575 3.71499 7.31953 6.08884C7.01316 6.36811 6.71617 6.47649 6.34727 6.23994C6.08154 5.76996 6.10759 5.60115 6.51505 5.23225C9.4257 2.5662 13.0629 0.825202 16.965 0.230298C17.4318 0.154227 17.9153 0.192784 18.3593 0Z" fill="#040404"/>
<path d="M5.21038 7.27677C5.44068 7.24551 5.52925 7.05376 5.66055 6.89954C5.85419 6.64596 6.08582 6.42381 6.34728 6.24095C6.71617 6.4775 7.01317 6.36912 7.31954 6.08985C9.92472 3.716 12.9613 2.1654 16.422 1.51827C21.2906 0.608539 25.8476 1.4745 30.0576 4.0974C30.7573 4.5215 31.416 5.00992 32.025 5.5563C32.0225 5.62128 32.0353 5.68593 32.0622 5.7451C32.0892 5.80427 32.1296 5.85631 32.1803 5.89706C33.0535 6.79429 33.7549 7.81552 34.4082 8.87844C36.0839 11.6045 36.9665 14.5827 37.1739 17.7569C37.2445 18.9479 37.2019 20.143 37.0468 21.326C36.7836 23.3311 36.2216 25.2855 35.3795 27.1241C35.319 27.2585 35.2909 27.4315 35.1158 27.4899C35.4868 25.8226 35.3096 24.2323 34.5114 22.7213C34.388 22.5094 34.3416 22.2612 34.3801 22.019C34.5631 20.8338 34.5837 19.6292 34.4416 18.4384C34.4072 18.1435 34.3791 17.8965 34.65 17.6787C34.8094 17.5474 34.8584 17.3244 34.8584 17.1077C34.8584 16.8211 34.8772 16.5335 34.8584 16.249C34.8397 15.9958 34.9168 15.9249 35.1783 15.9197C35.8578 15.9062 36.2538 15.4852 36.2673 14.8068C36.2746 14.4421 36.2736 14.0773 36.2673 13.7126C36.2558 12.9832 35.8505 12.5778 35.1294 12.5663C34.3749 12.558 33.6194 12.5507 32.8649 12.5715C32.7453 12.5847 32.6246 12.5608 32.519 12.5033C32.4133 12.4457 32.3279 12.3572 32.2741 12.2495C31.2288 10.5777 29.849 9.14009 28.2215 8.02706C28.1403 7.97705 28.0699 7.91125 28.0146 7.83357C27.9593 7.75589 27.9201 7.66789 27.8995 7.5748C27.8153 7.17864 27.6406 6.80735 27.3889 6.49005C27.1372 6.17274 26.8155 5.91806 26.4489 5.74596C26.2405 5.64175 26.1894 5.52817 26.154 5.3135C25.9508 4.06301 25.2495 3.18142 24.0219 2.83232C22.8318 2.49365 21.7616 2.8021 20.9624 3.76185C20.6893 4.08907 20.4643 4.10261 20.0735 4.10157C19.4764 4.10157 19.1169 3.8671 18.699 3.47633C17.3516 2.20083 15.2112 2.53221 14.2045 4.10157C14.1326 4.21516 14.1253 4.37772 13.8783 4.34229C12.1621 4.09115 10.9605 5.00296 10.7323 6.71717C10.7286 6.78543 10.7075 6.85161 10.671 6.90942C10.6346 6.96723 10.5839 7.01477 10.5239 7.04751C9.71109 7.56855 9.27342 8.33343 9.39847 9.28589C9.47663 9.86007 9.28697 10.1998 8.94309 10.6062C6.45045 13.5448 5.33022 16.9628 5.49382 20.8029C5.50233 20.9583 5.47672 21.1138 5.41879 21.2583C4.80501 22.7964 4.54658 24.3918 4.76437 26.0372C5.25519 29.7408 7.16114 32.4439 10.5927 33.9716C12.5174 34.8282 14.5765 35.2221 16.6742 35.4107C20.6695 35.7681 24.5325 35.2398 28.2413 33.685C28.8321 33.437 28.8769 33.3651 28.8467 32.7617C29.3098 32.5748 29.7563 32.3493 30.1816 32.0875C30.5703 32.4293 30.7454 32.4501 31.1726 32.1823C31.6415 31.8895 32.1032 31.5863 32.5679 31.2861C32.5794 31.505 32.4356 31.653 32.3064 31.7874C31.1997 32.9337 30.0534 34.0393 28.7227 34.9397C26.9506 36.1467 24.9921 37.0543 22.9256 37.6261C21.3809 38.0614 19.7839 38.2837 18.179 38.2868C17.2328 38.2868 16.2876 38.2632 15.3435 38.2159L15.233 38.194L15.0976 38.1513C13.6554 37.8086 12.2706 37.2582 10.9866 36.5174C6.03674 33.7131 2.82507 29.5532 1.61835 23.9875C0.403293 18.3769 1.61835 13.2322 5.01551 8.60645C5.09262 8.50225 5.17599 8.39804 5.25415 8.29383C5.57823 7.87075 5.56989 7.67067 5.21038 7.27677Z" fill="#DDF3FA"/>
<path d="M35.1179 27.4899C35.2929 27.4315 35.3211 27.2586 35.3815 27.1241C36.2236 25.2855 36.7856 23.3311 37.0488 21.326C37.204 20.143 37.2465 18.948 37.176 17.7569C36.9676 14.5828 36.086 11.6087 34.4103 8.87847C33.7569 7.81556 33.0556 6.79432 32.1855 5.89606C32.1348 5.8553 32.0944 5.80326 32.0674 5.74409C32.0405 5.68493 32.0277 5.62027 32.0302 5.5553C33.9335 7.10006 35.4997 9.0188 36.632 11.1929C38.4035 14.5328 39.1705 18.105 38.7255 21.8554C37.8981 28.829 34.2894 33.9278 27.9922 37.0218C24.0104 38.9777 19.8004 39.3049 15.4873 38.2785C15.4396 38.262 15.3935 38.241 15.3497 38.216C16.2939 38.2583 17.239 38.282 18.1852 38.2868C19.788 38.2832 21.3829 38.0609 22.9256 37.6262C24.9912 37.0548 26.949 36.1479 28.7206 34.9418C30.0513 34.0414 31.1976 32.9399 32.3043 31.7895C32.4335 31.6551 32.5773 31.5071 32.5658 31.2883C33.823 30.3486 34.7231 29.009 35.1179 27.4899Z" fill="#C6ECFB"/>
<path d="M15.0986 38.1514L15.2344 38.1942L15.0986 38.1514Z" fill="#C6ECFB"/>
<path d="M35.1179 27.4899C34.7236 29.0087 33.8244 30.3482 32.568 31.2882C32.1032 31.5884 31.6416 31.8916 31.1726 32.1844C30.7454 32.4522 30.5703 32.4314 30.1816 32.0896C30.0639 31.6623 30.2066 31.3664 30.5984 31.1517C30.9111 30.9871 31.1945 30.7807 31.4873 30.588C33.4808 29.2729 34.377 27.4232 34.0498 25.0577C33.8174 23.381 32.99 22.0357 31.4852 21.1666C30.4734 20.534 29.3792 20.235 28.184 20.3652C27.7192 20.4163 27.2565 20.4976 26.7907 20.534C24.3127 20.7279 22.1087 20.0359 20.1975 18.4447C18.0831 16.6857 15.678 15.9552 12.9645 16.4877C7.25495 17.611 4.24023 23.6321 6.75579 28.7956C8.20219 31.7655 10.7761 33.1723 13.8992 33.7652C13.9435 33.7903 13.9903 33.8106 14.0388 33.8257C15.9851 34.2381 17.9753 34.4047 19.963 34.3217C22.7068 34.1967 25.3474 33.6485 27.8703 32.5669C28.2694 32.396 28.5685 32.4627 28.8457 32.7638C28.8759 33.3672 28.8311 33.4391 28.2402 33.6871C24.5304 35.2419 20.6675 35.7712 16.6732 35.4128C14.5755 35.2252 12.5164 34.8302 10.5917 33.9737C7.1622 32.446 5.25417 29.7428 4.76335 26.0393C4.54556 24.3939 4.80399 22.7985 5.41777 21.2604C5.47464 21.1156 5.49918 20.9602 5.48967 20.805C5.32503 16.9618 6.44526 13.5469 8.9379 10.6083C9.28178 10.2019 9.47144 9.86215 9.39328 9.28797C9.26302 8.33552 9.7059 7.57272 10.5187 7.0496C10.5787 7.01685 10.6294 6.96932 10.6658 6.9115C10.7023 6.85369 10.7234 6.78752 10.7271 6.71926C10.9564 5.00505 12.1569 4.09323 13.8732 4.34437C14.1201 4.3798 14.1274 4.21724 14.1993 4.10366C15.206 2.53221 17.3464 2.20083 18.6938 3.47841C19.1106 3.87336 19.4712 4.10366 20.0683 4.10366C20.4591 4.10366 20.6842 4.09115 20.9572 3.76394C21.7564 2.80419 22.8267 2.49574 24.0167 2.83441C25.2464 3.18559 25.9477 4.06406 26.1561 5.31455C26.1915 5.52921 26.2467 5.64592 26.451 5.74701C26.817 5.92005 27.1379 6.17549 27.3887 6.49333C27.6395 6.81116 27.8132 7.18275 27.8963 7.57897C27.917 7.67206 27.9562 7.76006 28.0115 7.83774C28.0668 7.91542 28.1371 7.98122 28.2183 8.03123C29.8459 9.14426 31.2257 10.5819 32.271 12.2537C32.3248 12.3613 32.4102 12.4499 32.5159 12.5074C32.6215 12.565 32.7422 12.5888 32.8618 12.5757C33.6163 12.5549 34.3718 12.5622 35.1262 12.5705C35.8494 12.5778 36.2527 12.9873 36.2642 13.7168C36.2694 14.0815 36.2704 14.4462 36.2642 14.811C36.2506 15.4894 35.8547 15.9103 35.1752 15.9239C34.9137 15.9239 34.8366 16 34.8553 16.2532C34.8751 16.5377 34.8553 16.8253 34.8553 17.1119C34.8553 17.3286 34.8053 17.5516 34.6469 17.6829C34.3812 17.9007 34.4093 18.1477 34.4385 18.4426C34.5806 19.6334 34.5599 20.838 34.377 22.0232C34.3385 22.2654 34.3849 22.5135 34.5083 22.7255C35.3107 24.2323 35.4879 25.8278 35.1179 27.4899ZM27.3024 14.6932C27.4159 14.8297 27.5702 14.7568 27.7015 14.7568C29.523 14.763 31.3487 14.7568 33.1661 14.7568C33.7122 14.7568 34.2582 14.7568 34.8042 14.7568C34.922 14.7568 35.0564 14.8078 35.095 14.6005C35.2252 13.8919 35.1137 13.7387 34.4166 13.7408C34.2478 13.7408 34.079 13.7512 33.9102 13.7564L28.136 13.7408C27.2096 13.7397 27.2096 13.7408 27.3024 14.6932ZM23.5728 10.9511C23.6832 11.3106 23.7812 11.6712 23.7624 12.0568C23.7458 12.3423 23.9021 12.2871 24.0459 12.1672C24.1879 12.0489 24.3187 11.9178 24.4367 11.7754C25.0859 10.9813 25.7424 10.1914 26.3728 9.37863C27.2263 8.2855 26.8105 7.01729 25.4881 6.63589C25.1588 6.54107 24.9785 6.34516 24.9942 5.99085C25.0004 5.84809 25.0046 5.70428 24.9942 5.56152C24.9781 5.29592 24.9024 5.03735 24.7727 4.80502C24.643 4.57269 24.4626 4.37255 24.245 4.21948C24.0274 4.06641 23.778 3.96433 23.5155 3.92083C23.253 3.87732 22.9841 3.89351 22.7287 3.96819C22.2546 4.04009 21.9388 4.33812 21.6866 4.71535C21.498 4.99984 21.4355 5.38228 21.051 5.50837C21.1406 5.83767 21.2521 6.16279 21.3146 6.49626C21.3237 6.57355 21.3519 6.64736 21.3967 6.71103C21.4414 6.7747 21.5013 6.82624 21.571 6.86098C22.6756 7.5352 23.058 8.44077 22.7839 9.73711C22.7568 9.86528 22.7433 9.95177 22.861 10.0383C23.1799 10.2738 23.3758 10.6124 23.5759 10.948L23.5728 10.9511ZM6.77351 18.9178L7.15074 18.4884C10.3239 14.8797 15.6843 14.0898 19.7359 16.6533C20.3819 17.0629 20.9749 17.5568 21.6001 18.0018C23.2675 19.1898 25.1171 19.6483 27.1408 19.3054C28.6716 19.0459 30.1441 19.1616 31.553 19.8473C32.1987 20.1756 32.795 20.593 33.3245 21.0874C33.381 20.2463 33.3712 19.402 33.2953 18.5624C33.2693 18.231 33.1911 18.1018 32.8181 18.105C30.514 18.1258 28.21 18.1175 25.906 18.1143C25.2078 18.1143 24.7597 17.7361 24.718 17.0889C24.6914 16.6471 24.6914 16.2042 24.718 15.7624C24.7303 15.5399 24.8111 15.3266 24.9494 15.1518C25.0876 14.977 25.2765 14.8492 25.4902 14.786C25.6924 14.7203 25.9883 14.8839 26.0873 14.6567C26.1728 14.4587 26.1102 14.1961 26.1134 13.9617C26.1134 13.8835 26.1134 13.8054 26.1134 13.7272C26.1332 12.9852 26.5427 12.5747 27.2888 12.5705C28.4215 12.5643 29.5543 12.5705 30.686 12.5705C30.7954 12.5705 30.9163 12.6164 31.0455 12.5059C30.1793 11.2278 29.0979 10.1098 27.8495 9.20148C27.7036 9.48284 27.59 9.75899 27.4024 9.99033C26.6646 10.9001 25.9352 11.8171 25.187 12.7174C24.9875 12.9681 24.7339 13.1703 24.4451 13.3089C24.1564 13.4475 23.8399 13.5189 23.5196 13.5177C23.4309 13.5185 23.3434 13.5386 23.2633 13.5768C23.1832 13.615 23.1124 13.6702 23.0559 13.7387C22.6768 14.1299 22.1787 14.3847 21.6396 14.4631C21.1004 14.5415 20.5505 14.4392 20.0756 14.1722C19.887 14.068 19.7557 14.0482 19.5545 14.1617C19.0902 14.4336 18.5489 14.544 18.0152 14.4758C17.4815 14.4075 16.9854 14.1645 16.6044 13.7845C16.5371 13.7159 16.4556 13.6628 16.3656 13.6292C16.2755 13.5955 16.1792 13.582 16.0834 13.5897C15.2633 13.6001 14.4432 13.5897 13.6231 13.6032C13.2973 13.6161 12.9728 13.5554 12.6737 13.4257C12.3746 13.296 12.1085 13.1006 11.8953 12.8539C11.3868 12.2964 10.8532 11.7566 10.3572 11.1866C10.1842 10.9918 10.1009 11.0209 9.94037 11.2023C9.28272 11.9583 8.70868 12.7832 8.22824 13.6626C7.3602 15.2966 6.83395 17.0347 6.77351 18.9178ZM14.5213 12.4173C14.859 12.4173 15.1976 12.4069 15.5353 12.4173C15.7739 12.4277 15.8635 12.3808 15.8573 12.1047C15.8156 10.0654 17.8028 8.86176 19.6025 9.83089C19.663 9.8751 19.736 9.89892 19.8109 9.89892C19.8858 9.89892 19.9588 9.8751 20.0193 9.83089C20.4268 9.5688 20.9086 9.44662 21.3917 9.48284C21.6126 9.49847 21.6595 9.4026 21.6929 9.23483C21.8138 8.62521 21.4094 8.00935 20.755 7.81135C20.2611 7.66234 20.1527 7.51332 20.1652 7.00062C20.184 6.25137 19.7838 5.68448 19.1106 5.50941C18.4374 5.33434 17.7841 5.66468 17.4485 6.34307C17.212 6.82347 16.9275 6.93393 16.4408 6.73385C16.1692 6.60634 15.8637 6.5698 15.5697 6.62964C15.009 6.75886 14.8579 6.67966 14.5557 6.17738C14.1837 5.56047 13.4928 5.30204 12.8436 5.53651C12.5278 5.64636 12.2615 5.86529 12.0926 6.15391C11.9238 6.44254 11.8634 6.78193 11.9224 7.11108C11.9849 7.54354 11.8692 7.74883 11.4774 7.89889C10.4562 8.28967 10.2144 9.29422 10.9564 10.1102C11.3576 10.5541 11.8067 10.9595 12.1704 11.4315C12.7738 12.2141 13.4907 12.6632 14.5172 12.4173H14.5213ZM29.7617 16.9399C30.9079 16.9399 32.0542 16.918 33.2005 16.9514C33.6236 16.9639 33.7559 16.8284 33.6913 16.4366C33.6845 16.398 33.6845 16.3585 33.6913 16.3199C33.7538 15.9812 33.5975 15.9218 33.2849 15.9239C31.033 15.9364 28.7821 15.9291 26.5302 15.9239C25.8747 15.9239 25.8924 15.9239 25.8737 16.5814C25.8653 16.8868 25.9675 16.9462 26.2509 16.943C27.4149 16.9316 28.5862 16.9399 29.7575 16.9399H29.7617ZM18.3322 13.3C18.5078 13.3012 18.6819 13.2675 18.8443 13.2009C19.0068 13.1342 19.1544 13.0359 19.2785 12.9117C19.4026 12.7875 19.5008 12.6398 19.5674 12.4773C19.6339 12.3148 19.6674 12.1407 19.666 11.9651C19.6548 11.617 19.51 11.2866 19.2616 11.0425C19.0133 10.7984 18.6804 10.6593 18.3322 10.6541C18.1567 10.6546 17.983 10.6901 17.8213 10.7584C17.6597 10.8268 17.5132 10.9266 17.3905 11.0521C17.2678 11.1776 17.1713 11.3263 17.1067 11.4895C17.042 11.6527 17.0105 11.8271 17.014 12.0026C17.0137 12.1748 17.0477 12.3454 17.1141 12.5043C17.1805 12.6632 17.2779 12.8072 17.4007 12.928C17.5234 13.0488 17.669 13.144 17.829 13.2078C17.9889 13.2717 18.16 13.303 18.3322 13.3ZM21.2177 13.3052C21.8429 13.2996 22.2681 13.0353 22.4932 12.5121C22.6048 12.2813 22.6428 12.0218 22.602 11.7686C22.5612 11.5155 22.4435 11.281 22.265 11.097C21.8919 10.6864 21.4199 10.5635 20.8821 10.7094C20.6591 10.7698 20.5612 10.8594 20.6737 11.1262C20.7869 11.3968 20.8452 11.6873 20.8452 11.9807C20.8452 12.2741 20.7869 12.5645 20.6737 12.8352C20.5518 13.1343 20.6914 13.2083 20.9144 13.2656C21.0146 13.2854 21.1159 13.2986 21.2177 13.3052ZM16.7837 3.89003C16.073 3.89003 15.579 4.16826 15.2206 4.70076C15.0653 4.93106 15.3248 5.45627 15.5999 5.42396C15.875 5.39166 16.1147 5.44585 16.37 5.47294C16.4268 5.48546 16.4861 5.48063 16.5402 5.45908C16.5942 5.43753 16.6406 5.40025 16.6732 5.35206C16.9486 4.97212 17.3221 4.67423 17.7538 4.49026C17.9404 4.41211 17.9247 4.32145 17.782 4.22037C17.4959 4.0009 17.1442 3.88449 16.7837 3.89003Z" fill="#030303"/>
<path d="M28.8456 32.7639C28.5684 32.4585 28.2694 32.396 27.8703 32.5669C25.3474 33.6486 22.7068 34.1967 19.963 34.3218C17.9753 34.4047 15.985 34.2381 14.0388 33.8257C13.9902 33.8106 13.9434 33.7903 13.8992 33.7653C13.97 33.6611 14.0732 33.6611 14.1764 33.6955C14.5525 33.7997 14.9527 33.8059 15.3279 33.8091C16.5575 33.8184 17.7871 33.8726 19.0199 33.7643C20.5108 33.6292 21.9863 33.3581 23.4279 32.9546C23.5498 32.9212 23.7301 32.9316 23.7509 32.7326C23.9125 32.6847 24.0719 32.6284 24.2365 32.5888C26.6261 32.004 28.8913 30.9953 30.9246 29.6105C31.5384 29.2 32.0708 28.705 32.4199 28.0474C33.238 26.525 33.1671 25.0108 32.3418 23.5134C32.3699 23.4971 32.3917 23.4717 32.4034 23.4414C32.4152 23.4111 32.4162 23.3776 32.4064 23.3466C32.2272 22.7568 32.0448 22.1691 31.6999 21.647C31.604 21.5022 31.455 21.3719 31.4852 21.1677C32.99 22.0357 33.8174 23.3821 34.0497 25.0588C34.377 27.4243 33.4808 29.274 31.4873 30.5891C31.1945 30.7818 30.9069 30.9882 30.5984 31.1528C30.2055 31.3612 30.0628 31.6593 30.1816 32.0907C29.7559 32.3522 29.309 32.5773 28.8456 32.7639Z" fill="#8D4C23"/>
<path d="M6.77344 18.9177C6.83805 17.0347 7.36429 15.2965 8.24276 13.6626C8.72188 12.7834 9.29452 11.9585 9.95072 11.2022C10.106 11.0209 10.1894 10.9938 10.3675 11.1866C10.8677 11.7514 11.3971 12.2912 11.9057 12.8539C12.1189 13.1005 12.3849 13.296 12.684 13.4257C12.9832 13.5554 13.3076 13.6161 13.6334 13.6032C14.4535 13.5886 15.2736 13.6032 16.0937 13.5896C16.1896 13.582 16.2859 13.5955 16.3759 13.6291C16.466 13.6628 16.5475 13.7159 16.6148 13.7845C16.9958 14.1644 17.4918 14.4075 18.0256 14.4758C18.5593 14.544 19.1006 14.4336 19.5649 14.1617C19.766 14.0481 19.8973 14.0679 20.0859 14.1721C20.5602 14.4396 21.1096 14.5426 21.6485 14.4651C22.1874 14.3876 22.6855 14.134 23.0652 13.7439C23.1217 13.6754 23.1925 13.6201 23.2726 13.582C23.3527 13.5438 23.4402 13.5237 23.5289 13.5229C23.8493 13.5241 24.1657 13.4527 24.4544 13.3141C24.7432 13.1755 24.9968 12.9733 25.1963 12.7226C25.9445 11.8223 26.6739 10.9052 27.4117 9.99551C27.5993 9.76417 27.7129 9.48802 27.8588 9.20667C29.1015 10.1144 30.1778 11.2302 31.0402 12.5048C30.911 12.6153 30.7901 12.5694 30.6807 12.5694C29.549 12.5694 28.4163 12.5694 27.2835 12.5694C26.5374 12.5694 26.1279 12.9863 26.1081 13.7261C26.1081 13.8043 26.1081 13.8825 26.1081 13.9606C26.1081 14.1951 26.1675 14.4577 26.082 14.6557C25.983 14.8828 25.6871 14.7192 25.4849 14.7849C25.2712 14.8482 25.0823 14.9759 24.9441 15.1507C24.8059 15.3255 24.7251 15.5388 24.7127 15.7613C24.6862 16.2031 24.6862 16.6461 24.7127 17.0879C24.7544 17.735 25.2025 18.1122 25.9007 18.1133C28.2047 18.1133 30.5087 18.1247 32.8128 18.1039C33.1848 18.1039 33.264 18.23 33.29 18.5614C33.3659 19.4009 33.3757 20.2452 33.3192 21.0863C32.7897 20.592 32.1934 20.1745 31.5477 19.8462C30.1388 19.1606 28.6664 19.0449 27.1356 19.3044C25.1118 19.6472 23.2632 19.1887 21.5948 18.0007C20.9696 17.5558 20.3767 17.0629 19.7306 16.6523C15.679 14.0888 10.3186 14.8808 7.14546 18.4874L6.77344 18.9177Z" fill="#97E3F9"/>
<path d="M31.4852 21.1708C31.455 21.3792 31.604 21.5053 31.6999 21.6501C32.0448 22.1712 32.2272 22.7599 32.4064 23.3498C32.4162 23.3808 32.4152 23.4142 32.4034 23.4445C32.3917 23.4748 32.3699 23.5002 32.3418 23.5165C31.1955 21.919 29.6657 21.2333 27.7056 21.5595C27.3224 21.6316 26.935 21.68 26.5458 21.7043C23.9406 21.8085 21.6063 21.0697 19.6014 19.4055C17.6715 17.8028 15.4998 17.1275 13.0363 17.6079C9.80903 18.2363 7.26325 21.0812 7.03399 24.2209C6.77347 27.8098 8.70131 30.86 11.9838 32.0563C13.5528 32.6124 15.1859 32.9678 16.8441 33.114C18.1787 33.2401 19.5218 33.2495 20.8581 33.1421C21.8314 33.0661 22.786 32.8795 23.7488 32.7326C23.728 32.9316 23.5477 32.9212 23.4258 32.9546C21.9842 33.3581 20.5088 33.6292 19.0178 33.7642C17.7851 33.8685 16.5554 33.8184 15.3258 33.8091C14.9506 33.8091 14.5505 33.8091 14.1743 33.6955C14.0701 33.6652 13.9659 33.6569 13.8971 33.7653C10.7709 33.1734 8.20007 31.7655 6.75367 28.7956C4.24019 23.6322 7.25491 17.6111 12.9644 16.4919C15.6738 15.9594 18.0831 16.6899 20.1975 18.4489C22.1086 20.0401 24.3126 20.7321 26.7907 20.5382C27.2565 20.5018 27.7192 20.4205 28.1839 20.3694C29.3792 20.2392 30.4734 20.5382 31.4852 21.1708Z" fill="#9B5327"/>
<path d="M14.5171 12.4174C13.4907 12.6633 12.7737 12.209 12.1662 11.4284C11.8025 10.9564 11.3534 10.551 10.9522 10.1071C10.2144 9.29115 10.4562 8.28659 11.4732 7.89581C11.865 7.74575 11.9807 7.54046 11.9182 7.108C11.8592 6.77885 11.9195 6.43946 12.0884 6.15083C12.2573 5.86221 12.5235 5.64329 12.8394 5.53343C13.4886 5.29896 14.1795 5.5574 14.5515 6.1743C14.8537 6.67658 15.0048 6.75578 15.5654 6.62656C15.8595 6.56672 16.165 6.60326 16.4366 6.73077C16.9274 6.93085 17.2078 6.82039 17.4443 6.33999C17.7799 5.65952 18.4364 5.32918 19.1064 5.50633C19.7765 5.68349 20.1797 6.24829 20.161 6.99754C20.1485 7.51024 20.2569 7.65926 20.7508 7.80828C21.4052 8.00627 21.8096 8.62213 21.6887 9.23175C21.6553 9.39952 21.6084 9.49539 21.3875 9.47976C20.9038 9.44277 20.4212 9.56461 20.013 9.82677C19.9525 9.87098 19.8795 9.8948 19.8046 9.8948C19.7297 9.8948 19.6567 9.87098 19.5962 9.82677C17.7965 8.85764 15.8093 10.0612 15.851 12.1006C15.8572 12.3799 15.7676 12.4267 15.529 12.4132C15.1934 12.4069 14.8547 12.4174 14.5171 12.4174Z" fill="#79C8A4"/>
<path d="M23.5759 10.948C23.3758 10.6125 23.1799 10.2738 22.8579 10.0383C22.7401 9.95181 22.7537 9.86532 22.7808 9.73715C23.0548 8.44081 22.6766 7.53524 21.5678 6.86102C21.5008 6.82601 21.4433 6.77532 21.4001 6.71326C21.3569 6.65121 21.3293 6.57963 21.3198 6.50463C21.2573 6.17117 21.1458 5.84604 21.0562 5.51675C21.4407 5.39066 21.5032 5.00822 21.6918 4.72373C21.943 4.3465 22.2587 4.04847 22.7339 3.97656C23.1945 4.51427 23.4967 5.11346 23.4373 5.845C23.4227 6.0357 23.5352 6.06592 23.6863 6.1149C25.264 6.63593 25.7403 8.58774 24.6826 9.74236C24.5263 9.91326 24.4231 10.1352 24.2564 10.2905C24.024 10.5052 23.9437 10.8782 23.5759 10.948Z" fill="#028F5C"/>
<path d="M23.5759 10.948C23.9437 10.8782 24.024 10.5051 24.2553 10.2905C24.4221 10.1352 24.5252 9.91322 24.6815 9.74232C25.7392 8.58771 25.263 6.63278 23.6853 6.11487C23.5342 6.06589 23.4217 6.03567 23.4362 5.84497C23.4956 5.11552 23.1934 4.51424 22.7328 3.97653C22.9882 3.90186 23.2572 3.88567 23.5197 3.92917C23.7822 3.97268 24.0315 4.07476 24.2491 4.22783C24.4668 4.3809 24.6472 4.58103 24.7769 4.81337C24.9066 5.0457 24.9822 5.30427 24.9983 5.56986C25.0046 5.71263 24.9983 5.85643 24.9983 5.9992C24.9827 6.3535 25.163 6.54941 25.4923 6.64424C26.8147 7.02564 27.2304 8.29384 26.377 9.38698C25.7465 10.1956 25.09 10.9855 24.4408 11.7837C24.3235 11.9234 24.1938 12.0521 24.0532 12.1683C23.9094 12.2881 23.753 12.3433 23.7697 12.0578C23.7885 11.6712 23.6863 11.3075 23.5759 10.948Z" fill="#01794D"/>
<path d="M29.7575 16.94C28.5862 16.94 27.4149 16.9316 26.2436 16.9472C25.9602 16.9472 25.858 16.891 25.8664 16.5856C25.8851 15.9291 25.8664 15.9281 26.5229 15.9281C28.7748 15.9281 31.0257 15.9364 33.2776 15.9281C33.5902 15.9281 33.7465 15.9854 33.684 16.3241C33.6772 16.3627 33.6772 16.4022 33.684 16.4408C33.7486 16.8326 33.6163 16.9681 33.1932 16.9556C32.049 16.9181 30.9027 16.94 29.7575 16.94Z" fill="#FCB340"/>
<path d="M27.3024 14.6932C27.2065 13.7439 27.2065 13.7429 28.136 13.7439L33.9101 13.7585C33.9101 14.6297 33.8455 14.6911 32.991 14.6911L27.3024 14.6932Z" fill="#FDCD84"/>
<path d="M18.3322 13.3C18.16 13.303 17.9889 13.2717 17.829 13.2079C17.669 13.144 17.5234 13.0489 17.4007 12.9281C17.278 12.8073 17.1805 12.6632 17.1141 12.5043C17.0477 12.3454 17.0137 12.1748 17.014 12.0026C17.0105 11.8271 17.042 11.6527 17.1067 11.4895C17.1713 11.3263 17.2678 11.1777 17.3905 11.0521C17.5132 10.9266 17.6597 10.8268 17.8214 10.7585C17.983 10.6902 18.1567 10.6547 18.3322 10.6542C18.6804 10.6594 19.0133 10.7984 19.2616 11.0425C19.51 11.2866 19.6549 11.617 19.6661 11.9651C19.6675 12.1407 19.6339 12.3148 19.5674 12.4773C19.5008 12.6399 19.4027 12.7875 19.2785 12.9117C19.1544 13.036 19.0068 13.1343 18.8444 13.2009C18.6819 13.2676 18.5078 13.3012 18.3322 13.3Z" fill="#F49393"/>
<path d="M21.2177 13.3051C21.1158 13.2979 21.0145 13.284 20.9145 13.2635C20.6915 13.2062 20.5518 13.1322 20.6737 12.8331C20.787 12.5624 20.8453 12.272 20.8453 11.9786C20.8453 11.6852 20.787 11.3947 20.6737 11.1241C20.5695 10.8594 20.6633 10.7698 20.8822 10.7073C21.4199 10.5614 21.8919 10.6843 22.265 11.0949C22.4435 11.2789 22.5612 11.5134 22.602 11.7665C22.6428 12.0197 22.6048 12.2792 22.4932 12.51C22.266 13.0359 21.8409 13.301 21.2177 13.3051Z" fill="#C66C36"/>
<path d="M16.7836 3.89002C17.1427 3.88543 17.4929 4.00178 17.7778 4.22036C17.9205 4.32457 17.9362 4.4121 17.7496 4.49026C17.3195 4.67486 16.9474 4.9727 16.6732 5.35205C16.6408 5.39948 16.5952 5.43626 16.5419 5.45778C16.4887 5.47929 16.4303 5.48456 16.3741 5.47293C16.1188 5.44584 15.8708 5.39269 15.604 5.42396C15.3372 5.45522 15.0694 4.93106 15.2247 4.70076C15.579 4.16826 16.0729 3.88481 16.7836 3.89002Z" fill="#028F5C"/>
<path d="M27.3023 14.6932H32.991C33.8455 14.6932 33.9059 14.6317 33.9101 13.7606C34.0789 13.7554 34.2477 13.7449 34.4165 13.7449C35.1137 13.7449 35.2252 13.896 35.0949 14.6046C35.0564 14.8131 34.9219 14.7599 34.8042 14.761C34.2581 14.761 33.7121 14.761 33.1661 14.761C31.3445 14.761 29.5188 14.761 27.7014 14.761C27.5732 14.7537 27.419 14.8266 27.3023 14.6932Z" fill="#FCB340"/>
<path d="M23.7509 32.7326C22.788 32.8795 21.8335 33.066 20.8602 33.1421C19.5239 33.2495 18.1808 33.2401 16.8461 33.114C15.1872 32.968 13.5534 32.6126 11.9838 32.0563C8.70126 30.86 6.77342 27.8098 7.03394 24.2209C7.26319 21.0812 9.80898 18.2363 13.0332 17.6111C15.4997 17.1307 17.6714 17.8059 19.5982 19.4086C21.6032 21.0759 23.9416 21.8137 26.5426 21.7074C26.9318 21.6831 27.3192 21.6348 27.7024 21.5626C29.6626 21.2364 31.1923 21.9221 32.3386 23.5196C33.1639 25.0171 33.2348 26.5312 32.4168 28.0537C32.0645 28.7081 31.5352 29.2 30.9214 29.6168C28.8881 31.0015 26.6229 32.0102 24.2334 32.595C24.0718 32.6284 23.9124 32.6846 23.7509 32.7326ZM16.3188 31.852C17.6464 32.0542 18.924 32.0511 20.1932 32.0292C20.3276 32.03 20.4607 32.0026 20.5838 31.9487C20.707 31.8949 20.8174 31.8158 20.9081 31.7166C23.7446 28.8682 26.5864 26.0241 29.4333 23.1841C29.4792 23.1382 29.5229 23.0892 29.5719 23.0465C29.7428 22.9006 29.6876 22.8245 29.4979 22.7683C29.0324 22.6395 28.5441 22.6157 28.0682 22.6985C27.2575 22.8183 26.4457 22.9402 25.6235 22.8829C25.5085 22.8725 25.3928 22.8899 25.286 22.9336C25.1791 22.9773 25.0844 23.0461 25.0097 23.134C22.2079 25.9442 19.4027 28.7515 16.5939 31.5561C16.5168 31.6374 16.4407 31.7228 16.3188 31.852ZM23.8019 22.6703C22.7206 22.4495 21.677 22.0728 20.7039 21.5522C20.5152 21.448 20.4444 21.5803 20.3496 21.6751C17.4693 24.5533 14.589 27.4309 11.7087 30.3077C11.5003 30.5098 11.5315 30.5942 11.7827 30.7078C12.6518 31.1017 13.5657 31.3425 14.4921 31.5582C14.6061 31.5944 14.7284 31.5958 14.8433 31.5622C14.9582 31.5286 15.0605 31.4615 15.1371 31.3696C17.9069 28.5844 20.6827 25.8056 23.4643 23.033C23.5612 22.9319 23.655 22.8266 23.8019 22.6703ZM10.4811 29.8606C10.5853 29.7564 10.6822 29.6762 10.7719 29.5855C13.5785 26.7816 16.3838 23.9767 19.1876 21.1708C19.2523 21.1062 19.3137 21.0395 19.3804 20.977C19.4721 20.8925 19.5003 20.8154 19.3804 20.7258C18.6426 20.1756 17.9674 19.5347 17.0993 19.1731C17.0215 19.1295 16.9306 19.1153 16.8432 19.1331C16.7558 19.1509 16.6777 19.1995 16.6231 19.27C14.0249 21.8773 11.4221 24.4801 8.81484 27.0783C8.64707 27.2461 8.63039 27.3815 8.72522 27.5879C9.0937 28.3951 9.626 29.1169 10.2883 29.7074C10.3446 29.7616 10.4071 29.8033 10.4811 29.8648V29.8606ZM22.5806 31.6165L22.6327 31.7134C22.6969 31.7192 22.7614 31.7192 22.8255 31.7134C25.6391 31.1861 28.2328 30.1149 30.5494 28.4288C32.0416 27.343 32.2459 25.2244 31.0704 23.7822C30.8703 23.5373 30.7505 23.5071 30.5066 23.753C28.0057 26.2762 25.4939 28.7908 22.9714 31.2966C22.8466 31.4097 22.7162 31.5165 22.5806 31.6165ZM8.25108 25.8434L15.3705 18.7209C11.6232 18.0029 7.56748 21.4667 8.25108 25.8434Z" fill="#020101"/>
<path d="M16.3189 31.852C16.4408 31.7228 16.5169 31.6374 16.5982 31.5561C19.4048 28.7494 22.2087 25.9421 25.0098 23.134C25.0836 23.0459 25.1775 22.9767 25.2836 22.9323C25.3896 22.8879 25.5048 22.8695 25.6194 22.8787C26.4416 22.9361 27.2534 22.8141 28.0641 22.6943C28.54 22.6115 29.0283 22.6354 29.4938 22.7641C29.6835 22.8204 29.7387 22.8965 29.5678 23.0423C29.5189 23.0851 29.4751 23.134 29.4292 23.1799C26.5865 26.0227 23.7447 28.8668 20.904 31.7124C20.8134 31.8116 20.7029 31.8907 20.5798 31.9445C20.4566 31.9984 20.3236 32.0258 20.1892 32.025C18.9189 32.0511 17.6465 32.0542 16.3189 31.852Z" fill="#C66C36"/>
<path d="M23.802 22.6703C23.6551 22.8266 23.5613 22.9318 23.4623 23.0308C20.6834 25.8097 17.9077 28.5886 15.1351 31.3674C15.0585 31.4594 14.9562 31.5265 14.8413 31.5601C14.7264 31.5937 14.6041 31.5923 14.4901 31.556C13.5657 31.3403 12.6518 31.0996 11.7807 30.7057C11.5295 30.5921 11.5035 30.5077 11.7067 30.3056C14.5904 27.4315 17.4707 24.554 20.3476 21.673C20.4424 21.5782 20.5132 21.4479 20.7019 21.5501C21.6756 22.0716 22.7198 22.449 23.802 22.6703Z" fill="#C66C36"/>
<path d="M10.4812 29.8648C10.4072 29.8064 10.3447 29.7606 10.2884 29.7116C9.62606 29.1211 9.09376 28.3993 8.72528 27.592C8.63046 27.3836 8.64713 27.2502 8.8149 27.0824C11.4243 24.4849 14.0274 21.8835 16.6242 19.2783C16.6788 19.2078 16.7569 19.1592 16.8443 19.1414C16.9317 19.1236 17.0226 19.1378 17.1004 19.1814C17.9685 19.543 18.6437 20.1839 19.3815 20.7341C19.5003 20.8237 19.4722 20.9009 19.3815 20.9853C19.3148 21.0478 19.2534 21.1145 19.1887 21.1791C16.3828 23.9816 13.5772 26.7868 10.7719 29.5949C10.6823 29.6803 10.5864 29.7647 10.4812 29.8648Z" fill="#C66C36"/>
<path d="M22.5807 31.6165C22.716 31.5161 22.846 31.409 22.9705 31.2955C25.486 28.7855 27.9978 26.271 30.5057 23.7519C30.7496 23.506 30.8694 23.5362 31.0695 23.7811C32.246 25.2233 32.0417 27.3419 30.5484 28.4277C28.233 30.1159 25.6413 31.185 22.8215 31.7123C22.7573 31.7181 22.6928 31.7181 22.6287 31.7123L22.5807 31.6165Z" fill="#C66C36"/>
<path d="M8.2512 25.8434C7.56759 21.4667 11.6233 18.0008 15.3706 18.7208L8.2512 25.8434Z" fill="#C66C36"/>
</g>
<defs>
<clipPath id="clip0_18_220">
<rect width="40" height="40" fill="white"/>
</clipPath>
</defs>
</svg>
